{"glyphs":{"0":{"ha":833,"x_min":72,"x_max":760,"o":"m 424 734 q 597 689 521 734 q 716 561 673 644 q 760 370 760 478 q 715 170 760 259 q 591 31 671 81 q 408 -20 511 -20 q 235 26 312 -20 q 115 154 159 71 q 72 347 72 237 q 116 545 72 457 q 239 684 159 633 q 424 734 319 734 m 411 710 q 305 667 351 710 q 233 544 258 625 q 207 351 207 463 q 235 154 207 232 q 312 41 264 77 q 421 5 361 5 q 527 48 481 5 q 600 173 574 92 q 625 366 625 254 q 597 562 625 484 q 520 674 568 639 q 411 710 471 710 z "},"1":{"ha":514,"x_min":65,"x_max":485,"o":"m 351 143 q 365 74 351 98 q 407 39 378 50 q 485 29 435 29 l 485 0 q 293 5 333 5 q 79 0 250 5 l 79 29 q 190 54 153 29 q 227 143 227 79 l 227 479 q 213 578 227 547 q 166 619 199 609 q 65 629 133 629 l 65 660 q 233 678 167 662 q 351 730 299 694 l 351 143 z "},"2":{"ha":665,"x_min":65,"x_max":603,"o":"m 65 561 q 169 686 102 637 q 339 734 236 734 q 492 689 436 734 q 547 559 547 643 q 493 408 547 477 q 336 246 439 339 q 199 107 233 153 l 481 107 q 537 114 519 107 q 563 134 555 120 q 574 178 570 149 l 597 178 q 603 -7 597 50 q 396 0 572 0 l 71 0 l 71 24 q 195 143 94 49 q 354 332 296 238 q 412 529 412 425 q 273 679 412 679 q 87 549 160 679 l 65 561 z "},"3":{"ha":627,"x_min":52,"x_max":566,"o":"m 61 561 q 315 734 141 734 q 418 715 373 734 q 490 661 464 696 q 515 576 515 625 q 487 479 515 525 q 411 400 458 434 q 309 347 363 367 q 435 322 376 346 q 529 252 493 298 q 566 136 566 205 q 489 -44 566 35 q 293 -166 412 -123 q 52 -210 173 -210 l 52 -184 q 237 -144 150 -182 q 379 -34 325 -106 q 433 136 433 38 q 415 233 433 190 q 364 301 397 276 q 286 330 330 327 q 264 321 280 328 q 239 313 249 315 q 221 310 229 310 q 199 328 199 310 q 209 347 199 340 q 235 354 219 354 q 258 352 243 354 q 283 349 272 349 q 364 441 338 390 q 390 549 390 493 q 358 643 390 612 q 269 673 327 673 q 163 643 211 673 q 85 550 116 612 l 61 561 z "},"4":{"ha":686,"x_min":24,"x_max":636,"o":"m 631 239 q 636 68 631 122 q 497 75 612 74 l 497 -196 l 386 -196 l 386 75 l 24 75 l 24 104 l 475 734 l 497 734 l 497 168 l 514 168 q 570 175 552 168 q 596 195 589 181 q 607 239 604 210 l 631 239 m 386 564 l 106 168 l 386 168 l 386 564 z "},"5":{"ha":576,"x_min":62,"x_max":521,"o":"m 464 785 q 469 582 464 644 q 277 589 439 589 l 129 589 l 113 321 q 187 352 151 340 q 275 363 224 363 q 412 335 357 363 q 494 259 467 308 q 521 149 521 211 q 453 -35 521 45 q 279 -161 386 -116 q 62 -205 173 -205 l 62 -180 q 222 -144 147 -180 q 342 -37 296 -108 q 389 135 389 35 q 343 272 389 223 q 214 321 298 321 q 156 315 180 321 q 100 297 132 310 l 86 306 l 113 720 q 187 714 140 714 l 345 714 q 401 721 382 714 q 426 741 419 727 q 437 785 433 755 l 464 785 z "},"6":{"ha":718,"x_min":77,"x_max":665,"o":"m 553 977 q 400 902 468 949 q 281 755 333 854 q 216 494 230 656 q 303 581 247 553 q 415 608 359 608 q 539 572 481 608 q 631 468 596 536 q 665 306 665 399 q 624 131 665 205 q 514 19 583 57 q 359 -20 444 -20 q 208 27 271 -20 q 111 162 144 73 q 77 375 77 251 q 151 705 77 570 q 332 911 224 840 q 547 1004 439 983 l 553 977 m 374 8 q 452 38 417 8 q 509 132 488 68 q 530 296 530 197 q 489 503 530 437 q 380 568 448 568 q 284 539 332 568 q 213 448 236 511 q 211 378 211 414 q 234 158 211 240 q 294 42 258 75 q 374 8 331 8 z "},"7":{"ha":564,"x_min":37,"x_max":553,"o":"m 553 685 q 461 500 532 637 q 350 240 389 363 q 313 -25 311 118 q 315 -86 313 -50 q 318 -135 318 -122 q 300 -186 318 -166 q 253 -205 282 -205 q 207 -183 222 -205 q 191 -127 191 -161 q 250 161 191 25 q 389 429 309 298 q 489 597 469 561 l 160 597 q 103 591 122 597 q 78 570 85 585 q 66 526 71 556 l 43 526 q 37 721 43 663 q 244 714 68 714 l 553 714 l 553 685 z "},"8":{"ha":722,"x_min":72,"x_max":652,"o":"m 425 556 q 546 462 502 500 q 621 369 589 423 q 652 245 652 315 q 613 107 652 168 q 506 14 574 47 q 351 -20 437 -20 q 212 7 275 -20 q 110 86 149 33 q 72 214 72 138 q 133 385 72 310 q 295 510 194 460 q 202 593 239 555 q 141 680 165 632 q 118 786 118 728 q 152 899 118 850 q 243 976 185 948 q 372 1003 301 1003 q 488 981 436 1003 q 571 916 541 959 q 602 812 602 873 q 556 675 602 738 q 425 556 510 613 m 357 978 q 290 960 320 978 q 243 908 260 941 q 227 829 227 874 q 250 730 227 774 q 311 649 273 685 q 404 572 348 614 q 490 794 490 654 q 455 928 490 878 q 357 978 420 978 m 359 5 q 447 27 407 5 q 510 89 486 48 q 533 187 533 130 q 503 304 533 252 q 432 396 473 357 q 316 494 391 434 q 195 235 195 405 q 235 71 195 136 q 359 5 275 5 z "},"9":{"ha":707,"x_min":52,"x_max":640,"o":"m 164 -178 q 308 -116 243 -155 q 423 2 372 -77 q 494 208 474 81 q 408 132 461 156 q 301 107 354 107 q 178 143 235 107 q 86 248 121 179 q 52 410 52 316 q 93 584 52 511 q 203 696 134 658 q 357 734 273 734 q 509 691 445 734 q 606 566 572 648 q 640 368 640 484 q 566 68 640 191 q 384 -122 492 -56 q 170 -205 276 -188 l 164 -178 m 336 147 q 429 173 383 147 q 500 256 475 199 q 505 366 505 308 q 482 569 505 492 q 422 676 458 645 q 343 707 386 707 q 264 677 300 707 q 207 583 229 647 q 186 419 186 518 q 228 213 186 278 q 336 147 269 147 z "},"\r":{"ha":0,"x_min":0,"x_max":0,"o":""}," ":{"ha":346,"x_min":0,"x_max":0,"o":""},"!":{"ha":364,"x_min":93,"x_max":271,"o":"m 170 272 q 161 498 170 386 q 135 779 153 610 q 118 1008 118 948 q 136 1067 118 1048 q 182 1086 153 1086 q 228 1067 210 1086 q 245 1008 245 1048 q 230 790 245 948 q 204 515 214 631 q 195 272 195 398 l 170 272 m 182 158 q 226 146 205 158 q 259 114 247 134 q 271 69 271 93 q 259 25 271 45 q 226 -7 247 5 q 182 -20 205 -20 q 137 -7 158 -20 q 105 25 117 5 q 93 69 93 45 q 105 114 93 93 q 137 146 117 134 q 182 158 158 158 z "},"\"":{"ha":414,"x_min":82,"x_max":333,"o":"m 273 650 q 254 768 266 701 q 238 872 243 836 q 233 949 233 907 q 248 995 233 978 q 283 1014 262 1013 q 319 997 305 1014 q 333 950 333 979 q 329 877 333 911 q 313 774 325 843 q 293 650 300 705 l 273 650 m 122 650 q 103 768 115 701 q 87 872 92 836 q 82 949 82 907 q 96 995 82 978 q 132 1014 111 1013 q 168 997 154 1014 q 182 950 182 979 q 178 877 182 911 q 161 774 174 843 q 142 650 149 705 l 122 650 z "},"#":{"ha":885,"x_min":66,"x_max":818,"o":"m 564 371 l 768 371 l 762 343 l 559 343 l 519 140 l 492 140 l 531 343 l 299 343 l 260 140 l 232 140 l 271 343 l 66 343 l 72 371 l 277 371 l 321 603 l 118 603 l 122 631 l 327 631 l 367 836 l 395 836 l 355 631 l 587 631 l 627 836 l 654 836 l 614 631 l 818 631 l 814 603 l 609 603 l 564 371 m 349 603 l 304 371 l 536 371 l 581 603 l 349 603 z "},"$":{"ha":726,"x_min":75,"x_max":669,"o":"m 439 545 q 565 455 517 495 q 641 363 613 414 q 669 244 669 312 q 640 116 669 170 q 558 28 610 61 q 439 -15 506 -4 l 439 -183 l 411 -183 l 411 -18 q 375 -20 393 -20 q 322 -17 347 -20 l 322 -183 l 294 -183 l 294 -13 q 184 32 239 -2 q 138 52 155 52 q 118 37 125 52 q 107 -9 111 22 l 75 -9 q 81 323 81 66 l 113 323 q 163 123 120 205 q 294 17 207 41 l 294 468 q 181 549 227 510 q 109 639 136 587 q 82 758 82 690 q 110 879 82 828 q 186 958 138 929 q 294 996 234 987 l 294 1166 l 322 1166 l 322 998 l 343 999 q 411 993 380 999 l 411 1166 l 439 1166 l 439 986 q 513 947 470 976 q 559 928 543 928 q 579 942 572 928 q 590 989 586 957 l 623 989 q 615 705 615 912 l 583 705 q 542 861 577 792 q 439 957 506 929 l 439 545 m 411 966 q 355 972 385 972 q 322 970 338 972 l 322 616 q 411 562 317 620 l 411 966 m 294 963 q 215 906 245 947 q 186 811 186 866 q 213 714 186 755 q 294 635 241 673 l 294 963 m 322 12 q 366 8 343 8 q 411 13 389 8 l 411 395 q 329 447 380 416 l 322 451 l 322 12 m 439 21 q 516 83 487 40 q 546 193 546 126 q 519 291 546 248 q 439 375 492 334 l 439 21 z "},"%":{"ha":1031,"x_min":49,"x_max":979,"o":"m 104 -58 l 916 1145 l 943 1126 l 130 -77 l 104 -58 m 256 1057 q 364 1030 317 1057 q 437 952 411 1004 q 463 831 463 901 q 436 709 463 762 q 362 627 409 656 q 256 597 315 597 q 147 624 194 597 q 75 702 100 651 q 49 823 49 753 q 76 945 49 892 q 150 1028 102 998 q 256 1057 197 1057 m 253 1032 q 146 825 146 1032 q 176 674 146 726 q 258 623 205 623 q 364 828 364 623 q 335 980 364 928 q 253 1032 306 1032 m 772 440 q 881 413 834 440 q 954 335 928 387 q 979 214 979 284 q 952 92 979 145 q 879 9 926 39 q 772 -20 831 -20 q 664 7 710 -20 q 591 85 617 34 q 566 207 566 136 q 592 328 566 275 q 666 411 619 381 q 772 440 713 440 m 770 415 q 663 208 663 415 q 692 57 663 109 q 775 5 722 5 q 880 211 880 5 q 851 363 880 311 q 770 415 823 415 z "},"&":{"ha":1162,"x_min":75,"x_max":1135,"o":"m 932 1003 q 1036 980 989 1003 q 1108 915 1082 958 q 1135 815 1135 873 q 1099 700 1135 749 q 1003 621 1063 650 q 797 548 954 597 q 912 454 875 515 q 949 313 949 393 q 898 150 949 227 q 750 27 846 74 q 525 -20 654 -20 q 301 23 404 -20 q 137 144 198 65 q 75 326 75 222 q 121 481 75 418 q 224 577 166 544 q 332 623 282 610 q 228 700 264 652 q 192 802 192 748 q 219 887 192 848 q 299 951 246 927 q 427 975 352 975 q 571 933 519 975 q 610 887 597 912 q 623 838 623 861 q 599 784 623 804 q 545 764 575 764 q 493 783 515 764 q 472 833 472 802 q 493 885 472 863 q 546 909 513 907 q 511 941 540 928 q 440 954 481 954 q 323 911 368 954 q 279 789 279 867 q 350 631 279 696 q 436 639 398 639 q 477 631 462 639 q 492 607 492 623 q 481 588 492 595 q 453 581 471 581 q 410 588 433 581 q 371 603 387 595 q 351 611 355 610 q 171 383 171 557 q 220 222 171 290 q 353 119 269 155 q 543 83 438 83 q 726 114 642 83 q 859 203 809 145 q 908 338 908 261 q 879 449 908 392 q 768 539 849 507 q 608 486 645 500 q 518 435 550 464 q 486 366 486 407 q 506 306 486 332 q 556 268 526 281 q 614 254 586 254 q 666 262 637 254 q 697 285 694 271 q 651 307 671 290 q 632 355 632 323 q 654 408 632 388 q 708 428 675 428 q 762 407 741 428 q 782 353 782 387 q 757 288 782 315 q 693 247 732 261 q 616 233 655 233 q 535 251 574 233 q 470 305 495 269 q 444 396 444 342 q 492 516 444 467 q 636 599 540 566 q 741 630 663 608 q 874 669 819 652 q 975 708 930 687 q 1068 771 1041 739 q 1095 842 1095 804 q 1072 912 1095 880 q 1013 963 1050 945 q 933 982 976 982 q 892 970 898 982 q 920 942 910 960 q 930 905 930 924 q 907 857 930 877 q 852 838 884 838 q 801 856 823 838 q 779 907 779 873 q 802 962 779 941 q 860 994 825 984 q 932 1003 895 1003 z "},"'":{"ha":262,"x_min":82,"x_max":182,"o":"m 122 650 q 103 768 115 701 q 87 872 92 836 q 82 949 82 907 q 96 995 82 978 q 132 1014 111 1013 q 168 997 154 1014 q 182 950 182 979 q 178 877 182 911 q 161 774 174 843 q 142 650 149 705 l 122 650 z "},"(":{"ha":408,"x_min":61,"x_max":386,"o":"m 367 1120 q 141 814 220 987 q 61 433 61 642 q 141 52 61 224 q 367 -253 220 -120 l 386 -235 q 225 57 273 -102 q 178 433 178 217 q 225 809 178 650 q 386 1101 273 969 l 367 1120 z "},")":{"ha":408,"x_min":22,"x_max":347,"o":"m 41 1120 q 268 814 188 987 q 347 433 347 642 q 268 52 347 224 q 41 -253 188 -120 l 22 -235 q 183 57 136 -102 q 231 433 231 217 q 183 809 231 650 q 22 1101 136 969 l 41 1120 z "},"*":{"ha":684,"x_min":81,"x_max":602,"o":"m 557 656 q 602 596 602 630 q 595 572 602 584 q 556 551 583 551 q 505 567 534 551 q 463 598 484 579 q 405 654 441 617 q 346 713 368 692 q 368 630 354 682 q 388 551 382 578 q 395 501 394 524 q 378 445 394 463 q 340 427 363 427 q 306 444 320 427 q 292 501 292 462 q 297 552 292 525 q 317 631 303 580 q 339 713 331 682 q 278 653 316 691 q 220 596 241 614 q 179 566 199 577 q 130 550 152 550 q 87 574 100 550 q 81 595 81 585 q 127 654 81 627 q 174 674 148 666 q 251 696 199 683 q 334 719 302 709 q 252 741 304 728 q 173 764 200 755 q 126 783 146 772 q 82 843 82 810 q 89 867 82 855 q 127 888 100 888 q 178 872 149 888 q 220 841 199 860 q 278 784 241 822 q 338 725 315 747 q 317 806 331 754 q 296 886 302 858 q 290 937 290 914 q 305 994 290 976 q 342 1013 320 1013 q 377 994 363 1013 q 392 937 392 976 q 386 886 392 913 q 367 808 380 859 q 345 726 353 758 q 405 786 368 748 q 464 843 443 824 q 504 873 484 862 q 553 889 532 889 q 596 865 583 889 q 602 844 602 854 q 555 785 602 811 q 509 765 535 773 q 432 743 484 756 q 349 720 381 730 q 432 697 380 711 q 510 675 484 684 q 557 656 536 667 z "},"+":{"ha":815,"x_min":60,"x_max":755,"o":"m 755 514 l 755 472 l 433 472 l 433 146 l 383 146 l 383 472 l 60 472 l 60 514 l 383 514 l 383 842 l 433 842 l 433 514 l 755 514 z "},",":{"ha":363,"x_min":86,"x_max":281,"o":"m 125 -167 q 199 -110 168 -149 q 231 -31 231 -71 q 227 -1 231 -14 q 175 -20 203 -20 q 112 4 137 -20 q 86 69 86 28 q 112 133 86 107 q 175 158 138 158 q 257 114 229 158 q 281 22 281 77 q 245 -103 281 -47 q 138 -192 210 -158 l 125 -167 z "},"-":{"ha":693,"x_min":96,"x_max":597,"o":"m 96 334 l 96 414 l 597 414 l 597 334 l 96 334 z "},".":{"ha":350,"x_min":86,"x_max":264,"o":"m 175 158 q 219 146 199 158 q 252 114 240 134 q 264 69 264 93 q 252 25 264 45 q 219 -7 240 5 q 175 -20 199 -20 q 131 -7 151 -20 q 98 25 110 5 q 86 69 86 45 q 98 114 86 93 q 131 146 110 134 q 175 158 151 158 z "},"/":{"ha":517,"x_min":47,"x_max":471,"o":"m 47 -20 l 425 1003 l 471 1003 l 93 -20 l 47 -20 z "},":":{"ha":370,"x_min":96,"x_max":273,"o":"m 184 158 q 229 146 208 158 q 261 114 250 134 q 273 69 273 93 q 261 25 273 45 q 229 -7 250 5 q 184 -20 208 -20 q 140 -7 161 -20 q 107 25 119 5 q 96 69 96 45 q 107 114 96 93 q 140 146 119 134 q 184 158 161 158 m 184 733 q 229 721 208 733 q 261 689 250 709 q 273 644 273 668 q 261 600 273 621 q 229 568 250 580 q 184 555 208 555 q 140 568 161 555 q 107 600 119 580 q 96 644 96 621 q 107 689 96 668 q 140 721 119 709 q 184 733 161 733 z "},";":{"ha":396,"x_min":102,"x_max":296,"o":"m 140 -167 q 215 -110 184 -149 q 246 -31 246 -71 q 242 -1 246 -14 q 191 -20 218 -20 q 127 4 153 -20 q 102 69 102 28 q 127 133 102 107 q 191 158 153 158 q 273 114 244 158 q 296 22 296 77 q 261 -103 296 -47 q 153 -192 225 -158 l 140 -167 m 200 733 q 244 721 224 733 q 277 689 265 709 q 289 644 289 668 q 277 600 289 621 q 244 568 265 580 q 200 555 224 555 q 156 568 176 555 q 123 600 135 580 q 111 644 111 621 q 123 689 111 668 q 156 721 135 709 q 200 733 176 733 z "},"<":{"ha":844,"x_min":41,"x_max":742,"o":"m 174 493 l 742 228 l 718 178 l 41 493 l 718 808 l 742 758 l 174 493 z "},"=":{"ha":899,"x_min":102,"x_max":798,"o":"m 102 570 l 102 611 l 798 611 l 798 570 l 102 570 m 102 375 l 102 416 l 798 416 l 798 375 l 102 375 z "},">":{"ha":844,"x_min":102,"x_max":803,"o":"m 671 493 l 102 228 l 126 178 l 803 493 l 126 808 l 102 758 l 671 493 z "},"?":{"ha":637,"x_min":45,"x_max":590,"o":"m 250 541 q 386 614 338 573 q 450 702 433 655 q 467 810 467 749 q 415 997 467 936 q 272 1059 363 1059 q 195 1047 232 1059 q 136 1008 158 1036 q 179 984 163 1003 q 195 937 195 966 q 173 883 195 903 q 118 863 151 863 q 65 883 86 863 q 45 936 45 904 q 110 1036 45 992 q 298 1086 183 1086 q 451 1056 385 1086 q 553 969 517 1026 q 590 836 590 913 q 507 644 590 722 q 278 528 423 565 l 278 325 l 250 325 l 250 541 m 265 158 q 310 146 289 158 q 342 114 330 134 q 354 69 354 93 q 342 25 354 45 q 310 -7 330 5 q 265 -20 289 -20 q 221 -7 241 -20 q 188 25 200 5 q 176 69 176 45 q 188 114 176 93 q 221 146 200 134 q 265 158 241 158 z "},"@":{"ha":1219,"x_min":68,"x_max":1173,"o":"m 808 -142 q 678 -202 755 -180 q 511 -224 601 -224 q 279 -179 378 -224 q 124 -39 180 -134 q 68 199 68 56 q 158 553 68 384 q 403 825 249 722 q 739 928 557 928 q 962 887 865 928 q 1116 762 1059 847 q 1173 546 1173 676 q 1111 281 1173 397 q 955 100 1049 165 q 770 36 861 36 q 669 126 669 36 q 674 171 669 149 q 684 209 679 193 q 690 231 689 225 l 690 232 q 600 83 651 131 q 476 36 548 36 q 368 82 401 36 q 334 204 334 127 q 383 415 334 307 q 510 593 433 523 q 664 664 587 664 q 764 590 749 664 l 775 644 q 900 664 854 644 l 783 154 q 774 106 774 125 q 784 79 774 87 q 815 71 794 71 q 953 129 874 71 q 1088 296 1031 188 q 1145 547 1145 405 q 1091 750 1145 671 q 946 866 1037 829 q 741 903 855 903 q 424 806 573 903 q 185 548 275 709 q 96 201 96 386 q 149 -26 96 63 q 295 -157 201 -116 q 513 -199 389 -199 q 799 -123 673 -199 l 808 -142 m 755 546 q 731 612 752 591 q 669 632 709 632 q 562 569 612 632 q 481 408 511 506 q 452 212 452 310 q 524 78 452 78 q 595 114 559 78 q 665 218 632 150 q 720 377 698 286 l 755 546 z "},"A":{"ha":875,"x_min":-9,"x_max":884,"o":"m 787 117 q 884 28 821 31 l 884 0 q 734 4 827 4 q 557 0 616 4 l 557 28 q 632 41 610 30 q 655 79 655 52 q 639 144 655 103 l 553 372 l 218 372 l 161 225 q 134 111 134 155 q 163 48 134 67 q 254 28 193 29 l 254 0 q 94 4 175 4 q -9 0 32 4 l -9 28 q 100 149 60 43 l 427 990 l 449 990 l 787 117 m 388 814 l 229 400 l 543 400 l 388 814 z "},"B":{"ha":865,"x_min":58,"x_max":803,"o":"m 519 519 q 738 432 673 499 q 803 269 803 364 q 763 130 803 191 q 647 34 722 68 q 469 0 572 0 q 372 2 441 0 q 231 4 302 4 q 58 0 117 4 l 58 28 q 131 39 109 30 q 162 71 154 47 q 171 147 171 95 l 171 836 q 162 912 171 888 q 131 945 154 936 q 58 956 109 954 l 58 983 q 228 979 116 979 q 348 981 282 979 q 437 982 413 982 q 598 955 532 982 q 697 878 664 927 q 730 764 730 829 q 680 620 730 684 q 519 522 629 556 l 519 519 m 393 522 q 552 584 507 522 q 597 749 597 646 q 551 904 597 853 q 403 956 505 956 q 338 946 359 956 q 308 911 316 936 q 300 836 300 886 l 300 522 l 393 522 m 300 147 q 308 73 300 97 q 338 41 316 50 q 404 32 359 32 q 664 275 664 32 q 605 441 664 385 q 416 498 545 498 l 300 498 l 300 147 z "},"C":{"ha":956,"x_min":74,"x_max":865,"o":"m 833 0 q 822 63 830 43 q 800 82 814 82 q 771 71 789 82 q 695 23 730 41 q 615 -8 660 4 q 514 -20 570 -20 q 282 40 382 -20 q 129 213 183 100 q 74 484 74 327 q 130 755 74 637 q 287 938 186 873 q 515 1003 387 1003 q 657 979 598 1003 q 771 913 715 956 q 798 901 786 901 q 833 983 827 901 l 865 983 q 860 664 860 893 l 828 664 q 809 761 818 726 q 789 820 801 795 q 758 869 778 844 q 652 951 716 924 q 513 978 587 978 q 355 918 422 978 q 250 748 287 859 q 212 489 212 637 q 253 229 212 338 q 365 64 294 121 q 526 8 436 8 q 661 35 595 8 q 764 114 727 61 q 804 196 792 152 q 828 334 817 241 l 860 334 q 865 0 860 94 l 833 0 z "},"D":{"ha":1004,"x_min":58,"x_max":928,"o":"m 58 983 q 194 979 133 979 l 228 979 q 437 983 419 983 q 805 861 683 983 q 928 503 928 738 q 868 238 928 351 q 696 62 809 124 q 425 0 583 0 q 335 2 406 0 q 231 4 263 4 q 58 0 117 4 l 58 28 q 131 39 109 30 q 162 71 154 47 q 171 147 171 95 l 171 836 q 162 912 171 888 q 131 945 154 936 q 58 956 109 954 l 58 983 m 300 144 q 308 70 300 94 q 338 35 316 45 q 404 25 360 25 q 636 79 552 25 q 754 235 720 132 q 789 497 789 338 q 751 758 789 657 q 630 908 714 859 q 403 958 545 958 q 338 948 359 958 q 308 913 316 939 q 300 839 300 888 l 300 144 z "},"E":{"ha":846,"x_min":58,"x_max":779,"o":"m 774 278 q 770 178 770 241 q 779 0 770 99 q 461 4 685 4 q 58 0 195 4 l 58 28 q 131 39 109 30 q 162 71 154 47 q 171 147 171 95 l 171 836 q 162 912 171 888 q 131 945 154 936 q 58 956 109 954 l 58 983 q 461 979 195 979 q 751 983 665 979 q 742 819 742 892 q 746 733 742 765 l 714 733 q 689 867 704 823 q 637 931 673 911 q 528 951 601 951 l 412 951 q 339 943 362 951 q 308 912 317 935 q 300 836 300 888 l 300 509 l 392 509 q 485 550 462 509 q 513 635 508 592 q 521 692 519 679 l 553 692 q 548 561 548 623 l 549 494 q 557 297 549 424 l 525 297 q 517 364 524 307 q 479 451 511 422 q 392 481 448 481 l 300 481 l 300 147 q 308 72 300 95 q 339 40 317 48 q 412 32 362 32 l 514 32 q 646 55 601 32 q 711 129 691 78 q 742 278 731 180 l 774 278 z "},"F":{"ha":790,"x_min":58,"x_max":751,"o":"m 58 983 q 461 979 195 979 q 751 983 665 979 q 742 806 742 884 q 746 692 742 736 l 714 692 q 686 851 703 800 q 628 927 669 903 q 500 951 586 951 l 412 951 q 339 943 362 951 q 308 912 317 935 q 300 836 300 888 l 300 494 l 401 494 q 494 536 471 494 q 523 621 517 578 q 530 677 528 665 l 562 677 q 557 547 557 610 l 558 481 q 567 283 558 408 l 534 283 q 527 351 533 293 q 489 437 520 408 q 401 467 458 467 l 300 467 l 300 147 q 311 71 300 95 q 350 39 321 47 q 440 28 378 30 l 440 0 q 236 4 368 4 q 58 0 117 4 l 58 28 q 131 39 109 30 q 162 71 154 47 q 171 147 171 95 l 171 836 q 162 912 171 888 q 131 945 154 936 q 58 956 109 954 l 58 983 z "},"G":{"ha":977,"x_min":75,"x_max":929,"o":"m 831 0 q 819 54 829 28 q 793 79 809 79 q 776 75 784 79 q 747 56 768 71 q 647 -1 699 18 q 530 -20 595 -20 q 286 39 388 -20 q 129 210 183 98 q 75 475 75 321 q 133 754 75 634 q 292 938 190 873 q 522 1003 393 1003 q 622 991 578 1003 q 698 961 666 979 q 772 913 730 943 q 800 899 790 899 q 835 983 827 899 l 867 983 q 861 664 861 893 l 829 664 q 803 786 817 739 q 760 869 789 834 q 654 949 719 920 q 519 978 590 978 q 359 918 428 978 q 252 748 290 859 q 214 490 214 638 q 249 217 214 323 q 358 59 285 111 q 545 8 431 8 q 689 52 628 8 q 722 84 714 68 q 729 127 729 100 l 729 261 q 718 346 729 319 q 679 382 707 372 q 589 395 650 392 l 589 422 q 785 418 657 418 q 929 422 882 418 l 929 395 q 883 384 897 392 q 864 352 869 375 q 859 275 859 329 l 859 0 l 831 0 z "},"H":{"ha":1051,"x_min":58,"x_max":993,"o":"m 993 956 q 920 945 943 954 q 889 912 897 936 q 880 836 880 888 l 880 147 q 889 71 880 95 q 920 39 897 47 q 993 28 943 30 l 993 0 q 815 4 935 4 q 639 0 704 4 l 639 28 q 712 39 689 30 q 743 71 734 47 q 751 147 751 95 l 751 481 l 300 481 l 300 147 q 308 71 300 95 q 339 39 317 47 q 412 28 362 30 l 412 0 q 236 4 349 4 q 58 0 117 4 l 58 28 q 131 39 109 30 q 162 71 154 47 q 171 147 171 95 l 171 836 q 162 912 171 888 q 131 945 154 936 q 58 956 109 954 l 58 983 q 236 979 116 979 q 412 983 349 979 l 412 956 q 339 945 362 954 q 308 912 317 936 q 300 836 300 888 l 300 509 l 751 509 l 751 836 q 743 912 751 888 q 712 945 734 936 q 639 956 689 954 l 639 983 q 815 979 704 979 q 993 983 935 979 l 993 956 z "},"I":{"ha":471,"x_min":58,"x_max":412,"o":"m 412 956 q 339 945 362 954 q 308 912 317 936 q 300 836 300 888 l 300 147 q 308 71 300 95 q 339 39 317 47 q 412 28 362 30 l 412 0 q 236 4 349 4 q 58 0 117 4 l 58 28 q 131 39 109 30 q 162 71 154 47 q 171 147 171 95 l 171 836 q 162 912 171 888 q 131 945 154 936 q 58 956 109 954 l 58 983 q 236 979 116 979 q 412 983 349 979 l 412 956 z "},"J":{"ha":453,"x_min":-208,"x_max":404,"o":"m 404 956 q 331 945 354 954 q 300 912 309 936 q 292 836 292 888 l 292 328 q 287 118 292 210 q 268 -35 283 27 q 213 -151 252 -100 q 113 -232 174 -202 q -25 -261 52 -261 q -142 -236 -93 -261 q -208 -140 -208 -201 q -188 -87 -208 -108 q -135 -66 -167 -66 q -80 -87 -102 -66 q -58 -142 -58 -107 q -74 -189 -58 -171 q -117 -212 -90 -207 q -78 -230 -104 -224 q -28 -235 -52 -235 q 76 -203 33 -235 q 139 -117 120 -172 q 158 -8 153 -73 q 163 201 163 56 l 163 836 q 154 912 163 888 q 123 945 146 936 q 50 956 100 954 l 50 983 q 228 979 108 979 q 404 983 339 979 l 404 956 z "},"K":{"ha":909,"x_min":58,"x_max":908,"o":"m 786 113 q 838 58 809 77 q 908 28 866 38 l 908 0 q 742 4 842 4 q 599 0 667 4 l 599 28 q 647 36 631 29 q 663 57 663 43 q 648 90 663 70 l 446 396 q 397 459 418 439 q 356 487 377 479 q 300 497 334 495 l 300 147 q 308 71 300 95 q 339 39 317 47 q 412 28 362 30 l 412 0 q 236 4 349 4 q 58 0 117 4 l 58 28 q 131 39 109 30 q 162 71 154 47 q 171 147 171 95 l 171 836 q 162 912 171 888 q 131 945 154 936 q 58 956 109 954 l 58 983 q 236 979 116 979 q 412 983 349 979 l 412 956 q 339 945 362 954 q 308 912 317 936 q 300 836 300 888 l 300 525 q 458 603 401 529 l 591 772 q 663 905 663 863 q 576 956 663 954 l 576 983 q 736 979 656 979 q 854 983 813 979 l 854 956 q 768 926 808 949 q 690 854 728 903 l 464 564 l 786 113 z "},"L":{"ha":817,"x_min":58,"x_max":779,"o":"m 412 956 q 339 945 362 954 q 308 912 317 936 q 300 836 300 888 l 300 147 q 308 72 300 95 q 339 40 317 48 q 412 32 362 32 l 514 32 q 646 56 601 32 q 711 134 691 81 q 742 292 731 188 l 774 292 q 770 178 770 248 q 779 0 770 99 q 461 4 685 4 q 58 0 195 4 l 58 28 q 131 39 109 30 q 162 71 154 47 q 171 147 171 95 l 171 836 q 162 912 171 888 q 131 945 154 936 q 58 956 109 954 l 58 983 q 236 979 116 979 q 412 983 349 979 l 412 956 z "},"M":{"ha":1210,"x_min":58,"x_max":1152,"o":"m 1152 956 q 1079 945 1101 954 q 1047 912 1056 936 q 1039 836 1039 888 l 1039 147 q 1047 71 1039 95 q 1079 39 1056 47 q 1152 28 1101 30 l 1152 0 q 975 4 1086 4 q 798 0 856 4 l 798 28 q 870 39 848 30 q 901 71 892 47 q 909 147 909 95 l 909 890 l 575 -7 l 553 -7 l 203 895 l 203 161 q 212 81 203 108 q 248 42 222 54 q 329 28 274 30 l 329 0 q 187 4 279 4 q 58 0 104 4 l 58 28 q 130 42 106 30 q 162 81 153 54 q 171 161 171 108 l 171 836 q 162 912 171 888 q 131 945 154 936 q 58 956 109 954 l 58 983 q 187 979 104 979 q 306 983 260 979 l 611 178 l 909 979 l 975 979 q 1152 983 1086 979 l 1152 956 z "},"N":{"ha":981,"x_min":58,"x_max":930,"o":"m 930 956 q 859 942 882 954 q 827 903 836 930 q 818 822 818 876 l 818 -7 l 786 -7 l 203 895 l 203 161 q 212 81 203 108 q 248 42 222 54 q 329 28 274 30 l 329 0 q 187 4 279 4 q 58 0 104 4 l 58 28 q 130 42 106 30 q 162 81 153 54 q 171 161 171 108 l 171 836 q 162 912 171 888 q 131 945 154 936 q 58 956 109 954 l 58 983 q 187 979 104 979 q 296 983 250 979 l 786 228 l 786 822 q 777 903 786 876 q 741 942 768 930 q 660 956 715 954 l 660 983 q 802 979 709 979 q 930 983 884 979 l 930 956 z "},"O":{"ha":1029,"x_min":74,"x_max":956,"o":"m 515 1003 q 747 943 648 1003 q 901 770 846 884 q 956 500 956 656 q 899 229 956 347 q 743 45 843 111 q 514 -20 642 -20 q 282 40 382 -20 q 129 213 183 100 q 74 484 74 327 q 130 755 74 637 q 287 938 186 873 q 515 1003 387 1003 m 510 978 q 353 916 421 978 q 249 743 286 854 q 212 489 212 632 q 253 235 212 345 q 364 65 294 125 q 519 5 434 5 q 676 67 608 5 q 780 240 743 130 q 817 494 817 351 q 776 749 817 639 q 665 918 735 859 q 510 978 595 978 z "},"P":{"ha":812,"x_min":58,"x_max":772,"o":"m 300 147 q 311 71 300 95 q 350 39 321 47 q 440 28 378 30 l 440 0 q 236 4 368 4 q 58 0 117 4 l 58 28 q 131 39 109 30 q 162 71 154 47 q 171 147 171 95 l 171 836 q 162 912 171 888 q 131 945 154 936 q 58 956 109 954 l 58 983 q 228 979 116 979 q 348 981 282 979 q 437 982 413 982 q 622 948 547 982 q 735 852 697 913 q 772 708 772 790 q 739 562 772 632 q 623 444 705 491 q 407 397 541 397 l 300 397 l 300 147 m 393 425 q 581 498 529 425 q 633 693 633 570 q 610 840 633 783 q 537 927 587 898 q 403 956 486 956 q 338 946 359 956 q 308 911 316 936 q 300 836 300 886 l 300 425 l 393 425 z "},"Q":{"ha":1029,"x_min":74,"x_max":1060,"o":"m 1060 -40 q 972 -199 1029 -146 q 785 -261 903 -261 q 660 -242 720 -261 q 500 -178 600 -222 q 338 -114 399 -134 q 320 -109 328 -111 q 304 -104 311 -106 q 189 -125 243 -125 q 125 -97 125 -125 q 200 -68 125 -68 q 304 -79 250 -68 q 353 -64 331 -73 q 408 -40 374 -55 q 461 -17 441 -24 q 256 57 344 -5 q 121 229 169 120 q 74 484 74 338 q 130 755 74 637 q 287 938 186 873 q 515 1003 387 1003 q 747 943 648 1003 q 901 770 846 884 q 956 500 956 656 q 905 242 956 355 q 765 61 855 129 q 558 -18 675 -7 l 558 -18 q 498 -31 524 -22 q 429 -58 473 -39 q 353 -86 385 -77 q 613 -135 505 -117 q 793 -153 722 -153 q 949 -124 892 -153 q 1039 -32 1007 -95 l 1060 -40 m 212 489 q 253 235 212 345 q 364 65 294 125 q 519 5 434 5 q 676 67 608 5 q 780 240 743 130 q 817 494 817 351 q 776 749 817 639 q 665 918 735 859 q 510 978 595 978 q 353 916 421 978 q 249 743 286 854 q 212 489 212 632 z "},"R":{"ha":900,"x_min":58,"x_max":917,"o":"m 917 69 q 852 1 884 22 q 768 -20 821 -20 q 675 14 711 -20 q 619 131 638 47 l 589 269 q 558 381 572 342 q 514 443 543 420 q 432 467 484 467 l 300 467 l 300 147 q 308 71 300 95 q 339 39 317 47 q 412 28 362 30 l 412 0 q 236 4 349 4 q 58 0 117 4 l 58 28 q 131 39 109 30 q 162 71 154 47 q 171 147 171 95 l 171 836 q 162 912 171 888 q 131 945 154 936 q 58 956 109 954 l 58 983 q 228 979 117 979 q 348 981 282 979 q 437 982 413 982 q 621 950 546 982 q 734 864 696 919 q 772 741 772 810 q 747 631 772 686 q 661 532 722 576 q 503 473 600 488 l 519 471 q 619 440 582 460 q 679 383 656 419 q 714 288 701 347 l 749 146 q 767 79 758 103 q 788 43 776 55 q 820 32 801 32 q 858 44 843 32 q 896 85 873 56 l 917 69 m 393 494 q 540 524 487 494 q 613 604 593 554 q 633 725 633 654 q 579 897 633 839 q 403 956 525 956 q 338 946 359 956 q 308 911 316 936 q 300 836 300 886 l 300 494 l 393 494 z "},"S":{"ha":750,"x_min":87,"x_max":682,"o":"m 125 323 q 194 95 134 182 q 378 8 254 8 q 466 28 425 8 q 533 89 507 47 q 558 193 558 131 q 532 289 558 247 q 461 367 506 332 q 342 447 416 402 q 209 536 259 496 q 126 630 159 575 q 94 758 94 684 q 130 891 94 837 q 225 972 165 945 q 355 999 284 999 q 429 992 398 999 q 480 974 460 985 q 525 947 500 964 q 572 928 556 928 q 592 942 585 928 q 603 989 599 957 l 635 989 q 628 705 628 907 l 596 705 q 565 837 591 777 q 491 935 540 897 q 368 972 441 972 q 281 952 319 972 q 220 895 242 932 q 199 811 199 859 q 244 690 199 736 q 350 607 290 644 q 432 557 411 570 q 570 461 519 502 q 652 368 621 421 q 682 244 682 315 q 643 99 682 159 q 537 10 604 40 q 387 -20 470 -20 q 278 -6 321 -20 q 197 32 235 8 q 150 52 166 52 q 130 37 137 52 q 119 -9 123 22 l 87 -9 q 93 323 93 66 l 125 323 z "},"T":{"ha":863,"x_min":40,"x_max":822,"o":"m 46 692 q 50 806 50 736 q 40 983 50 887 q 432 979 155 979 q 822 983 707 979 q 812 806 812 884 q 817 692 812 736 l 785 692 q 757 851 774 800 q 699 927 741 903 q 571 951 657 951 l 496 951 l 496 161 q 507 77 496 104 q 546 40 517 50 q 636 28 574 30 l 636 0 q 432 4 563 4 q 227 0 293 4 l 227 28 q 317 40 288 30 q 356 77 345 50 q 367 161 367 104 l 367 951 l 292 951 q 164 927 205 951 q 105 851 122 903 q 78 692 89 800 l 46 692 z "},"U":{"ha":947,"x_min":37,"x_max":909,"o":"m 909 956 q 838 942 861 954 q 806 903 814 930 q 798 822 798 876 l 798 404 q 784 233 798 304 q 741 110 771 161 q 638 15 705 50 q 486 -20 570 -20 q 253 56 334 -20 q 190 137 212 94 q 159 241 168 180 q 150 400 150 302 l 150 836 q 141 912 150 888 q 110 945 133 936 q 37 956 87 954 l 37 983 q 215 979 96 979 q 392 983 327 979 l 392 956 q 319 945 342 954 q 288 912 296 936 q 279 836 279 888 l 279 376 q 294 192 279 265 q 357 74 309 119 q 498 29 405 29 q 705 123 646 29 q 765 389 765 218 l 765 822 q 753 901 765 873 q 714 941 741 929 q 639 956 688 954 l 639 983 q 781 979 689 979 q 909 983 864 979 l 909 956 z "},"V":{"ha":875,"x_min":-8,"x_max":885,"o":"m 621 983 q 781 979 700 979 q 885 983 843 979 l 885 956 q 775 835 815 940 l 449 -7 l 437 -7 l 427 -7 l 87 867 q -8 956 54 953 l -8 983 q 140 979 48 979 q 318 983 260 979 l 318 956 q 242 943 265 954 q 220 904 220 932 q 236 839 220 881 l 488 172 l 714 758 q 742 871 742 830 q 712 935 742 916 q 621 956 682 954 l 621 983 z "},"W":{"ha":1257,"x_min":-9,"x_max":1260,"o":"m 996 983 q 1156 979 1075 979 q 1260 983 1218 979 l 1260 956 q 1150 835 1183 939 l 888 -7 l 876 -7 l 865 -7 l 624 709 l 403 -7 l 392 -7 l 380 -7 l 86 867 q -9 956 56 952 l -9 983 q 139 979 46 979 q 289 983 239 979 l 289 956 q 237 942 252 953 q 221 907 221 931 q 236 839 221 885 l 439 220 l 608 758 l 571 867 q 489 956 543 953 l 489 983 q 624 979 539 979 q 802 983 743 979 l 802 956 q 747 950 766 954 q 717 937 728 947 q 707 906 707 926 q 721 839 707 883 l 920 221 l 1092 758 q 1114 870 1114 829 q 1086 935 1114 916 q 996 956 1058 954 l 996 983 z "},"X":{"ha":880,"x_min":22,"x_max":871,"o":"m 778 98 q 808 57 795 71 q 836 37 821 43 q 871 29 850 31 l 871 0 q 751 5 776 5 q 555 0 705 5 l 555 29 q 632 34 610 29 q 654 52 654 39 q 644 77 654 62 l 407 440 l 257 216 q 204 94 204 138 q 236 44 204 59 q 328 28 267 29 l 328 0 q 140 4 249 4 q 22 0 64 4 l 22 28 q 101 65 64 34 q 179 155 139 96 l 389 468 l 117 885 q 86 927 99 913 q 59 947 73 941 q 24 954 45 953 l 24 983 q 143 978 119 978 q 339 983 236 978 l 339 954 q 246 924 246 954 q 258 893 246 913 l 475 562 l 611 766 q 671 900 671 857 q 645 942 671 929 q 564 956 618 954 l 564 983 q 724 979 643 979 q 842 983 800 979 l 842 956 q 762 918 800 949 q 685 828 724 886 l 490 538 l 778 98 z "},"Y":{"ha":821,"x_min":-4,"x_max":817,"o":"m 553 983 q 713 979 632 979 q 817 983 775 979 l 817 956 q 762 921 789 949 q 705 832 736 892 l 488 400 l 488 147 q 496 71 488 95 q 527 39 505 47 q 600 28 550 30 l 600 0 q 424 4 535 4 q 245 0 304 4 l 245 28 q 318 39 296 30 q 350 71 341 47 q 358 147 358 95 l 358 357 l 77 876 q 32 939 51 923 q -4 954 14 954 l -4 983 q 118 979 50 979 q 313 983 253 979 l 313 954 q 215 901 215 954 q 229 852 215 880 l 460 410 l 637 762 q 675 882 675 839 q 645 938 675 921 q 553 956 614 954 l 553 983 z "},"Z":{"ha":825,"x_min":58,"x_max":764,"o":"m 189 32 l 482 32 q 614 56 569 32 q 679 134 659 81 q 710 292 699 188 l 742 292 q 737 178 737 241 q 747 0 737 106 q 401 4 644 4 q 58 0 164 4 l 58 28 l 637 951 l 346 951 q 214 927 259 951 q 149 849 169 903 q 118 692 129 795 l 86 692 q 90 806 90 736 q 81 983 90 884 q 427 979 183 979 q 764 983 663 979 l 764 956 l 189 32 z "},"[":{"ha":411,"x_min":127,"x_max":366,"o":"m 253 1046 l 253 -225 l 366 -225 l 366 -252 l 127 -252 l 127 1072 l 366 1072 l 366 1046 l 253 1046 z "},"\\":{"ha":517,"x_min":46,"x_max":469,"o":"m 469 -20 l 92 1003 l 46 1003 l 424 -20 l 469 -20 z "},"]":{"ha":411,"x_min":45,"x_max":283,"o":"m 158 1046 l 158 -225 l 45 -225 l 45 -252 l 283 -252 l 283 1072 l 45 1072 l 45 1046 l 158 1046 z "},"^":{"ha":745,"x_min":100,"x_max":644,"o":"m 385 733 q 487 581 418 653 q 644 467 556 509 l 633 447 q 471 523 549 477 q 345 614 392 568 q 242 523 305 568 q 111 447 178 477 l 100 467 q 258 581 189 509 q 359 733 327 653 l 385 733 z "},"_":{"ha":821,"x_min":96,"x_max":725,"o":"m 96 -215 l 96 -159 l 725 -159 l 725 -215 l 96 -215 z "},"`":{"ha":310,"x_min":28,"x_max":282,"o":"m 267 832 q 197 902 229 872 q 117 974 165 931 q 47 1043 68 1017 q 28 1090 28 1068 q 47 1129 28 1114 q 77 1139 60 1139 q 131 1108 107 1139 q 175 1035 151 1082 q 223 944 199 988 q 282 844 246 901 l 267 832 z "},"a":{"ha":692,"x_min":54,"x_max":690,"o":"m 444 567 q 411 677 444 648 q 315 707 377 707 q 178 657 217 707 q 224 628 205 650 q 243 572 243 605 q 221 517 243 537 q 161 497 199 497 q 106 521 126 497 q 86 583 86 545 q 151 682 86 637 q 235 720 185 705 q 346 734 285 734 q 446 721 403 734 q 514 682 490 707 q 558 607 546 650 q 570 488 570 564 l 570 102 q 579 52 570 67 q 612 36 589 36 q 644 43 629 36 q 675 65 658 51 l 690 41 q 650 13 666 23 q 612 -3 633 3 q 564 -9 591 -9 q 470 24 496 -9 q 444 114 444 58 q 347 19 404 47 q 231 -9 290 -9 q 142 7 182 -9 q 78 59 102 24 q 54 146 54 94 q 80 236 54 199 q 153 301 106 273 q 278 363 199 330 q 345 390 292 368 q 421 433 397 412 q 444 481 444 455 l 444 567 m 444 424 q 410 395 434 408 q 311 345 387 381 q 243 306 271 326 q 196 252 216 286 q 176 168 176 218 q 207 77 176 108 q 288 46 237 46 q 444 151 380 46 l 444 424 z "},"b":{"ha":782,"x_min":5,"x_max":717,"o":"m 236 586 q 324 695 267 656 q 453 734 381 734 q 590 692 530 734 q 683 565 649 650 q 717 357 717 479 q 675 152 717 237 q 563 23 633 66 q 407 -20 492 -20 q 308 1 356 -20 q 224 62 260 22 l 125 -22 l 102 -12 q 111 68 111 22 l 111 921 q 88 1014 111 985 q 5 1043 64 1043 l 5 1072 q 92 1068 50 1068 q 236 1088 181 1068 l 236 586 m 236 81 q 310 30 269 47 q 396 12 352 12 q 536 97 490 12 q 582 357 582 181 q 540 610 582 526 q 412 693 498 693 q 340 673 375 693 q 277 614 304 653 q 236 520 250 575 l 236 81 z "},"c":{"ha":675,"x_min":64,"x_max":627,"o":"m 627 174 q 578 80 611 124 q 493 8 546 37 q 371 -20 441 -20 q 214 25 284 -20 q 104 153 144 70 q 64 349 64 237 q 105 549 64 461 q 220 686 146 637 q 387 734 294 734 q 549 690 481 734 q 614 583 614 646 q 593 526 614 547 q 541 505 572 505 q 486 524 508 505 q 464 575 464 543 q 480 625 464 605 q 522 652 497 645 q 473 693 509 677 q 397 710 437 710 q 302 677 347 710 q 228 569 257 645 q 199 370 199 493 q 254 118 199 197 q 399 40 310 40 q 512 75 458 40 q 600 183 566 109 l 627 174 z "},"d":{"ha":807,"x_min":66,"x_max":778,"o":"m 672 151 q 695 58 672 87 q 778 29 719 29 l 778 0 q 692 4 734 4 q 547 -16 602 4 l 547 108 q 472 13 522 45 q 350 -20 422 -20 q 198 22 262 -20 q 100 149 134 64 q 66 357 66 233 q 109 564 66 478 q 223 692 151 649 q 380 734 294 734 q 478 714 433 734 q 547 652 522 694 l 547 922 q 524 1016 547 987 q 441 1044 500 1044 l 441 1074 q 528 1069 486 1069 q 672 1089 617 1069 l 672 151 m 547 595 q 392 703 509 703 q 293 664 336 703 q 225 548 250 626 q 201 357 201 471 q 249 106 201 190 q 390 22 296 22 q 458 41 426 22 q 513 95 490 59 q 547 182 537 132 l 547 595 z "},"e":{"ha":703,"x_min":64,"x_max":643,"o":"m 643 167 q 591 76 627 118 q 502 7 555 33 q 383 -20 449 -20 q 212 25 284 -20 q 102 152 140 71 q 64 340 64 234 q 102 550 64 461 q 212 687 141 639 q 378 734 283 734 q 570 659 503 734 q 637 429 637 583 l 203 429 q 199 340 199 393 q 229 180 199 249 q 308 75 259 112 q 411 39 357 39 q 615 178 551 39 l 643 167 m 504 456 q 492 583 507 525 q 448 674 478 640 q 372 708 417 708 q 294 681 330 708 q 233 596 258 653 q 201 456 208 540 l 504 456 z "},"f":{"ha":461,"x_min":36,"x_max":547,"o":"m 147 714 q 154 852 147 797 q 176 946 161 907 q 218 1017 191 985 q 289 1068 245 1049 q 383 1086 332 1086 q 504 1048 454 1086 q 547 962 547 1013 q 527 910 547 930 q 473 889 506 889 q 419 909 441 889 q 397 964 397 930 q 413 1011 397 992 q 456 1035 429 1029 q 433 1057 452 1048 q 387 1065 415 1065 q 297 1014 326 1065 q 277 931 281 986 q 272 750 272 876 l 272 714 l 421 714 l 421 686 l 272 686 l 272 143 q 309 54 272 79 q 419 29 345 29 l 419 0 q 205 5 248 5 q 41 0 172 5 l 41 29 q 103 38 81 29 q 137 68 126 47 q 147 129 147 90 l 147 686 l 36 686 l 36 714 l 147 714 z "},"g":{"ha":720,"x_min":26,"x_max":694,"o":"m 532 153 q 649 122 604 153 q 694 24 694 92 q 651 -109 694 -43 q 520 -218 608 -174 q 306 -261 433 -261 q 169 -247 233 -261 q 66 -203 105 -232 q 26 -134 26 -174 q 76 -42 26 -86 q 201 36 126 3 l 196 36 q 100 58 143 36 q 57 142 57 81 q 96 232 57 189 q 231 317 136 275 q 136 391 170 341 q 102 515 102 440 q 172 680 102 625 q 358 734 242 734 q 456 722 412 734 q 505 846 470 800 q 600 892 543 892 q 654 871 635 892 q 673 819 673 851 q 654 772 673 791 q 607 753 635 753 q 556 774 572 753 q 533 840 541 795 q 496 772 513 822 q 481 715 486 742 q 580 642 545 692 q 615 515 615 592 q 582 392 615 441 q 491 319 549 343 q 358 296 433 296 q 256 309 302 296 q 169 253 199 279 q 139 199 139 228 q 155 164 139 176 q 205 153 170 153 l 532 153 m 358 710 q 264 666 296 710 q 232 515 232 621 q 264 365 232 410 q 358 321 296 321 q 453 365 420 321 q 485 515 485 409 q 453 666 485 622 q 358 710 420 710 m 235 36 q 165 -26 190 13 q 140 -104 140 -64 q 170 -179 140 -149 q 247 -223 200 -209 q 343 -237 294 -237 q 464 -215 405 -237 q 561 -149 523 -193 q 599 -41 599 -104 q 590 2 599 -14 q 557 27 581 19 q 493 36 534 36 l 235 36 z "},"h":{"ha":817,"x_min":28,"x_max":796,"o":"m 258 568 q 355 695 293 656 q 494 734 417 734 q 642 682 591 734 q 679 612 668 654 q 690 500 690 570 l 690 129 q 701 68 690 90 q 734 38 711 47 q 796 29 757 29 l 796 0 q 629 5 666 5 q 473 0 590 5 l 473 29 q 528 38 508 29 q 556 68 547 47 q 566 129 566 90 l 566 530 q 557 614 566 581 q 525 669 549 648 q 453 690 500 690 q 352 658 397 690 q 283 569 308 626 q 258 439 258 511 l 258 129 q 268 68 258 90 q 296 38 277 47 q 350 29 315 29 l 350 0 q 195 5 233 5 q 28 0 155 5 l 28 29 q 90 38 67 29 q 123 68 113 47 q 134 129 134 90 l 134 921 q 110 1014 134 985 q 28 1043 87 1043 l 28 1072 q 114 1068 72 1068 q 258 1088 203 1068 l 258 568 z "},"i":{"ha":407,"x_min":40,"x_max":376,"o":"m 199 1063 q 243 1050 222 1063 q 275 1018 263 1038 q 288 974 288 998 q 275 929 288 950 q 243 897 263 909 q 199 885 222 885 q 154 897 175 885 q 122 929 134 909 q 110 974 110 950 q 122 1018 110 998 q 154 1050 134 1038 q 199 1063 175 1063 m 271 129 q 281 68 271 90 q 314 38 292 47 q 376 29 337 29 l 376 0 q 208 5 249 5 q 40 0 168 5 l 40 29 q 102 38 79 29 q 135 68 125 47 q 146 129 146 90 l 146 564 q 122 657 146 628 q 40 686 99 686 l 40 715 q 126 711 83 711 q 271 730 214 711 l 271 129 z "},"j":{"ha":371,"x_min":-89,"x_max":273,"o":"m 184 1055 q 229 1043 208 1055 q 261 1011 250 1031 q 273 966 273 990 q 261 922 273 943 q 229 890 250 902 q 184 878 208 878 q 140 890 161 878 q 108 922 120 902 q 96 966 96 943 q 108 1011 96 990 q 140 1043 120 1031 q 184 1055 161 1055 m 261 160 q 246 -38 261 47 q 187 -176 231 -122 q 110 -239 155 -218 q 20 -261 65 -261 q -58 -240 -29 -261 q -89 -176 -89 -217 q -69 -124 -89 -144 q -17 -104 -49 -104 q 36 -121 16 -104 q 56 -172 56 -138 q 3 -239 56 -220 q 26 -240 11 -240 q 104 -208 75 -240 q 136 -90 136 -168 l 136 564 q 113 657 136 628 q 31 686 90 686 l 31 715 q 117 711 74 711 q 261 730 205 711 l 261 160 z "},"k":{"ha":764,"x_min":28,"x_max":754,"o":"m 657 102 q 704 50 683 66 q 754 29 725 33 l 754 0 q 642 5 670 5 q 488 0 604 5 l 488 29 q 519 37 507 29 q 530 56 530 44 q 522 77 530 65 l 363 310 q 317 357 338 345 q 258 371 296 370 l 258 129 q 268 68 258 90 q 296 38 277 47 q 350 29 315 29 l 350 0 q 196 5 233 5 q 28 0 155 5 l 28 29 q 90 38 67 29 q 123 68 113 47 q 134 129 134 90 l 134 922 q 110 1016 134 987 q 28 1044 87 1044 l 28 1074 q 114 1069 72 1069 q 258 1089 203 1069 l 258 399 q 326 418 299 405 q 378 457 353 431 l 481 564 q 525 640 525 610 q 497 676 525 665 q 422 688 469 688 l 422 715 q 579 710 519 710 q 700 715 644 710 l 700 688 q 575 623 632 682 l 406 445 l 657 102 z "},"l":{"ha":397,"x_min":31,"x_max":367,"o":"m 261 129 q 272 68 261 90 q 305 38 282 47 q 367 29 328 29 l 367 0 q 199 5 239 5 q 31 0 158 5 l 31 29 q 93 38 70 29 q 126 68 115 47 q 136 129 136 90 l 136 922 q 113 1016 136 987 q 31 1044 90 1044 l 31 1074 q 117 1069 74 1069 q 261 1089 206 1069 l 261 129 z "},"m":{"ha":1234,"x_min":40,"x_max":1213,"o":"m 1107 129 q 1117 68 1107 90 q 1151 38 1128 47 q 1213 29 1173 29 l 1213 0 q 1046 5 1085 5 q 890 0 1007 5 l 890 29 q 944 38 925 29 q 973 68 964 47 q 982 129 982 90 l 982 530 q 976 616 982 583 q 947 670 970 649 q 876 690 924 690 q 781 657 823 690 q 713 566 738 624 q 689 439 689 509 l 689 129 q 700 68 689 90 q 732 38 710 47 q 794 29 755 29 l 794 0 q 628 5 667 5 q 472 0 589 5 l 472 29 q 526 38 507 29 q 555 68 546 47 q 564 129 564 90 l 564 530 q 557 616 564 583 q 528 670 551 649 q 458 690 505 690 q 362 657 405 690 q 295 565 319 623 q 271 437 271 507 l 271 129 q 280 68 271 90 q 309 38 289 47 q 363 29 328 29 l 363 0 q 207 5 246 5 q 40 0 168 5 l 40 29 q 102 38 79 29 q 135 68 125 47 q 146 129 146 90 l 146 564 q 122 657 146 628 q 40 686 99 686 l 40 715 q 126 711 83 711 q 271 730 214 711 l 271 567 q 366 693 304 652 q 498 734 427 734 q 643 682 593 734 q 686 570 677 644 q 781 696 720 658 q 917 734 842 734 q 1061 682 1011 734 q 1097 611 1086 654 q 1107 500 1107 568 l 1107 129 z "},"n":{"ha":829,"x_min":40,"x_max":808,"o":"m 271 567 q 367 695 305 655 q 507 734 429 734 q 654 682 604 734 q 691 612 680 654 q 703 500 703 570 l 703 129 q 713 68 703 90 q 746 38 724 47 q 808 29 769 29 l 808 0 q 642 5 681 5 q 486 0 603 5 l 486 29 q 540 38 521 29 q 569 68 559 47 q 578 129 578 90 l 578 530 q 570 614 578 581 q 537 669 562 648 q 465 690 513 690 q 364 657 408 690 q 295 566 319 624 q 271 437 271 508 l 271 129 q 280 68 271 90 q 309 38 289 47 q 363 29 328 29 l 363 0 q 207 5 246 5 q 40 0 168 5 l 40 29 q 102 38 79 29 q 135 68 125 47 q 146 129 146 90 l 146 564 q 122 657 146 628 q 40 686 99 686 l 40 715 q 126 711 83 711 q 271 730 214 711 l 271 567 z "},"o":{"ha":761,"x_min":65,"x_max":696,"o":"m 380 734 q 543 694 472 734 q 655 570 614 654 q 696 357 696 486 q 655 144 696 228 q 543 20 614 60 q 380 -20 472 -20 q 218 20 289 -20 q 106 144 147 60 q 65 357 65 228 q 106 570 65 486 q 218 694 147 654 q 380 734 289 734 m 380 707 q 249 621 297 707 q 200 357 200 536 q 249 93 200 178 q 380 8 297 8 q 512 93 464 8 q 561 357 561 178 q 512 621 561 536 q 380 707 464 707 z "},"p":{"ha":807,"x_min":31,"x_max":742,"o":"m 261 584 q 351 695 292 656 q 484 734 409 734 q 616 694 557 734 q 708 576 675 654 q 742 390 742 498 q 708 190 742 283 q 603 39 674 97 q 424 -20 531 -20 q 328 1 371 -20 q 261 56 285 22 l 261 -122 q 294 -200 261 -178 q 395 -222 328 -222 l 395 -252 q 316 -248 377 -251 q 195 -245 254 -245 q 104 -248 151 -245 q 45 -252 57 -251 l 45 -222 q 116 -204 96 -222 q 136 -136 136 -185 l 136 564 q 113 657 136 628 q 31 686 90 686 l 31 715 q 117 711 74 711 q 261 730 205 711 l 261 584 m 261 102 q 319 36 281 60 q 408 12 356 12 q 607 371 607 12 q 446 693 607 693 q 333 648 382 693 q 261 517 283 603 l 261 102 z "},"q":{"ha":782,"x_min":65,"x_max":762,"o":"m 671 -136 q 691 -204 671 -185 q 762 -222 711 -222 l 762 -252 q 703 -248 750 -251 q 612 -245 656 -245 q 491 -248 553 -245 q 412 -252 430 -251 l 412 -222 q 513 -200 479 -222 q 546 -122 546 -178 l 546 117 q 467 16 518 52 q 351 -20 416 -20 q 205 22 270 -20 q 103 149 140 64 q 65 357 65 234 q 104 565 65 479 q 210 692 143 650 q 363 734 277 734 q 481 710 433 734 q 558 633 528 686 q 657 737 632 711 l 681 728 q 671 647 671 694 l 671 -136 m 546 610 q 374 703 493 703 q 245 616 290 703 q 200 357 200 530 q 249 106 200 191 q 392 22 298 22 q 486 64 444 22 q 546 183 528 106 l 546 610 z "},"r":{"ha":618,"x_min":40,"x_max":599,"o":"m 271 557 q 316 641 286 600 q 386 708 345 682 q 472 734 427 734 q 537 720 509 734 q 583 680 566 705 q 599 625 599 655 q 577 563 599 589 q 519 538 555 538 q 467 557 489 538 q 446 610 446 576 q 493 685 446 655 q 464 699 484 699 q 365 656 409 699 q 296 553 321 614 q 271 437 271 491 l 271 143 q 307 54 271 79 q 418 29 344 29 l 418 0 q 204 5 247 5 q 40 0 168 5 l 40 29 q 102 38 79 29 q 135 68 125 47 q 146 129 146 90 l 146 564 q 122 657 146 628 q 40 686 99 686 l 40 715 q 126 711 83 711 q 271 730 214 711 l 271 557 z "},"s":{"ha":619,"x_min":77,"x_max":554,"o":"m 114 268 q 143 126 124 182 q 201 39 162 71 q 307 8 241 8 q 366 21 338 8 q 412 64 394 35 q 431 140 431 94 q 411 209 431 178 q 361 263 392 239 q 273 322 330 287 q 169 393 205 366 q 107 461 132 421 q 82 555 82 501 q 110 655 82 614 q 184 715 138 695 q 288 734 231 734 q 375 719 336 734 q 439 684 414 703 q 463 672 454 672 q 494 733 488 672 l 526 733 q 521 497 521 665 l 489 497 q 430 648 474 589 q 300 708 386 708 q 218 680 250 708 q 186 602 186 652 q 219 521 186 553 q 298 460 252 489 q 364 418 345 431 q 467 344 428 376 q 530 270 506 312 q 554 175 554 229 q 522 70 554 113 q 435 3 490 26 q 317 -20 381 -20 q 207 0 255 -20 q 150 37 180 14 q 137 43 144 43 q 109 -9 117 43 l 77 -9 q 82 268 82 70 l 114 268 z "},"t":{"ha":492,"x_min":5,"x_max":505,"o":"m 469 714 l 469 686 l 264 686 l 264 149 q 286 58 264 85 q 353 31 309 31 q 427 65 396 31 q 478 179 457 100 l 505 172 q 325 -20 471 -20 q 248 -8 278 -20 q 193 26 217 3 q 151 101 163 57 q 139 221 139 146 l 139 686 l 5 686 l 5 714 l 139 714 l 139 926 q 264 946 217 928 l 264 714 l 469 714 z "},"u":{"ha":807,"x_min":22,"x_max":777,"o":"m 671 150 q 694 57 671 85 q 777 28 718 28 l 777 -1 q 690 3 733 3 q 546 -17 601 3 l 546 147 q 451 21 512 62 q 318 -20 391 -20 q 174 33 224 -20 q 138 104 149 60 q 127 215 127 147 l 127 564 q 104 657 127 628 q 22 686 81 686 l 22 715 q 109 711 66 711 q 253 730 196 711 l 253 184 q 259 99 253 132 q 288 46 265 66 q 358 25 311 25 q 454 58 412 25 q 522 149 497 92 q 546 277 546 207 l 546 564 q 523 657 546 628 q 440 686 499 686 l 440 715 q 526 711 484 711 q 671 730 614 711 l 671 150 z "},"v":{"ha":679,"x_min":-3,"x_max":675,"o":"m 453 715 q 570 711 525 711 q 675 715 631 711 l 675 688 q 625 663 647 684 q 585 590 604 641 l 357 -7 l 334 -7 l 78 608 q 38 671 58 656 q -3 686 18 686 l -3 715 q 119 710 69 710 q 300 715 226 710 l 300 686 q 246 684 265 686 q 214 671 227 682 q 201 639 201 661 q 216 578 201 616 l 387 155 l 541 557 q 555 621 555 595 q 531 669 555 653 q 453 688 507 684 l 453 715 z "},"w":{"ha":1069,"x_min":0,"x_max":1065,"o":"m 843 715 q 960 711 916 711 q 1065 715 1021 711 l 1065 688 q 1014 663 1036 684 q 975 590 991 641 l 774 -7 l 750 -7 l 530 552 l 332 -7 l 309 -7 l 81 608 q 41 672 62 657 q 0 686 21 686 l 0 715 q 122 707 58 707 q 302 715 184 707 l 302 686 q 235 681 257 686 q 207 650 213 675 q 220 570 200 625 l 359 170 l 558 721 l 590 721 l 803 159 l 933 557 q 946 620 946 597 q 922 669 946 653 q 843 688 898 684 l 843 715 z "},"x":{"ha":721,"x_min":29,"x_max":703,"o":"m 616 98 q 659 48 641 63 q 703 29 676 34 l 703 0 q 604 5 632 5 q 440 0 557 5 l 440 29 q 479 38 463 29 q 495 60 495 47 q 489 77 495 67 l 331 307 l 229 175 q 191 92 191 125 q 293 28 191 35 l 293 0 q 135 4 220 4 q 29 0 73 4 l 29 28 q 85 53 56 31 q 151 125 113 75 l 311 336 l 118 616 q 86 658 99 644 q 61 678 73 672 q 32 686 50 684 l 32 715 q 131 710 105 710 q 294 715 178 710 l 294 686 q 256 678 272 686 q 240 655 240 669 q 245 639 240 647 l 394 422 l 490 557 q 532 644 532 616 q 513 674 532 664 q 453 688 494 685 l 453 715 q 570 711 525 711 q 675 715 631 711 l 675 688 q 553 590 618 681 l 412 396 l 616 98 z "},"y":{"ha":700,"x_min":-5,"x_max":686,"o":"m 464 715 q 581 711 537 711 q 686 715 642 711 l 686 688 q 637 663 659 684 q 596 590 615 641 l 368 -7 l 321 -127 q 261 -225 294 -196 q 153 -261 222 -261 q 85 -239 111 -261 q 58 -178 58 -217 q 78 -124 58 -144 q 132 -104 98 -104 q 183 -121 163 -104 q 203 -170 203 -138 q 165 -232 203 -211 q 174 -233 168 -233 q 292 -125 250 -233 l 341 2 l 89 608 q 42 671 65 656 q -5 686 18 686 l -5 715 q 131 707 60 707 q 311 715 191 707 l 311 686 q 258 684 277 686 q 227 671 239 682 q 214 638 214 661 q 232 570 214 613 l 399 155 l 553 557 q 568 621 568 597 q 543 669 568 653 q 464 688 518 684 l 464 715 z "},"z":{"ha":661,"x_min":53,"x_max":610,"o":"m 361 21 q 496 74 446 21 q 554 244 545 127 l 586 244 q 591 -5 586 63 q 334 0 483 0 q 53 -7 201 0 l 454 694 l 301 694 q 199 672 239 694 q 137 601 159 650 q 109 471 115 551 l 77 471 q 71 721 77 654 q 329 715 180 715 q 610 722 462 715 l 208 21 l 361 21 z "},"{":{"ha":422,"x_min":37,"x_max":386,"o":"m 386 1060 q 315 1039 337 1059 q 284 959 293 1019 q 275 765 275 899 q 249 575 275 647 q 179 468 222 503 q 77 415 136 433 q 179 362 136 397 q 249 255 222 327 q 275 65 275 182 q 284 -135 275 -74 q 315 -215 293 -196 q 386 -235 337 -234 l 386 -261 q 245 -232 295 -261 q 172 -134 195 -203 q 150 65 150 -64 q 141 269 150 199 q 110 369 132 339 q 45 403 87 399 l 37 403 l 37 428 l 45 428 q 110 460 87 431 q 141 561 132 490 q 150 765 150 631 q 172 958 150 889 q 245 1057 195 1027 q 386 1086 296 1086 l 386 1060 z "},"|":{"ha":309,"x_min":126,"x_max":182,"o":"m 126 -271 l 126 1192 l 182 1192 l 182 -271 l 126 -271 z "},"}":{"ha":422,"x_min":37,"x_max":385,"o":"m 37 1060 q 107 1039 85 1059 q 138 959 130 1019 q 147 765 147 899 q 174 575 147 647 q 244 468 201 503 q 346 415 287 433 q 244 362 287 397 q 174 255 201 327 q 147 65 147 182 q 138 -135 147 -74 q 107 -215 130 -196 q 37 -235 85 -234 l 37 -261 q 178 -232 127 -261 q 250 -134 228 -203 q 273 65 273 -64 q 281 269 273 199 q 313 369 290 339 q 378 403 335 399 l 385 403 l 385 428 l 378 428 q 313 460 335 431 q 281 561 290 490 q 273 765 273 631 q 250 958 273 889 q 177 1057 228 1027 q 37 1086 127 1086 l 37 1060 z "},"~":{"ha":901,"x_min":103,"x_max":800,"o":"m 103 359 q 136 438 109 404 q 206 489 163 471 q 298 507 249 507 q 385 493 345 507 q 507 440 425 479 q 652 400 589 400 q 777 481 743 400 l 800 473 q 767 395 795 429 q 696 344 739 362 q 604 326 654 326 q 518 340 558 326 q 396 394 478 354 q 252 433 314 433 q 126 353 160 433 l 103 359 z "},"":{"ha":346,"x_min":0,"x_max":0,"o":""},"":{"ha":346,"x_min":85,"x_max":262,"o":"m 174 734 q 218 723 197 734 q 251 690 239 711 q 262 646 262 669 q 251 602 262 622 q 218 569 239 581 q 174 557 197 557 q 129 569 150 557 q 97 602 109 581 q 85 646 85 622 q 97 690 85 669 q 129 723 109 711 q 174 734 150 734 m 184 441 q 193 250 184 345 q 219 12 201 155 q 236 -183 236 -132 q 218 -242 236 -223 q 172 -261 201 -261 q 126 -242 144 -261 q 109 -183 109 -222 q 125 2 109 -132 q 151 236 141 137 q 160 441 160 334 l 184 441 z "},"":{"ha":659,"x_min":47,"x_max":610,"o":"m 610 174 q 564 83 595 126 q 484 12 533 41 q 368 -20 434 -16 l 368 -252 l 338 -252 l 338 -19 q 189 31 255 -15 q 85 158 123 77 q 47 349 47 240 q 83 539 47 454 q 186 674 120 623 q 338 733 252 724 l 338 983 l 368 983 l 368 734 l 370 734 q 532 690 464 734 q 597 583 597 646 q 576 526 597 547 q 524 505 555 505 q 469 524 491 505 q 447 575 447 543 q 464 625 447 605 q 505 652 480 645 q 456 693 492 677 q 380 710 420 710 l 368 709 l 368 41 l 382 40 q 495 75 441 40 q 583 183 549 109 l 610 174 m 338 704 q 226 604 270 685 q 182 370 182 524 q 224 141 182 220 q 338 45 267 62 l 338 704 z "},"":{"ha":836,"x_min":49,"x_max":791,"o":"m 614 309 q 701 279 661 301 q 766 220 741 256 q 791 135 791 183 q 774 59 791 95 q 723 2 757 24 q 640 -20 688 -20 q 556 -3 595 -20 q 455 51 516 14 q 359 100 394 88 q 292 111 330 111 q 215 97 252 111 q 145 11 183 42 q 71 -20 107 -20 q 54 -17 60 -20 q 49 -5 49 -14 q 67 29 49 7 q 115 71 86 50 q 174 102 144 91 q 186 200 183 146 q 189 358 189 253 l 189 412 l 82 412 l 82 440 l 189 440 l 189 551 l 82 551 l 82 579 l 189 579 l 189 610 q 497 1022 189 1022 q 628 985 579 1022 q 669 908 669 951 q 650 860 669 879 q 604 840 631 840 q 560 858 579 840 q 541 903 541 876 q 552 943 541 926 q 586 968 564 960 q 556 991 583 981 q 500 1002 530 1002 q 377 954 417 1002 q 328 833 338 905 q 318 646 318 762 l 318 579 l 519 579 l 519 551 l 318 551 l 318 440 l 519 440 l 519 412 l 317 412 q 293 265 315 330 q 228 122 272 200 q 347 150 287 150 q 455 129 394 150 q 552 98 515 109 q 632 87 588 87 q 703 110 679 87 q 726 167 726 133 q 694 244 726 214 q 608 286 663 275 l 614 309 z "},"":{"ha":743,"x_min":107,"x_max":639,"o":"m 576 582 q 635 416 635 508 q 576 252 635 323 l 637 192 l 599 151 l 538 212 q 372 154 463 154 q 207 211 278 154 l 147 151 l 107 192 l 167 252 q 109 416 109 323 q 168 583 109 511 l 107 644 l 146 684 l 207 623 q 372 681 279 681 q 538 621 465 681 l 600 684 l 639 644 l 576 582 m 372 629 q 269 600 317 629 q 193 522 221 571 q 165 416 165 473 q 194 311 165 359 q 269 234 222 262 q 372 205 317 205 q 475 234 428 205 q 550 311 522 262 q 578 416 578 359 q 550 522 578 473 q 475 600 522 570 q 372 629 427 629 z "},"":{"ha":899,"x_min":37,"x_max":858,"o":"m 594 983 q 754 979 673 979 q 858 983 816 979 l 858 956 q 804 921 830 949 q 747 832 777 892 l 534 411 l 724 411 l 724 383 l 529 383 l 529 272 l 724 272 l 724 244 l 529 244 l 529 147 q 537 71 529 95 q 569 39 546 47 q 642 28 591 30 l 642 0 q 465 4 576 4 q 287 0 346 4 l 287 28 q 360 39 337 30 q 391 71 382 47 q 399 147 399 95 l 399 244 l 205 244 l 205 272 l 399 272 l 399 357 l 385 383 l 205 383 l 205 411 l 370 411 l 118 876 q 74 939 92 923 q 37 954 55 954 l 37 983 q 159 979 91 979 q 354 983 294 979 l 354 954 q 256 901 256 954 q 271 852 256 880 l 501 411 l 503 411 l 679 762 q 717 882 717 839 q 686 938 717 921 q 594 956 656 954 l 594 983 z "},"":{"ha":311,"x_min":127,"x_max":183,"o":"m 127 533 l 127 1192 l 183 1192 l 183 533 l 127 533 m 127 -271 l 127 453 l 183 453 l 183 -271 l 127 -271 z "},"":{"ha":705,"x_min":57,"x_max":650,"o":"m 487 155 q 563 63 537 110 q 589 -43 589 16 q 558 -157 589 -107 q 473 -234 528 -206 q 345 -261 418 -261 q 221 -237 278 -261 q 142 -183 171 -216 q 114 -113 114 -149 q 134 -59 114 -81 q 187 -37 153 -37 q 242 -58 220 -37 q 264 -111 264 -79 q 249 -157 264 -137 q 204 -184 235 -177 q 257 -223 216 -211 q 340 -235 298 -235 q 427 -214 393 -235 q 476 -163 461 -194 q 492 -97 492 -132 q 459 -2 492 -46 q 388 72 427 41 q 261 163 349 102 q 144 252 187 214 q 79 334 102 290 q 57 433 57 378 q 216 673 57 585 q 143 764 168 718 q 118 868 118 810 q 148 982 118 932 q 234 1059 178 1031 q 363 1086 290 1086 q 486 1063 425 1086 q 564 1008 536 1042 q 593 937 593 974 q 573 884 593 905 q 519 863 553 863 q 465 883 488 863 q 443 936 443 903 q 457 982 443 962 q 503 1010 472 1002 q 449 1048 490 1036 q 368 1060 408 1060 q 280 1040 314 1060 q 230 988 245 1019 q 215 922 215 957 q 247 827 215 871 q 319 753 279 783 q 446 663 358 723 q 562 573 519 612 q 627 491 605 535 q 650 392 650 448 q 487 155 650 243 m 332 269 q 472 168 433 200 q 550 237 524 197 q 575 322 575 277 q 549 405 575 366 q 482 477 523 444 q 375 555 441 511 q 234 658 272 626 q 158 589 183 630 q 132 503 132 548 q 158 420 132 459 q 225 348 184 381 q 332 269 265 315 z "},"":{"ha":542,"x_min":43,"x_max":498,"o":"m 123 1032 q 163 1021 144 1032 q 193 991 182 1010 q 204 951 204 972 q 193 911 204 930 q 163 882 182 892 q 123 871 145 871 q 66 895 90 871 q 43 951 43 918 q 54 991 43 972 q 83 1021 64 1010 q 123 1032 102 1032 m 418 1032 q 457 1021 439 1032 q 487 991 476 1010 q 498 951 498 972 q 487 911 498 930 q 458 882 476 892 q 418 871 439 871 q 361 895 385 871 q 338 951 338 918 q 349 991 338 972 q 378 1021 359 1010 q 418 1032 396 1032 z "},"":{"ha":1242,"x_min":68,"x_max":1174,"o":"m 621 1086 q 898 1012 771 1086 q 1100 811 1025 938 q 1174 533 1174 684 q 1100 256 1174 383 q 898 55 1025 129 q 621 -20 771 -20 q 343 55 471 -20 q 142 256 216 129 q 68 533 68 383 q 142 811 68 684 q 343 1012 216 938 q 621 1086 471 1086 m 621 1042 q 371 973 486 1042 q 190 788 257 905 q 123 533 123 671 q 190 279 123 395 q 371 94 257 162 q 621 25 486 25 q 870 94 756 25 q 1052 279 985 162 q 1118 533 1118 395 q 1052 788 1118 671 q 870 973 985 905 q 621 1042 756 1042 m 882 350 q 834 257 867 300 q 749 185 802 213 q 628 157 697 157 q 470 201 541 157 q 360 330 400 246 q 319 525 319 413 q 360 725 319 637 q 475 862 401 813 q 644 911 549 911 q 736 899 692 911 q 811 863 780 886 q 869 760 869 822 q 849 703 869 724 q 796 682 828 682 q 742 703 764 682 q 720 757 720 723 q 735 804 720 785 q 778 828 751 822 q 728 870 764 853 q 653 886 692 886 q 533 832 585 886 q 454 542 454 745 q 481 355 454 427 q 552 249 508 282 q 653 216 597 216 q 767 251 713 216 q 856 359 821 286 l 882 350 z "},"":{"ha":643,"x_min":79,"x_max":589,"o":"m 371 863 q 347 950 371 923 q 277 977 323 977 q 174 947 219 977 q 208 924 194 941 q 221 882 221 907 q 203 838 221 855 q 160 821 184 821 q 111 838 130 821 q 93 884 93 855 q 160 971 93 939 q 313 1003 227 1003 q 442 961 402 1003 q 482 827 482 920 l 482 600 q 490 560 482 571 q 517 549 498 549 q 574 572 550 549 l 589 551 q 464 500 534 500 q 394 516 414 500 q 371 566 373 533 q 208 500 303 500 q 146 512 175 500 q 98 548 117 524 q 79 608 79 572 q 101 673 79 646 q 160 718 123 699 q 260 760 197 736 q 342 797 314 780 q 371 838 371 814 l 371 863 m 371 794 q 350 772 366 783 q 293 743 334 762 q 217 694 241 720 q 193 633 193 669 q 214 572 193 595 q 269 549 235 549 q 371 593 321 549 l 371 794 z "},"":{"ha":697,"x_min":45,"x_max":631,"o":"m 387 725 q 282 512 339 595 q 149 363 225 429 q 280 210 223 298 q 387 -9 338 122 l 364 -20 q 228 205 304 113 q 45 357 152 298 l 45 358 q 228 510 152 418 q 364 734 304 602 l 387 725 m 631 725 q 525 512 582 595 q 392 363 469 429 q 524 210 467 298 q 631 -9 581 123 l 607 -20 q 471 205 547 113 q 288 357 395 298 l 288 358 q 471 510 395 418 q 607 734 547 602 l 631 725 z "},"":{"ha":911,"x_min":114,"x_max":810,"o":"m 760 229 l 760 472 l 114 472 l 114 514 l 810 514 l 810 229 l 760 229 z "},"":{"ha":693,"x_min":0,"x_max":0,"o":""},"":{"ha":942,"x_min":83,"x_max":859,"o":"m 471 1086 q 665 1034 576 1086 q 806 893 754 982 q 859 699 859 804 q 806 505 859 593 q 665 363 754 416 q 471 311 576 311 q 277 363 366 311 q 136 505 188 416 q 83 699 83 593 q 136 893 83 804 q 277 1034 188 982 q 471 1086 366 1086 m 471 355 q 636 402 561 355 q 756 527 712 448 q 800 699 800 606 q 756 870 800 791 q 636 995 712 949 q 471 1042 561 1042 q 305 995 380 1042 q 186 870 230 949 q 142 699 142 791 q 186 527 142 606 q 306 402 230 448 q 471 355 381 355 m 636 551 q 640 532 637 546 q 648 512 643 518 q 661 505 653 505 q 677 517 671 505 l 692 507 q 669 485 684 491 q 631 478 654 478 q 578 491 595 478 q 554 534 562 505 l 530 637 q 515 677 524 665 q 482 695 505 690 q 408 701 458 701 l 408 561 q 411 529 408 539 q 419 515 413 519 q 440 510 426 511 l 440 489 q 409 490 427 489 q 370 490 391 490 q 328 490 346 490 q 297 489 309 489 l 297 510 q 318 515 311 511 q 327 529 324 519 q 329 561 329 539 l 329 865 q 327 898 329 888 q 318 913 324 909 q 297 918 311 917 l 297 939 q 364 937 314 937 q 439 938 410 937 q 484 939 469 939 q 603 910 562 939 q 644 829 644 882 q 510 711 644 735 q 588 686 565 705 q 619 631 612 667 l 636 551 m 441 724 q 534 747 510 724 q 558 815 558 771 q 536 893 558 869 q 461 918 514 918 q 427 915 438 918 q 412 901 416 911 q 408 872 408 892 l 408 724 l 441 724 z "},"":{"ha":503,"x_min":35,"x_max":468,"o":"m 35 954 l 35 989 l 468 989 l 468 954 l 35 954 z "},"":{"ha":463,"x_min":62,"x_max":400,"o":"m 231 1139 q 315 1118 276 1139 q 377 1060 354 1098 q 400 972 400 1022 q 377 884 400 922 q 315 825 354 846 q 231 804 276 804 q 147 825 186 804 q 85 884 109 846 q 62 972 62 922 q 85 1060 62 1022 q 147 1118 109 1098 q 231 1139 186 1139 m 231 1116 q 167 1099 198 1116 q 117 1049 136 1082 q 97 971 97 1016 q 117 892 97 925 q 167 844 136 860 q 231 828 197 828 q 295 844 264 828 q 346 892 326 860 q 366 971 366 925 q 346 1049 366 1016 q 294 1099 326 1082 q 231 1116 263 1116 z "},"":{"ha":890,"x_min":87,"x_max":798,"o":"m 102 0 l 102 42 l 798 42 l 798 0 l 102 0 m 783 514 l 783 472 l 461 472 l 461 146 l 411 146 l 411 472 l 87 472 l 87 514 l 411 514 l 411 842 l 461 842 l 461 514 l 783 514 z "},"":{"ha":469,"x_min":49,"x_max":428,"o":"m 50 937 q 124 1017 76 985 q 241 1048 173 1048 q 342 1022 304 1048 q 380 945 380 996 q 345 851 380 892 q 243 760 309 810 q 155 686 178 710 l 339 686 q 372 691 360 686 q 391 706 385 696 q 404 733 397 715 l 428 729 q 407 604 409 659 q 354 608 390 608 l 49 608 l 49 636 q 137 704 64 650 q 251 813 210 758 q 293 926 293 867 q 203 1002 293 1002 q 71 926 119 1002 l 50 937 z "},"":{"ha":450,"x_min":39,"x_max":406,"o":"m 39 939 q 113 1018 64 987 q 233 1050 162 1050 q 335 1023 297 1050 q 374 949 374 997 q 338 868 374 903 q 244 818 302 834 q 325 803 288 817 q 384 760 361 788 q 406 693 406 732 q 352 584 406 631 q 215 510 298 536 q 45 484 131 484 l 45 507 q 180 535 116 509 q 282 602 243 560 q 321 693 321 644 q 293 771 321 741 q 220 803 266 801 q 202 794 213 800 q 184 786 191 789 q 170 783 176 783 q 147 800 147 783 q 163 817 147 813 q 208 819 178 821 q 268 865 250 837 q 286 922 286 894 q 260 981 286 959 q 192 1003 235 1003 q 116 984 151 1003 q 60 928 82 965 l 39 939 z "},"":{"ha":310,"x_min":28,"x_max":281,"o":"m 28 844 q 79 929 58 891 q 130 1025 100 967 q 179 1108 159 1082 q 232 1139 203 1139 q 262 1129 249 1139 q 281 1090 281 1114 q 262 1043 281 1068 q 202 982 242 1017 q 125 914 162 947 q 43 832 89 881 l 28 844 z "},"":{"ha":896,"x_min":49,"x_max":844,"o":"m 603 -18 q 180 121 312 -18 q 49 500 49 260 q 108 752 49 642 q 280 923 168 862 q 546 985 392 985 q 655 982 585 985 q 755 980 724 980 q 839 983 804 980 l 839 957 q 772 944 795 955 q 740 915 749 934 q 732 863 732 895 l 732 -104 q 740 -180 732 -157 q 771 -213 749 -204 q 844 -224 794 -222 l 844 -252 q 668 -248 781 -248 q 463 -252 530 -248 l 463 -224 q 551 -209 522 -222 q 592 -170 581 -197 q 603 -90 603 -142 l 603 -18 m 604 911 q 589 852 600 911 q 571 701 579 793 q 561 509 562 608 q 374 505 463 509 q 229 495 286 500 q 172 488 172 490 q 228 480 172 485 q 373 472 283 475 q 561 468 462 468 q 571 273 562 364 q 589 124 579 181 q 604 66 600 66 l 604 911 z "},"":{"ha":367,"x_min":94,"x_max":272,"o":"m 183 460 q 228 449 207 460 q 260 416 248 437 q 272 372 272 395 q 260 328 272 348 q 228 295 248 307 q 183 283 207 283 q 139 295 159 283 q 106 328 118 307 q 94 372 94 348 q 106 416 94 395 q 139 449 118 437 q 183 460 159 460 z "},"":{"ha":317,"x_min":14,"x_max":286,"o":"m 119 -100 q 201 -90 161 -90 q 263 -107 241 -90 q 286 -155 286 -125 q 262 -216 286 -192 q 202 -250 238 -239 q 129 -261 166 -261 q 14 -245 58 -261 l 20 -221 q 72 -225 48 -225 q 160 -211 122 -225 q 197 -163 197 -196 q 139 -123 197 -123 q 71 -134 99 -123 l 118 8 l 155 8 l 119 -100 z "},"":{"ha":366,"x_min":47,"x_max":340,"o":"m 248 704 q 257 662 248 677 q 286 642 266 648 q 340 636 305 636 l 340 607 q 205 610 288 610 q 57 607 115 610 l 57 636 q 134 651 109 636 q 160 704 160 665 l 160 884 q 150 943 160 924 q 118 968 140 962 q 47 974 95 974 l 47 1003 q 164 1014 119 1004 q 248 1046 210 1023 l 248 704 z "},"":{"ha":631,"x_min":69,"x_max":561,"o":"m 315 1003 q 435 974 378 1003 q 526 888 491 945 q 561 751 561 831 q 526 615 561 672 q 435 529 491 558 q 315 500 378 500 q 196 529 252 500 q 104 615 139 558 q 69 751 69 672 q 104 888 69 831 q 196 974 139 945 q 315 1003 252 1003 m 315 978 q 249 954 278 978 q 202 880 219 930 q 184 751 184 829 q 202 623 184 674 q 249 549 219 572 q 315 525 278 525 q 381 549 352 525 q 428 623 411 572 q 446 751 446 674 q 428 880 446 829 q 381 954 411 930 q 315 978 352 978 z "},"":{"ha":696,"x_min":66,"x_max":653,"o":"m 90 733 q 226 508 150 600 q 410 357 302 416 l 410 355 q 226 204 302 296 q 90 -21 150 112 l 66 -11 q 172 201 115 119 q 306 351 229 284 q 174 504 231 416 q 66 724 117 591 l 90 733 m 334 733 q 469 508 393 600 q 653 357 545 416 l 653 355 q 469 204 545 296 q 334 -21 393 112 l 310 -11 q 415 201 358 118 q 549 351 471 284 q 417 504 474 416 q 310 724 359 592 l 334 733 z "},"":{"ha":962,"x_min":70,"x_max":928,"o":"m 115 -77 l 89 -58 l 901 1145 l 928 1126 l 115 -77 m 270 704 q 279 662 270 677 q 308 642 288 648 q 363 636 328 636 l 363 607 q 228 610 310 610 q 79 607 138 610 l 79 636 q 157 651 131 636 q 182 704 182 665 l 182 884 q 173 943 182 924 q 140 968 163 962 q 70 974 117 974 l 70 1003 q 187 1014 141 1004 q 270 1046 233 1023 l 270 704 m 863 125 q 843 21 846 66 q 791 25 827 25 l 763 25 l 763 -138 l 685 -138 l 685 25 l 416 25 l 416 54 l 734 421 l 763 421 l 763 82 l 774 82 q 807 87 795 82 q 825 101 819 92 q 839 129 831 111 l 863 125 m 685 331 l 471 82 l 685 82 l 685 331 z "},"":{"ha":972,"x_min":66,"x_max":918,"o":"m 93 -77 l 66 -58 l 879 1145 l 905 1126 l 93 -77 m 281 704 q 290 662 281 677 q 319 642 299 648 q 374 636 338 636 l 374 607 q 239 610 321 610 q 90 607 149 610 l 90 636 q 168 651 142 636 q 193 704 193 665 l 193 884 q 183 943 193 924 q 151 968 174 962 q 81 974 128 974 l 81 1003 q 198 1014 152 1004 q 281 1046 243 1023 l 281 704 m 541 330 q 615 410 566 378 q 732 441 663 441 q 833 415 795 441 q 871 338 871 389 q 835 244 871 285 q 733 153 799 203 q 646 79 668 103 l 829 79 q 863 84 850 79 q 881 99 875 90 q 895 126 887 109 l 918 122 q 897 -3 899 52 q 844 1 880 1 l 539 1 l 539 29 q 627 97 555 43 q 742 206 700 151 q 783 319 783 260 q 693 395 783 395 q 561 319 609 395 l 541 330 z "},"":{"ha":1034,"x_min":71,"x_max":993,"o":"m 180 -77 l 154 -58 l 966 1145 l 993 1126 l 180 -77 m 71 939 q 145 1018 96 987 q 265 1050 194 1050 q 367 1023 329 1050 q 406 949 406 997 q 370 868 406 903 q 276 818 334 834 q 356 803 319 817 q 415 760 393 788 q 437 693 437 732 q 384 584 437 631 q 247 510 330 536 q 77 484 163 484 l 77 507 q 212 535 148 509 q 314 602 275 560 q 353 693 353 644 q 325 771 353 741 q 252 803 298 801 q 234 794 245 800 q 216 786 223 789 q 201 783 208 783 q 179 800 179 783 q 195 817 179 813 q 240 819 210 821 q 300 865 282 837 q 318 922 318 894 q 292 981 318 959 q 224 1003 267 1003 q 148 984 182 1003 q 92 928 114 965 l 71 939 m 928 125 q 908 21 911 66 q 856 25 892 25 l 828 25 l 828 -138 l 750 -138 l 750 25 l 481 25 l 481 54 l 799 421 l 828 421 l 828 82 l 839 82 q 872 87 861 82 q 890 101 884 92 q 904 129 897 111 l 928 125 m 750 331 l 536 82 l 750 82 l 750 331 z "},"":{"ha":629,"x_min":43,"x_max":589,"o":"m 368 736 q 413 724 392 736 q 445 691 433 712 q 457 647 457 671 q 445 603 457 623 q 413 570 433 583 q 368 558 392 558 q 324 570 345 558 q 291 603 303 583 q 279 647 279 623 q 291 691 279 671 q 324 724 303 712 q 368 736 345 736 m 383 257 q 248 188 295 227 q 183 104 200 149 q 167 1 167 59 q 218 -176 167 -118 q 361 -233 270 -233 q 497 -197 458 -233 q 454 -174 470 -192 q 439 -126 439 -156 q 461 -72 439 -92 q 515 -52 483 -52 q 568 -72 547 -52 q 589 -125 589 -93 q 524 -221 589 -182 q 335 -261 455 -261 q 182 -233 248 -261 q 79 -151 116 -204 q 43 -25 43 -98 q 127 160 43 84 q 355 269 212 236 l 355 444 l 383 444 l 383 257 z "},"":{"ha":875,"x_min":-9,"x_max":884,"o":"m 787 117 q 884 28 821 31 l 884 0 q 734 4 827 4 q 557 0 616 4 l 557 28 q 632 41 610 30 q 655 79 655 52 q 639 144 655 103 l 553 372 l 218 372 l 161 225 q 134 111 134 155 q 163 48 134 67 q 254 28 193 29 l 254 0 q 94 4 175 4 q -9 0 32 4 l -9 28 q 100 149 60 43 l 427 990 l 449 990 l 787 117 m 388 814 l 229 400 l 543 400 l 388 814 m 513 1072 q 421 1115 462 1098 q 321 1156 381 1133 q 233 1196 261 1179 q 197 1251 197 1220 q 204 1276 197 1263 q 247 1299 220 1299 q 289 1286 268 1299 q 356 1232 317 1268 q 432 1164 395 1196 q 522 1090 469 1131 l 513 1072 z "},"":{"ha":875,"x_min":-9,"x_max":884,"o":"m 787 117 q 884 28 821 31 l 884 0 q 734 4 827 4 q 557 0 616 4 l 557 28 q 632 41 610 30 q 655 79 655 52 q 639 144 655 103 l 553 372 l 218 372 l 161 225 q 134 111 134 155 q 163 48 134 67 q 254 28 193 29 l 254 0 q 94 4 175 4 q -9 0 32 4 l -9 28 q 100 149 60 43 l 427 990 l 449 990 l 787 117 m 388 814 l 229 400 l 543 400 l 388 814 m 345 1090 q 421 1153 389 1124 q 502 1224 454 1181 q 578 1286 550 1268 q 620 1299 599 1299 q 663 1276 647 1299 q 670 1251 670 1263 q 633 1196 670 1220 q 556 1160 606 1179 q 461 1122 507 1141 q 354 1072 414 1103 l 345 1090 z "},"":{"ha":875,"x_min":-9,"x_max":884,"o":"m 787 117 q 884 28 821 31 l 884 0 q 734 4 827 4 q 557 0 616 4 l 557 28 q 632 41 610 30 q 655 79 655 52 q 639 144 655 103 l 553 372 l 218 372 l 161 225 q 134 111 134 155 q 163 48 134 67 q 254 28 193 29 l 254 0 q 94 4 175 4 q -9 0 32 4 l -9 28 q 100 149 60 43 l 427 990 l 449 990 l 787 117 m 388 814 l 229 400 l 543 400 l 388 814 m 442 1272 q 544 1169 475 1218 q 702 1089 612 1120 l 694 1069 q 530 1114 610 1087 q 401 1166 449 1141 q 297 1114 362 1141 q 164 1069 231 1087 l 157 1089 q 315 1169 246 1120 q 417 1272 384 1218 l 442 1272 z "},"":{"ha":875,"x_min":-9,"x_max":884,"o":"m 787 117 q 884 28 821 31 l 884 0 q 734 4 827 4 q 557 0 616 4 l 557 28 q 632 41 610 30 q 655 79 655 52 q 639 144 655 103 l 553 372 l 218 372 l 161 225 q 134 111 134 155 q 163 48 134 67 q 254 28 193 29 l 254 0 q 94 4 175 4 q -9 0 32 4 l -9 28 q 100 149 60 43 l 427 990 l 449 990 l 787 117 m 388 814 l 229 400 l 543 400 l 388 814 m 163 1105 q 189 1183 167 1150 q 244 1235 210 1217 q 317 1253 278 1253 q 382 1239 351 1253 q 476 1186 413 1225 q 587 1146 539 1146 q 673 1223 651 1146 l 693 1219 q 667 1141 689 1175 q 612 1090 646 1108 q 539 1072 578 1072 q 474 1086 505 1072 q 380 1140 444 1100 q 270 1179 317 1179 q 184 1101 205 1179 l 163 1105 z "},"":{"ha":875,"x_min":-9,"x_max":884,"o":"m 787 117 q 884 28 821 31 l 884 0 q 734 4 827 4 q 557 0 616 4 l 557 28 q 632 41 610 30 q 655 79 655 52 q 639 144 655 103 l 553 372 l 218 372 l 161 225 q 134 111 134 155 q 163 48 134 67 q 254 28 193 29 l 254 0 q 94 4 175 4 q -9 0 32 4 l -9 28 q 100 149 60 43 l 427 990 l 449 990 l 787 117 m 388 814 l 229 400 l 543 400 l 388 814 m 282 1234 q 322 1222 303 1234 q 352 1193 340 1211 q 363 1153 363 1174 q 352 1113 363 1131 q 322 1083 340 1094 q 282 1072 303 1072 q 225 1096 249 1072 q 201 1153 201 1120 q 212 1193 201 1174 q 242 1222 223 1211 q 282 1234 260 1234 m 576 1234 q 616 1222 597 1234 q 646 1193 635 1211 q 657 1153 657 1174 q 646 1113 657 1131 q 616 1083 635 1094 q 576 1072 598 1072 q 519 1096 543 1072 q 496 1153 496 1120 q 507 1193 496 1174 q 536 1222 517 1211 q 576 1234 555 1234 z "},"":{"ha":875,"x_min":-9,"x_max":884,"o":"m 787 117 q 884 28 821 31 l 884 0 q 734 4 827 4 q 557 0 616 4 l 557 28 q 632 41 610 30 q 655 79 655 52 q 639 144 655 103 l 553 372 l 218 372 l 161 225 q 134 111 134 155 q 163 48 134 67 q 254 28 193 29 l 254 0 q 94 4 175 4 q -9 0 32 4 l -9 28 q 100 149 60 43 l 427 990 l 449 990 l 787 117 m 388 814 l 229 400 l 543 400 l 388 814 m 429 1284 q 497 1269 466 1284 q 546 1225 528 1253 q 564 1158 564 1196 q 546 1091 564 1120 q 497 1046 528 1062 q 429 1031 466 1031 q 363 1046 393 1031 q 315 1091 333 1062 q 296 1158 296 1120 q 315 1225 296 1196 q 363 1269 333 1253 q 429 1284 394 1284 m 429 1255 q 385 1244 406 1255 q 349 1210 363 1232 q 335 1157 335 1187 q 349 1104 335 1126 q 385 1071 363 1082 q 429 1060 406 1060 q 476 1071 454 1060 q 512 1104 498 1082 q 526 1157 526 1126 q 512 1210 526 1187 q 475 1244 498 1232 q 429 1255 453 1255 z "},"":{"ha":1186,"x_min":-14,"x_max":1120,"o":"m 1114 278 q 1109 178 1109 240 q 1120 0 1109 96 q 829 4 1034 4 q 496 0 611 4 l 496 28 q 551 39 534 30 q 574 71 568 47 q 581 147 581 94 l 581 481 l 338 481 l 135 144 q 109 77 109 100 q 133 41 109 52 q 205 28 157 30 l 205 0 q 79 4 163 4 q -14 0 21 4 l -14 28 q 31 49 9 28 q 82 117 54 69 l 569 920 q 536 946 559 939 q 468 956 514 954 l 468 983 q 606 981 526 981 l 661 1072 l 694 1072 l 639 980 q 744 979 695 979 q 829 979 792 979 q 1092 983 1014 979 q 1082 819 1082 895 q 1086 733 1082 762 l 1054 733 q 1035 867 1046 823 q 995 931 1023 911 q 909 951 966 951 l 822 951 q 749 943 772 951 q 719 912 727 935 q 710 836 710 888 l 710 509 l 811 509 q 884 544 866 509 q 907 615 903 578 q 913 664 911 652 l 945 664 q 939 548 939 593 l 940 494 q 949 325 940 444 l 917 325 q 911 382 916 333 q 880 456 905 431 q 811 481 855 481 l 710 481 l 710 147 q 719 72 710 95 q 749 40 727 48 q 822 32 772 32 l 924 32 q 1021 54 991 32 q 1062 123 1052 77 q 1082 278 1073 170 l 1114 278 m 581 836 q 578 880 581 863 l 355 509 l 581 509 l 581 836 z "},"":{"ha":956,"x_min":74,"x_max":865,"o":"m 833 0 q 822 63 830 43 q 800 82 814 82 q 771 71 789 82 q 695 23 730 41 q 615 -8 660 4 q 514 -20 570 -20 q 282 40 382 -20 q 129 213 183 100 q 74 484 74 327 q 130 755 74 637 q 287 938 186 873 q 515 1003 387 1003 q 657 979 598 1003 q 771 913 715 956 q 798 901 786 901 q 833 983 827 901 l 865 983 q 860 664 860 893 l 828 664 q 809 761 818 726 q 789 820 801 795 q 758 869 778 844 q 652 951 716 924 q 513 978 587 978 q 355 918 422 978 q 250 748 287 859 q 212 489 212 637 q 253 229 212 338 q 365 64 294 121 q 526 8 436 8 q 661 35 595 8 q 764 114 727 61 q 804 196 792 152 q 828 334 817 241 l 860 334 q 865 0 860 94 l 833 0 m 498 -100 q 581 -90 540 -90 q 643 -107 620 -90 q 665 -155 665 -125 q 641 -216 665 -192 q 581 -250 617 -239 q 509 -261 545 -261 q 393 -245 437 -261 l 399 -221 q 452 -225 427 -225 q 539 -211 502 -225 q 576 -163 576 -196 q 518 -123 576 -123 q 450 -134 479 -123 l 497 7 l 535 7 l 498 -100 z "},"":{"ha":846,"x_min":58,"x_max":779,"o":"m 774 278 q 770 178 770 241 q 779 0 770 99 q 461 4 685 4 q 58 0 195 4 l 58 28 q 131 39 109 30 q 162 71 154 47 q 171 147 171 95 l 171 836 q 162 912 171 888 q 131 945 154 936 q 58 956 109 954 l 58 983 q 461 979 195 979 q 751 983 665 979 q 742 819 742 892 q 746 733 742 765 l 714 733 q 689 867 704 823 q 637 931 673 911 q 528 951 601 951 l 412 951 q 339 943 362 951 q 308 912 317 935 q 300 836 300 888 l 300 509 l 392 509 q 485 550 462 509 q 513 635 508 592 q 521 692 519 679 l 553 692 q 548 561 548 623 l 549 494 q 557 297 549 424 l 525 297 q 517 364 524 307 q 479 451 511 422 q 392 481 448 481 l 300 481 l 300 147 q 308 72 300 95 q 339 40 317 48 q 412 32 362 32 l 514 32 q 646 55 601 32 q 711 129 691 78 q 742 278 731 180 l 774 278 m 509 1072 q 417 1115 458 1098 q 317 1156 377 1133 q 229 1196 257 1179 q 193 1251 193 1220 q 200 1276 193 1263 q 243 1299 216 1299 q 285 1286 264 1299 q 352 1232 313 1268 q 428 1164 391 1196 q 518 1090 465 1131 l 509 1072 z "},"":{"ha":846,"x_min":58,"x_max":779,"o":"m 774 278 q 770 178 770 241 q 779 0 770 99 q 461 4 685 4 q 58 0 195 4 l 58 28 q 131 39 109 30 q 162 71 154 47 q 171 147 171 95 l 171 836 q 162 912 171 888 q 131 945 154 936 q 58 956 109 954 l 58 983 q 461 979 195 979 q 751 983 665 979 q 742 819 742 892 q 746 733 742 765 l 714 733 q 689 867 704 823 q 637 931 673 911 q 528 951 601 951 l 412 951 q 339 943 362 951 q 308 912 317 935 q 300 836 300 888 l 300 509 l 392 509 q 485 550 462 509 q 513 635 508 592 q 521 692 519 679 l 553 692 q 548 561 548 623 l 549 494 q 557 297 549 424 l 525 297 q 517 364 524 307 q 479 451 511 422 q 392 481 448 481 l 300 481 l 300 147 q 308 72 300 95 q 339 40 317 48 q 412 32 362 32 l 514 32 q 646 55 601 32 q 711 129 691 78 q 742 278 731 180 l 774 278 m 340 1090 q 417 1153 385 1124 q 498 1224 450 1181 q 574 1286 546 1268 q 616 1299 595 1299 q 659 1276 643 1299 q 666 1251 666 1263 q 629 1196 666 1220 q 552 1160 602 1179 q 457 1122 503 1141 q 350 1072 410 1103 l 340 1090 z "},"":{"ha":846,"x_min":58,"x_max":779,"o":"m 774 278 q 770 178 770 241 q 779 0 770 99 q 461 4 685 4 q 58 0 195 4 l 58 28 q 131 39 109 30 q 162 71 154 47 q 171 147 171 95 l 171 836 q 162 912 171 888 q 131 945 154 936 q 58 956 109 954 l 58 983 q 461 979 195 979 q 751 983 665 979 q 742 819 742 892 q 746 733 742 765 l 714 733 q 689 867 704 823 q 637 931 673 911 q 528 951 601 951 l 412 951 q 339 943 362 951 q 308 912 317 935 q 300 836 300 888 l 300 509 l 392 509 q 485 550 462 509 q 513 635 508 592 q 521 692 519 679 l 553 692 q 548 561 548 623 l 549 494 q 557 297 549 424 l 525 297 q 517 364 524 307 q 479 451 511 422 q 392 481 448 481 l 300 481 l 300 147 q 308 72 300 95 q 339 40 317 48 q 412 32 362 32 l 514 32 q 646 55 601 32 q 711 129 691 78 q 742 278 731 180 l 774 278 m 438 1272 q 539 1169 471 1218 q 698 1089 608 1120 l 690 1069 q 526 1114 606 1087 q 397 1166 445 1141 q 293 1114 358 1141 q 160 1069 227 1087 l 153 1089 q 311 1169 242 1120 q 413 1272 380 1218 l 438 1272 z "},"":{"ha":846,"x_min":58,"x_max":779,"o":"m 774 278 q 770 178 770 241 q 779 0 770 99 q 461 4 685 4 q 58 0 195 4 l 58 28 q 131 39 109 30 q 162 71 154 47 q 171 147 171 95 l 171 836 q 162 912 171 888 q 131 945 154 936 q 58 956 109 954 l 58 983 q 461 979 195 979 q 751 983 665 979 q 742 819 742 892 q 746 733 742 765 l 714 733 q 689 867 704 823 q 637 931 673 911 q 528 951 601 951 l 412 951 q 339 943 362 951 q 308 912 317 935 q 300 836 300 888 l 300 509 l 392 509 q 485 550 462 509 q 513 635 508 592 q 521 692 519 679 l 553 692 q 548 561 548 623 l 549 494 q 557 297 549 424 l 525 297 q 517 364 524 307 q 479 451 511 422 q 392 481 448 481 l 300 481 l 300 147 q 308 72 300 95 q 339 40 317 48 q 412 32 362 32 l 514 32 q 646 55 601 32 q 711 129 691 78 q 742 278 731 180 l 774 278 m 278 1234 q 318 1222 299 1234 q 348 1193 336 1211 q 359 1153 359 1174 q 348 1113 359 1131 q 318 1083 336 1094 q 278 1072 299 1072 q 221 1096 245 1072 q 197 1153 197 1120 q 208 1193 197 1174 q 238 1222 219 1211 q 278 1234 256 1234 m 572 1234 q 612 1222 593 1234 q 642 1193 631 1211 q 653 1153 653 1174 q 642 1113 653 1131 q 612 1083 631 1094 q 572 1072 594 1072 q 515 1096 539 1072 q 492 1153 492 1120 q 503 1193 492 1174 q 532 1222 513 1211 q 572 1234 551 1234 z "},"":{"ha":471,"x_min":3,"x_max":412,"o":"m 412 956 q 339 945 362 954 q 308 912 317 936 q 300 836 300 888 l 300 147 q 308 71 300 95 q 339 39 317 47 q 412 28 362 30 l 412 0 q 236 4 349 4 q 58 0 117 4 l 58 28 q 131 39 109 30 q 162 71 154 47 q 171 147 171 95 l 171 836 q 162 912 171 888 q 131 945 154 936 q 58 956 109 954 l 58 983 q 236 979 116 979 q 412 983 349 979 l 412 956 m 319 1072 q 228 1115 269 1098 q 128 1156 188 1133 q 40 1196 68 1179 q 3 1251 3 1220 q 11 1276 3 1263 q 54 1299 26 1299 q 96 1286 75 1299 q 162 1232 123 1268 q 238 1164 201 1196 q 329 1090 275 1131 l 319 1072 z "},"":{"ha":471,"x_min":58,"x_max":477,"o":"m 412 956 q 339 945 362 954 q 308 912 317 936 q 300 836 300 888 l 300 147 q 308 71 300 95 q 339 39 317 47 q 412 28 362 30 l 412 0 q 236 4 349 4 q 58 0 117 4 l 58 28 q 131 39 109 30 q 162 71 154 47 q 171 147 171 95 l 171 836 q 162 912 171 888 q 131 945 154 936 q 58 956 109 954 l 58 983 q 236 979 116 979 q 412 983 349 979 l 412 956 m 151 1090 q 228 1153 195 1124 q 309 1224 261 1181 q 385 1286 357 1268 q 427 1299 406 1299 q 469 1276 454 1299 q 477 1251 477 1263 q 440 1196 477 1220 q 363 1160 412 1179 q 268 1122 314 1141 q 161 1072 221 1103 l 151 1090 z "},"":{"ha":471,"x_min":-36,"x_max":509,"o":"m 412 956 q 339 945 362 954 q 308 912 317 936 q 300 836 300 888 l 300 147 q 308 71 300 95 q 339 39 317 47 q 412 28 362 30 l 412 0 q 236 4 349 4 q 58 0 117 4 l 58 28 q 131 39 109 30 q 162 71 154 47 q 171 147 171 95 l 171 836 q 162 912 171 888 q 131 945 154 936 q 58 956 109 954 l 58 983 q 236 979 116 979 q 412 983 349 979 l 412 956 m 249 1272 q 350 1169 281 1218 q 509 1089 419 1120 l 501 1069 q 336 1114 417 1087 q 208 1166 256 1141 q 103 1114 169 1141 q -29 1069 38 1087 l -36 1089 q 122 1169 53 1120 q 224 1272 191 1218 l 249 1272 z "},"":{"ha":471,"x_min":8,"x_max":464,"o":"m 412 956 q 339 945 362 954 q 308 912 317 936 q 300 836 300 888 l 300 147 q 308 71 300 95 q 339 39 317 47 q 412 28 362 30 l 412 0 q 236 4 349 4 q 58 0 117 4 l 58 28 q 131 39 109 30 q 162 71 154 47 q 171 147 171 95 l 171 836 q 162 912 171 888 q 131 945 154 936 q 58 956 109 954 l 58 983 q 236 979 116 979 q 412 983 349 979 l 412 956 m 89 1234 q 129 1222 110 1234 q 158 1193 147 1211 q 170 1153 170 1174 q 158 1113 170 1131 q 129 1083 147 1094 q 89 1072 110 1072 q 32 1096 56 1072 q 8 1153 8 1120 q 19 1193 8 1174 q 48 1222 30 1211 q 89 1234 67 1234 m 383 1234 q 423 1222 404 1234 q 453 1193 441 1211 q 464 1153 464 1174 q 453 1113 464 1131 q 423 1083 441 1094 q 383 1072 405 1072 q 326 1096 350 1072 q 302 1153 302 1120 q 313 1193 302 1174 q 343 1222 324 1211 q 383 1234 361 1234 z "},"":{"ha":1006,"x_min":60,"x_max":929,"o":"m 60 983 q 195 979 134 979 l 229 979 q 439 983 420 983 q 807 861 684 983 q 929 503 929 738 q 870 238 929 351 q 697 62 810 124 q 427 0 584 0 q 336 2 408 0 q 232 4 264 4 q 60 0 118 4 l 60 28 q 133 39 110 30 q 164 71 155 47 q 172 147 172 95 l 172 481 l 60 481 l 60 509 l 172 509 l 172 836 q 164 912 172 888 q 133 945 155 936 q 60 956 110 954 l 60 983 m 301 144 q 309 70 301 94 q 339 35 317 45 q 406 25 361 25 q 637 79 553 25 q 756 235 722 132 q 790 497 790 338 q 753 758 790 657 q 631 908 715 859 q 404 958 547 958 q 339 948 361 958 q 309 913 317 939 q 301 839 301 888 l 301 509 l 494 509 l 494 481 l 301 481 l 301 144 z "},"":{"ha":981,"x_min":58,"x_max":930,"o":"m 930 956 q 859 942 882 954 q 827 903 836 930 q 818 822 818 876 l 818 -7 l 786 -7 l 203 895 l 203 161 q 212 81 203 108 q 248 42 222 54 q 329 28 274 30 l 329 0 q 187 4 279 4 q 58 0 104 4 l 58 28 q 130 42 106 30 q 162 81 153 54 q 171 161 171 108 l 171 836 q 162 912 171 888 q 131 945 154 936 q 58 956 109 954 l 58 983 q 187 979 104 979 q 296 983 250 979 l 786 228 l 786 822 q 777 903 786 876 q 741 942 768 930 q 660 956 715 954 l 660 983 q 802 979 709 979 q 930 983 884 979 l 930 956 m 253 1105 q 279 1183 257 1150 q 334 1235 300 1217 q 407 1253 368 1253 q 472 1239 441 1253 q 566 1186 503 1225 q 677 1146 629 1146 q 763 1223 741 1146 l 783 1219 q 758 1141 779 1175 q 702 1090 736 1108 q 629 1072 669 1072 q 564 1086 595 1072 q 470 1140 534 1100 q 360 1179 407 1179 q 274 1101 295 1179 l 253 1105 z "},"":{"ha":1029,"x_min":74,"x_max":956,"o":"m 515 1003 q 747 943 648 1003 q 901 770 846 884 q 956 500 956 656 q 899 229 956 347 q 743 45 843 111 q 514 -20 642 -20 q 282 40 382 -20 q 129 213 183 100 q 74 484 74 327 q 130 755 74 637 q 287 938 186 873 q 515 1003 387 1003 m 510 978 q 353 916 421 978 q 249 743 286 854 q 212 489 212 632 q 253 235 212 345 q 364 65 294 125 q 519 5 434 5 q 676 67 608 5 q 780 240 743 130 q 817 494 817 351 q 776 749 817 639 q 665 918 735 859 q 510 978 595 978 m 596 1072 q 505 1115 545 1098 q 405 1156 465 1133 q 317 1196 345 1179 q 280 1251 280 1220 q 288 1276 280 1263 q 330 1299 303 1299 q 372 1286 351 1299 q 439 1232 400 1268 q 515 1164 478 1196 q 606 1090 552 1131 l 596 1072 z "},"":{"ha":1029,"x_min":74,"x_max":956,"o":"m 515 1003 q 747 943 648 1003 q 901 770 846 884 q 956 500 956 656 q 899 229 956 347 q 743 45 843 111 q 514 -20 642 -20 q 282 40 382 -20 q 129 213 183 100 q 74 484 74 327 q 130 755 74 637 q 287 938 186 873 q 515 1003 387 1003 m 510 978 q 353 916 421 978 q 249 743 286 854 q 212 489 212 632 q 253 235 212 345 q 364 65 294 125 q 519 5 434 5 q 676 67 608 5 q 780 240 743 130 q 817 494 817 351 q 776 749 817 639 q 665 918 735 859 q 510 978 595 978 m 428 1090 q 505 1153 472 1124 q 586 1224 538 1181 q 661 1286 633 1268 q 703 1299 682 1299 q 746 1276 730 1299 q 753 1251 753 1263 q 717 1196 753 1220 q 640 1160 689 1179 q 544 1122 591 1141 q 437 1072 498 1103 l 428 1090 z "},"":{"ha":1029,"x_min":74,"x_max":956,"o":"m 515 1003 q 747 943 648 1003 q 901 770 846 884 q 956 500 956 656 q 899 229 956 347 q 743 45 843 111 q 514 -20 642 -20 q 282 40 382 -20 q 129 213 183 100 q 74 484 74 327 q 130 755 74 637 q 287 938 186 873 q 515 1003 387 1003 m 510 978 q 353 916 421 978 q 249 743 286 854 q 212 489 212 632 q 253 235 212 345 q 364 65 294 125 q 519 5 434 5 q 676 67 608 5 q 780 240 743 130 q 817 494 817 351 q 776 749 817 639 q 665 918 735 859 q 510 978 595 978 m 526 1272 q 627 1169 558 1218 q 785 1089 696 1120 l 778 1069 q 613 1114 694 1087 q 485 1166 532 1141 q 380 1114 446 1141 q 248 1069 315 1087 l 241 1089 q 398 1169 330 1120 q 500 1272 467 1218 l 526 1272 z "},"":{"ha":1029,"x_min":74,"x_max":956,"o":"m 515 1003 q 747 943 648 1003 q 901 770 846 884 q 956 500 956 656 q 899 229 956 347 q 743 45 843 111 q 514 -20 642 -20 q 282 40 382 -20 q 129 213 183 100 q 74 484 74 327 q 130 755 74 637 q 287 938 186 873 q 515 1003 387 1003 m 510 978 q 353 916 421 978 q 249 743 286 854 q 212 489 212 632 q 253 235 212 345 q 364 65 294 125 q 519 5 434 5 q 676 67 608 5 q 780 240 743 130 q 817 494 817 351 q 776 749 817 639 q 665 918 735 859 q 510 978 595 978 m 246 1105 q 272 1183 250 1150 q 328 1235 294 1217 q 400 1253 361 1253 q 466 1239 435 1253 q 559 1186 496 1225 q 670 1146 623 1146 q 756 1223 734 1146 l 777 1219 q 751 1141 772 1175 q 695 1090 729 1108 q 623 1072 662 1072 q 557 1086 588 1072 q 464 1140 527 1100 q 353 1179 400 1179 q 267 1101 288 1179 l 246 1105 z "},"":{"ha":1029,"x_min":74,"x_max":956,"o":"m 515 1003 q 747 943 648 1003 q 901 770 846 884 q 956 500 956 656 q 899 229 956 347 q 743 45 843 111 q 514 -20 642 -20 q 282 40 382 -20 q 129 213 183 100 q 74 484 74 327 q 130 755 74 637 q 287 938 186 873 q 515 1003 387 1003 m 510 978 q 353 916 421 978 q 249 743 286 854 q 212 489 212 632 q 253 235 212 345 q 364 65 294 125 q 519 5 434 5 q 676 67 608 5 q 780 240 743 130 q 817 494 817 351 q 776 749 817 639 q 665 918 735 859 q 510 978 595 978 m 366 1234 q 405 1222 387 1234 q 435 1193 424 1211 q 446 1153 446 1174 q 435 1113 446 1131 q 405 1083 424 1094 q 366 1072 387 1072 q 309 1096 332 1072 q 285 1153 285 1120 q 296 1193 285 1174 q 325 1222 307 1211 q 366 1234 344 1234 m 660 1234 q 700 1222 681 1234 q 729 1193 718 1211 q 741 1153 741 1174 q 729 1113 741 1131 q 700 1083 718 1094 q 660 1072 682 1072 q 603 1096 627 1072 q 579 1153 579 1120 q 590 1193 579 1174 q 620 1222 601 1211 q 660 1234 638 1234 z "},"":{"ha":708,"x_min":82,"x_max":627,"o":"m 596 764 l 627 733 l 386 494 l 627 254 l 596 224 l 355 464 l 114 222 l 83 253 l 325 493 l 82 736 l 113 766 l 355 524 l 596 764 z "},"":{"ha":1029,"x_min":74,"x_max":956,"o":"m 810 895 q 918 730 880 830 q 956 500 956 629 q 899 229 956 347 q 743 45 843 111 q 514 -20 642 -20 q 244 66 355 -20 l 131 -102 l 102 -82 l 218 89 q 111 255 149 155 q 74 484 74 355 q 130 755 74 637 q 287 938 186 873 q 515 1003 387 1003 q 785 917 675 1003 l 893 1074 l 920 1055 l 810 895 m 728 846 q 630 944 686 909 q 510 978 574 978 q 353 916 421 978 q 249 743 286 854 q 212 489 212 632 q 282 169 212 299 l 728 846 m 302 136 q 400 39 344 73 q 519 5 456 5 q 676 67 608 5 q 780 240 743 130 q 817 494 817 351 q 747 814 817 684 l 302 136 z "},"":{"ha":947,"x_min":37,"x_max":909,"o":"m 909 956 q 838 942 861 954 q 806 903 814 930 q 798 822 798 876 l 798 404 q 784 233 798 304 q 741 110 771 161 q 638 15 705 50 q 486 -20 570 -20 q 253 56 334 -20 q 190 137 212 94 q 159 241 168 180 q 150 400 150 302 l 150 836 q 141 912 150 888 q 110 945 133 936 q 37 956 87 954 l 37 983 q 215 979 96 979 q 392 983 327 979 l 392 956 q 319 945 342 954 q 288 912 296 936 q 279 836 279 888 l 279 376 q 294 192 279 265 q 357 74 309 119 q 498 29 405 29 q 705 123 646 29 q 765 389 765 218 l 765 822 q 753 901 765 873 q 714 941 741 929 q 639 956 688 954 l 639 983 q 781 979 689 979 q 909 983 864 979 l 909 956 m 572 1072 q 481 1115 522 1098 q 381 1156 441 1133 q 293 1196 321 1179 q 256 1251 256 1220 q 264 1276 256 1263 q 307 1299 279 1299 q 349 1286 328 1299 q 415 1232 376 1268 q 491 1164 454 1196 q 582 1090 528 1131 l 572 1072 z "},"":{"ha":947,"x_min":37,"x_max":909,"o":"m 909 956 q 838 942 861 954 q 806 903 814 930 q 798 822 798 876 l 798 404 q 784 233 798 304 q 741 110 771 161 q 638 15 705 50 q 486 -20 570 -20 q 253 56 334 -20 q 190 137 212 94 q 159 241 168 180 q 150 400 150 302 l 150 836 q 141 912 150 888 q 110 945 133 936 q 37 956 87 954 l 37 983 q 215 979 96 979 q 392 983 327 979 l 392 956 q 319 945 342 954 q 288 912 296 936 q 279 836 279 888 l 279 376 q 294 192 279 265 q 357 74 309 119 q 498 29 405 29 q 705 123 646 29 q 765 389 765 218 l 765 822 q 753 901 765 873 q 714 941 741 929 q 639 956 688 954 l 639 983 q 781 979 689 979 q 909 983 864 979 l 909 956 m 404 1090 q 481 1153 448 1124 q 562 1224 514 1181 q 637 1286 610 1268 q 680 1299 659 1299 q 722 1276 707 1299 q 730 1251 730 1263 q 693 1196 730 1220 q 616 1160 665 1179 q 520 1122 567 1141 q 414 1072 474 1103 l 404 1090 z "},"":{"ha":947,"x_min":37,"x_max":909,"o":"m 909 956 q 838 942 861 954 q 806 903 814 930 q 798 822 798 876 l 798 404 q 784 233 798 304 q 741 110 771 161 q 638 15 705 50 q 486 -20 570 -20 q 253 56 334 -20 q 190 137 212 94 q 159 241 168 180 q 150 400 150 302 l 150 836 q 141 912 150 888 q 110 945 133 936 q 37 956 87 954 l 37 983 q 215 979 96 979 q 392 983 327 979 l 392 956 q 319 945 342 954 q 288 912 296 936 q 279 836 279 888 l 279 376 q 294 192 279 265 q 357 74 309 119 q 498 29 405 29 q 705 123 646 29 q 765 389 765 218 l 765 822 q 753 901 765 873 q 714 941 741 929 q 639 956 688 954 l 639 983 q 781 979 689 979 q 909 983 864 979 l 909 956 m 502 1272 q 603 1169 534 1218 q 762 1089 672 1120 l 754 1069 q 589 1114 670 1087 q 461 1166 509 1141 q 356 1114 422 1141 q 224 1069 291 1087 l 217 1089 q 375 1169 306 1120 q 477 1272 444 1218 l 502 1272 z "},"":{"ha":947,"x_min":37,"x_max":909,"o":"m 909 956 q 838 942 861 954 q 806 903 814 930 q 798 822 798 876 l 798 404 q 784 233 798 304 q 741 110 771 161 q 638 15 705 50 q 486 -20 570 -20 q 253 56 334 -20 q 190 137 212 94 q 159 241 168 180 q 150 400 150 302 l 150 836 q 141 912 150 888 q 110 945 133 936 q 37 956 87 954 l 37 983 q 215 979 96 979 q 392 983 327 979 l 392 956 q 319 945 342 954 q 288 912 296 936 q 279 836 279 888 l 279 376 q 294 192 279 265 q 357 74 309 119 q 498 29 405 29 q 705 123 646 29 q 765 389 765 218 l 765 822 q 753 901 765 873 q 714 941 741 929 q 639 956 688 954 l 639 983 q 781 979 689 979 q 909 983 864 979 l 909 956 m 342 1234 q 381 1222 363 1234 q 411 1193 400 1211 q 422 1153 422 1174 q 411 1113 422 1131 q 381 1083 400 1094 q 342 1072 363 1072 q 285 1096 309 1072 q 261 1153 261 1120 q 272 1193 261 1174 q 301 1222 283 1211 q 342 1234 320 1234 m 636 1234 q 676 1222 657 1234 q 706 1193 694 1211 q 717 1153 717 1174 q 706 1113 717 1131 q 676 1083 694 1094 q 636 1072 658 1072 q 579 1096 603 1072 q 555 1153 555 1120 q 566 1193 555 1174 q 596 1222 577 1211 q 636 1234 614 1234 z "},"":{"ha":821,"x_min":-4,"x_max":817,"o":"m 553 983 q 713 979 632 979 q 817 983 775 979 l 817 956 q 762 921 789 949 q 705 832 736 892 l 488 400 l 488 147 q 496 71 488 95 q 527 39 505 47 q 600 28 550 30 l 600 0 q 424 4 535 4 q 245 0 304 4 l 245 28 q 318 39 296 30 q 350 71 341 47 q 358 147 358 95 l 358 357 l 77 876 q 32 939 51 923 q -4 954 14 954 l -4 983 q 118 979 50 979 q 313 983 253 979 l 313 954 q 215 901 215 954 q 229 852 215 880 l 460 410 l 637 762 q 675 882 675 839 q 645 938 675 921 q 553 956 614 954 l 553 983 m 338 1090 q 415 1153 382 1124 q 495 1224 448 1181 q 571 1286 543 1268 q 613 1299 592 1299 q 656 1276 640 1299 q 663 1251 663 1263 q 627 1196 663 1220 q 550 1160 599 1179 q 454 1122 500 1141 q 347 1072 408 1103 l 338 1090 z "},"":{"ha":806,"x_min":58,"x_max":762,"o":"m 300 147 q 308 71 300 95 q 339 39 317 47 q 412 28 362 30 l 412 0 q 236 4 349 4 q 58 0 117 4 l 58 28 q 131 39 109 30 q 162 71 154 47 q 171 147 171 95 l 171 836 q 162 912 171 888 q 131 945 154 936 q 58 956 109 954 l 58 983 q 236 979 117 979 q 412 983 349 979 l 412 956 q 339 945 362 954 q 308 912 317 936 q 300 836 300 888 l 300 774 q 428 777 446 777 q 612 741 536 777 q 725 645 687 706 q 762 505 762 583 q 729 356 762 427 q 613 238 695 285 q 397 192 532 192 l 300 192 l 300 147 m 383 220 q 572 294 519 220 q 624 497 624 369 q 570 687 624 625 q 393 750 516 750 q 300 749 361 750 l 300 220 l 383 220 z "},"":{"ha":811,"x_min":29,"x_max":753,"o":"m 135 747 q 208 1006 135 925 q 408 1086 280 1086 q 591 1034 527 1086 q 654 888 654 981 q 614 762 654 821 q 518 661 574 703 q 418 602 463 620 q 585 530 509 581 q 707 406 661 480 q 753 243 753 332 q 718 104 753 164 q 626 13 684 45 q 501 -20 568 -20 q 422 -6 461 -20 q 357 34 383 7 q 332 100 332 61 q 351 154 332 134 q 404 175 370 175 q 457 157 436 175 q 478 107 478 138 q 418 35 478 54 q 444 12 422 22 q 490 1 465 1 q 557 23 526 1 q 609 92 589 44 q 629 216 629 140 q 604 374 629 298 q 527 508 579 450 q 399 589 475 565 q 347 568 366 568 q 328 574 336 568 q 319 591 319 581 q 328 611 319 604 q 351 618 336 618 q 401 607 372 618 q 499 725 470 660 q 529 882 529 790 q 494 1018 529 970 q 393 1065 460 1065 q 300 1023 340 1065 q 260 867 260 981 l 260 -16 q 115 4 205 4 q 29 0 73 4 l 29 29 q 112 58 88 29 q 135 151 135 87 l 135 747 z "},"":{"ha":692,"x_min":54,"x_max":690,"o":"m 444 567 q 411 677 444 648 q 315 707 377 707 q 178 657 217 707 q 224 628 205 650 q 243 572 243 605 q 221 517 243 537 q 161 497 199 497 q 106 521 126 497 q 86 583 86 545 q 151 682 86 637 q 235 720 185 705 q 346 734 285 734 q 446 721 403 734 q 514 682 490 707 q 558 607 546 650 q 570 488 570 564 l 570 102 q 579 52 570 67 q 612 36 589 36 q 644 43 629 36 q 675 65 658 51 l 690 41 q 650 13 666 23 q 612 -3 633 3 q 564 -9 591 -9 q 470 24 496 -9 q 444 114 444 58 q 347 19 404 47 q 231 -9 290 -9 q 142 7 182 -9 q 78 59 102 24 q 54 146 54 94 q 80 236 54 199 q 153 301 106 273 q 278 363 199 330 q 345 390 292 368 q 421 433 397 412 q 444 481 444 455 l 444 567 m 444 424 q 410 395 434 408 q 311 345 387 381 q 243 306 271 326 q 196 252 216 286 q 176 168 176 218 q 207 77 176 108 q 288 46 237 46 q 444 151 380 46 l 444 424 m 390 832 q 320 902 352 872 q 240 974 289 931 q 171 1043 191 1017 q 152 1090 152 1068 q 171 1129 152 1114 q 201 1139 184 1139 q 254 1108 231 1139 q 298 1035 274 1082 q 346 944 323 988 q 406 844 370 901 l 390 832 z "},"":{"ha":692,"x_min":54,"x_max":690,"o":"m 444 567 q 411 677 444 648 q 315 707 377 707 q 178 657 217 707 q 224 628 205 650 q 243 572 243 605 q 221 517 243 537 q 161 497 199 497 q 106 521 126 497 q 86 583 86 545 q 151 682 86 637 q 235 720 185 705 q 346 734 285 734 q 446 721 403 734 q 514 682 490 707 q 558 607 546 650 q 570 488 570 564 l 570 102 q 579 52 570 67 q 612 36 589 36 q 644 43 629 36 q 675 65 658 51 l 690 41 q 650 13 666 23 q 612 -3 633 3 q 564 -9 591 -9 q 470 24 496 -9 q 444 114 444 58 q 347 19 404 47 q 231 -9 290 -9 q 142 7 182 -9 q 78 59 102 24 q 54 146 54 94 q 80 236 54 199 q 153 301 106 273 q 278 363 199 330 q 345 390 292 368 q 421 433 397 412 q 444 481 444 455 l 444 567 m 444 424 q 410 395 434 408 q 311 345 387 381 q 243 306 271 326 q 196 252 216 286 q 176 168 176 218 q 207 77 176 108 q 288 46 237 46 q 444 151 380 46 l 444 424 m 256 844 q 307 929 286 891 q 357 1025 328 967 q 407 1108 387 1082 q 460 1139 431 1139 q 490 1129 477 1139 q 509 1090 509 1114 q 490 1043 509 1068 q 430 982 470 1017 q 353 914 390 947 q 271 832 317 881 l 256 844 z "},"":{"ha":692,"x_min":54,"x_max":690,"o":"m 444 567 q 411 677 444 648 q 315 707 377 707 q 178 657 217 707 q 224 628 205 650 q 243 572 243 605 q 221 517 243 537 q 161 497 199 497 q 106 521 126 497 q 86 583 86 545 q 151 682 86 637 q 235 720 185 705 q 346 734 285 734 q 446 721 403 734 q 514 682 490 707 q 558 607 546 650 q 570 488 570 564 l 570 102 q 579 52 570 67 q 612 36 589 36 q 644 43 629 36 q 675 65 658 51 l 690 41 q 650 13 666 23 q 612 -3 633 3 q 564 -9 591 -9 q 470 24 496 -9 q 444 114 444 58 q 347 19 404 47 q 231 -9 290 -9 q 142 7 182 -9 q 78 59 102 24 q 54 146 54 94 q 80 236 54 199 q 153 301 106 273 q 278 363 199 330 q 345 390 292 368 q 421 433 397 412 q 444 481 444 455 l 444 567 m 444 424 q 410 395 434 408 q 311 345 387 381 q 243 306 271 326 q 196 252 216 286 q 176 168 176 218 q 207 77 176 108 q 288 46 237 46 q 444 151 380 46 l 444 424 m 354 1114 q 445 979 382 1043 q 586 875 507 914 l 575 856 q 429 919 500 882 q 314 994 357 957 q 223 919 279 957 q 109 856 167 882 l 97 875 q 238 979 176 914 q 329 1114 300 1043 l 354 1114 z "},"":{"ha":692,"x_min":54,"x_max":690,"o":"m 444 567 q 411 677 444 648 q 315 707 377 707 q 178 657 217 707 q 224 628 205 650 q 243 572 243 605 q 221 517 243 537 q 161 497 199 497 q 106 521 126 497 q 86 583 86 545 q 151 682 86 637 q 235 720 185 705 q 346 734 285 734 q 446 721 403 734 q 514 682 490 707 q 558 607 546 650 q 570 488 570 564 l 570 102 q 579 52 570 67 q 612 36 589 36 q 644 43 629 36 q 675 65 658 51 l 690 41 q 650 13 666 23 q 612 -3 633 3 q 564 -9 591 -9 q 470 24 496 -9 q 444 114 444 58 q 347 19 404 47 q 231 -9 290 -9 q 142 7 182 -9 q 78 59 102 24 q 54 146 54 94 q 80 236 54 199 q 153 301 106 273 q 278 363 199 330 q 345 390 292 368 q 421 433 397 412 q 444 481 444 455 l 444 567 m 444 424 q 410 395 434 408 q 311 345 387 381 q 243 306 271 326 q 196 252 216 286 q 176 168 176 218 q 207 77 176 108 q 288 46 237 46 q 444 151 380 46 l 444 424 m 74 924 q 139 1032 95 997 q 239 1067 182 1067 q 299 1054 274 1067 q 368 1008 324 1042 q 449 975 411 975 q 556 1048 512 975 l 576 1039 q 511 931 555 966 q 412 896 467 896 q 350 909 376 896 q 281 955 325 922 q 201 989 238 989 q 94 914 139 989 l 74 924 z "},"":{"ha":692,"x_min":54,"x_max":690,"o":"m 444 567 q 411 677 444 648 q 315 707 377 707 q 178 657 217 707 q 224 628 205 650 q 243 572 243 605 q 221 517 243 537 q 161 497 199 497 q 106 521 126 497 q 86 583 86 545 q 151 682 86 637 q 235 720 185 705 q 346 734 285 734 q 446 721 403 734 q 514 682 490 707 q 558 607 546 650 q 570 488 570 564 l 570 102 q 579 52 570 67 q 612 36 589 36 q 644 43 629 36 q 675 65 658 51 l 690 41 q 650 13 666 23 q 612 -3 633 3 q 564 -9 591 -9 q 470 24 496 -9 q 444 114 444 58 q 347 19 404 47 q 231 -9 290 -9 q 142 7 182 -9 q 78 59 102 24 q 54 146 54 94 q 80 236 54 199 q 153 301 106 273 q 278 363 199 330 q 345 390 292 368 q 421 433 397 412 q 444 481 444 455 l 444 567 m 444 424 q 410 395 434 408 q 311 345 387 381 q 243 306 271 326 q 196 252 216 286 q 176 168 176 218 q 207 77 176 108 q 288 46 237 46 q 444 151 380 46 l 444 424 m 196 1032 q 236 1021 217 1032 q 266 991 254 1010 q 277 951 277 972 q 266 911 277 930 q 236 882 254 892 q 196 871 218 871 q 139 895 163 871 q 115 951 115 918 q 126 991 115 972 q 156 1021 137 1010 q 196 1032 174 1032 m 490 1032 q 530 1021 511 1032 q 560 991 549 1010 q 571 951 571 972 q 560 911 571 930 q 530 882 549 892 q 490 871 512 871 q 434 895 457 871 q 410 951 410 918 q 421 991 410 972 q 450 1021 432 1010 q 490 1032 469 1032 z "},"":{"ha":692,"x_min":54,"x_max":690,"o":"m 444 567 q 411 677 444 648 q 315 707 377 707 q 178 657 217 707 q 224 628 205 650 q 243 572 243 605 q 221 517 243 537 q 161 497 199 497 q 106 521 126 497 q 86 583 86 545 q 151 682 86 637 q 235 720 185 705 q 346 734 285 734 q 446 721 403 734 q 514 682 490 707 q 558 607 546 650 q 570 488 570 564 l 570 102 q 579 52 570 67 q 612 36 589 36 q 644 43 629 36 q 675 65 658 51 l 690 41 q 650 13 666 23 q 612 -3 633 3 q 564 -9 591 -9 q 470 24 496 -9 q 444 114 444 58 q 347 19 404 47 q 231 -9 290 -9 q 142 7 182 -9 q 78 59 102 24 q 54 146 54 94 q 80 236 54 199 q 153 301 106 273 q 278 363 199 330 q 345 390 292 368 q 421 433 397 412 q 444 481 444 455 l 444 567 m 444 424 q 410 395 434 408 q 311 345 387 381 q 243 306 271 326 q 196 252 216 286 q 176 168 176 218 q 207 77 176 108 q 288 46 237 46 q 444 151 380 46 l 444 424 m 342 1099 q 409 1083 378 1099 q 458 1039 440 1067 q 477 972 477 1010 q 458 905 477 934 q 409 860 440 876 q 342 844 378 844 q 276 860 306 844 q 227 905 245 876 q 209 972 209 934 q 227 1039 209 1010 q 276 1083 245 1067 q 342 1099 307 1099 m 342 1069 q 297 1058 319 1069 q 261 1024 275 1046 q 248 971 248 1002 q 261 918 248 940 q 297 885 275 896 q 342 873 319 873 q 388 885 366 873 q 424 918 410 896 q 438 971 438 940 q 424 1024 438 1002 q 388 1058 410 1046 q 342 1069 366 1069 z "},"":{"ha":1031,"x_min":57,"x_max":971,"o":"m 567 429 q 562 340 562 395 q 590 180 562 249 q 662 75 617 112 q 758 39 707 39 q 860 71 816 39 q 935 178 904 103 l 962 167 q 916 76 947 118 q 837 7 884 33 q 730 -20 789 -20 q 570 26 635 -20 q 473 158 505 72 q 235 -20 395 -20 q 148 -4 188 -20 q 82 46 107 12 q 57 134 57 81 q 83 230 57 190 q 154 300 109 271 q 273 361 200 329 q 341 390 288 367 q 418 435 395 414 q 440 481 440 456 l 440 567 q 304 707 440 707 q 229 695 266 707 q 171 657 193 684 q 214 633 198 651 q 229 586 229 614 q 207 532 229 552 q 153 511 185 511 q 100 532 121 511 q 79 585 79 553 q 144 685 79 640 q 335 734 217 734 q 453 714 404 734 q 529 646 501 694 q 725 734 602 734 q 907 659 843 734 q 971 429 971 583 l 567 429 m 838 456 q 827 583 840 526 q 787 674 814 640 q 720 708 760 708 q 648 681 680 708 q 593 597 615 654 q 564 456 571 541 l 838 456 m 440 424 q 328 353 416 395 q 217 272 255 317 q 179 157 179 227 q 210 64 179 93 q 288 36 241 36 q 440 151 384 36 l 440 424 z "},"":{"ha":675,"x_min":64,"x_max":627,"o":"m 627 174 q 578 80 611 124 q 493 8 546 37 q 371 -20 441 -20 q 214 25 284 -20 q 104 153 144 70 q 64 349 64 237 q 105 549 64 461 q 220 686 146 637 q 387 734 294 734 q 549 690 481 734 q 614 583 614 646 q 593 526 614 547 q 541 505 572 505 q 486 524 508 505 q 464 575 464 543 q 480 625 464 605 q 522 652 497 645 q 473 693 509 677 q 397 710 437 710 q 302 677 347 710 q 228 569 257 645 q 199 370 199 493 q 254 118 199 197 q 399 40 310 40 q 512 75 458 40 q 600 183 566 109 l 627 174 m 332 -100 q 414 -90 373 -90 q 476 -107 453 -90 q 498 -155 498 -125 q 474 -216 498 -192 q 414 -250 450 -239 q 341 -261 378 -261 q 226 -245 270 -261 l 232 -221 q 284 -225 260 -225 q 372 -211 334 -225 q 410 -163 410 -196 q 351 -123 410 -123 q 283 -134 311 -123 l 330 8 l 368 8 l 332 -100 z "},"":{"ha":703,"x_min":64,"x_max":643,"o":"m 643 167 q 591 76 627 118 q 502 7 555 33 q 383 -20 449 -20 q 212 25 284 -20 q 102 152 140 71 q 64 340 64 234 q 102 550 64 461 q 212 687 141 639 q 378 734 283 734 q 570 659 503 734 q 637 429 637 583 l 203 429 q 199 340 199 393 q 229 180 199 249 q 308 75 259 112 q 411 39 357 39 q 615 178 551 39 l 643 167 m 504 456 q 492 583 507 525 q 448 674 478 640 q 372 708 417 708 q 294 681 330 708 q 233 596 258 653 q 201 456 208 540 l 504 456 m 425 832 q 355 902 387 872 q 275 974 323 931 q 205 1043 226 1017 q 186 1090 186 1068 q 205 1129 186 1114 q 235 1139 218 1139 q 289 1108 265 1139 q 333 1035 309 1082 q 381 944 357 988 q 440 844 404 901 l 425 832 z "},"":{"ha":703,"x_min":64,"x_max":643,"o":"m 643 167 q 591 76 627 118 q 502 7 555 33 q 383 -20 449 -20 q 212 25 284 -20 q 102 152 140 71 q 64 340 64 234 q 102 550 64 461 q 212 687 141 639 q 378 734 283 734 q 570 659 503 734 q 637 429 637 583 l 203 429 q 199 340 199 393 q 229 180 199 249 q 308 75 259 112 q 411 39 357 39 q 615 178 551 39 l 643 167 m 504 456 q 492 583 507 525 q 448 674 478 640 q 372 708 417 708 q 294 681 330 708 q 233 596 258 653 q 201 456 208 540 l 504 456 m 290 844 q 341 929 320 891 q 392 1025 362 967 q 441 1108 422 1082 q 494 1139 465 1139 q 525 1129 511 1139 q 544 1090 544 1114 q 525 1043 544 1068 q 465 982 505 1017 q 388 914 425 947 q 305 832 351 881 l 290 844 z "},"":{"ha":703,"x_min":64,"x_max":643,"o":"m 643 167 q 591 76 627 118 q 502 7 555 33 q 383 -20 449 -20 q 212 25 284 -20 q 102 152 140 71 q 64 340 64 234 q 102 550 64 461 q 212 687 141 639 q 378 734 283 734 q 570 659 503 734 q 637 429 637 583 l 203 429 q 199 340 199 393 q 229 180 199 249 q 308 75 259 112 q 411 39 357 39 q 615 178 551 39 l 643 167 m 504 456 q 492 583 507 525 q 448 674 478 640 q 372 708 417 708 q 294 681 330 708 q 233 596 258 653 q 201 456 208 540 l 504 456 m 389 1114 q 479 979 417 1043 q 621 875 541 914 l 610 856 q 463 919 534 882 q 349 994 392 957 q 257 919 313 957 q 143 856 201 882 l 132 875 q 273 979 211 914 q 363 1114 335 1043 l 389 1114 z "},"":{"ha":703,"x_min":64,"x_max":643,"o":"m 643 167 q 591 76 627 118 q 502 7 555 33 q 383 -20 449 -20 q 212 25 284 -20 q 102 152 140 71 q 64 340 64 234 q 102 550 64 461 q 212 687 141 639 q 378 734 283 734 q 570 659 503 734 q 637 429 637 583 l 203 429 q 199 340 199 393 q 229 180 199 249 q 308 75 259 112 q 411 39 357 39 q 615 178 551 39 l 643 167 m 504 456 q 492 583 507 525 q 448 674 478 640 q 372 708 417 708 q 294 681 330 708 q 233 596 258 653 q 201 456 208 540 l 504 456 m 231 1032 q 270 1021 252 1032 q 300 991 289 1010 q 311 951 311 972 q 300 911 311 930 q 271 882 289 892 q 231 871 252 871 q 174 895 197 871 q 150 951 150 918 q 161 991 150 972 q 190 1021 172 1010 q 231 1032 209 1032 m 525 1032 q 565 1021 546 1032 q 594 991 583 1010 q 606 951 606 972 q 594 911 606 930 q 565 882 583 892 q 525 871 547 871 q 468 895 492 871 q 445 951 445 918 q 456 991 445 972 q 485 1021 467 1010 q 525 1032 503 1032 z "},"":{"ha":407,"x_min":6,"x_max":376,"o":"m 271 129 q 281 68 271 90 q 314 38 292 47 q 376 29 337 29 l 376 0 q 208 5 249 5 q 40 0 168 5 l 40 29 q 102 38 79 29 q 135 68 125 47 q 146 129 146 90 l 146 564 q 122 657 146 628 q 40 686 99 686 l 40 715 q 126 711 83 711 q 271 730 214 711 l 271 129 m 244 832 q 175 902 206 872 q 94 974 143 931 q 25 1043 45 1017 q 6 1090 6 1068 q 25 1129 6 1114 q 55 1139 38 1139 q 109 1108 85 1139 q 153 1035 128 1082 q 200 944 177 988 q 260 844 224 901 l 244 832 z "},"":{"ha":407,"x_min":40,"x_max":376,"o":"m 271 129 q 281 68 271 90 q 314 38 292 47 q 376 29 337 29 l 376 0 q 208 5 249 5 q 40 0 168 5 l 40 29 q 102 38 79 29 q 135 68 125 47 q 146 129 146 90 l 146 564 q 122 657 146 628 q 40 686 99 686 l 40 715 q 126 711 83 711 q 271 730 214 711 l 271 129 m 110 844 q 161 929 140 891 q 212 1025 182 967 q 261 1108 241 1082 q 314 1139 285 1139 q 345 1129 331 1139 q 363 1090 363 1114 q 345 1043 363 1068 q 284 982 324 1017 q 208 914 244 947 q 125 832 171 881 l 110 844 z "},"":{"ha":407,"x_min":-49,"x_max":440,"o":"m 271 129 q 281 68 271 90 q 314 38 292 47 q 376 29 337 29 l 376 0 q 208 5 249 5 q 40 0 168 5 l 40 29 q 102 38 79 29 q 135 68 125 47 q 146 129 146 90 l 146 564 q 122 657 146 628 q 40 686 99 686 l 40 715 q 126 711 83 711 q 271 730 214 711 l 271 129 m 208 1114 q 299 979 237 1043 q 440 875 361 914 l 429 856 q 283 919 354 882 q 168 994 212 957 q 77 919 133 957 q -37 856 21 882 l -49 875 q 93 979 31 914 q 183 1114 155 1043 l 208 1114 z "},"":{"ha":407,"x_min":-31,"x_max":425,"o":"m 271 129 q 281 68 271 90 q 314 38 292 47 q 376 29 337 29 l 376 0 q 208 5 249 5 q 40 0 168 5 l 40 29 q 102 38 79 29 q 135 68 125 47 q 146 129 146 90 l 146 564 q 122 657 146 628 q 40 686 99 686 l 40 715 q 126 711 83 711 q 271 730 214 711 l 271 129 m 50 1032 q 90 1021 71 1032 q 120 991 109 1010 q 131 951 131 972 q 120 911 131 930 q 90 882 109 892 q 50 871 72 871 q -7 895 17 871 q -31 951 -31 918 q -20 991 -31 972 q 10 1021 -9 1010 q 50 1032 28 1032 m 345 1032 q 384 1021 366 1032 q 414 991 403 1010 q 425 951 425 972 q 414 911 425 930 q 385 882 403 892 q 345 871 366 871 q 288 895 311 871 q 264 951 264 918 q 275 991 264 972 q 304 1021 286 1010 q 345 1032 323 1032 z "},"":{"ha":770,"x_min":64,"x_max":692,"o":"m 433 954 q 692 419 692 758 q 648 177 692 276 q 532 29 604 78 q 375 -20 460 -20 q 213 23 283 -20 q 103 149 142 65 q 64 354 64 233 q 99 537 64 450 q 203 680 134 625 q 367 734 271 734 q 533 663 479 734 q 385 931 493 827 l 135 808 l 122 833 l 363 951 q 180 1063 296 1009 l 192 1086 q 408 972 316 1038 l 604 1068 l 616 1043 l 433 954 m 368 8 q 506 103 452 8 q 559 419 559 198 q 557 508 559 465 q 494 664 543 622 q 376 705 444 705 q 247 621 296 705 q 199 351 199 537 q 221 155 199 232 q 282 43 244 79 q 368 8 321 8 z "},"":{"ha":829,"x_min":40,"x_max":808,"o":"m 271 567 q 367 695 305 655 q 507 734 429 734 q 654 682 604 734 q 691 612 680 654 q 703 500 703 570 l 703 129 q 713 68 703 90 q 746 38 724 47 q 808 29 769 29 l 808 0 q 642 5 681 5 q 486 0 603 5 l 486 29 q 540 38 521 29 q 569 68 559 47 q 578 129 578 90 l 578 530 q 570 614 578 581 q 537 669 562 648 q 465 690 513 690 q 364 657 408 690 q 295 566 319 624 q 271 437 271 508 l 271 129 q 280 68 271 90 q 309 38 289 47 q 363 29 328 29 l 363 0 q 207 5 246 5 q 40 0 168 5 l 40 29 q 102 38 79 29 q 135 68 125 47 q 146 129 146 90 l 146 564 q 122 657 146 628 q 40 686 99 686 l 40 715 q 126 711 83 711 q 271 730 214 711 l 271 567 m 157 924 q 222 1032 178 997 q 323 1067 266 1067 q 382 1054 357 1067 q 451 1008 408 1042 q 532 975 494 975 q 640 1048 595 975 l 659 1039 q 594 931 638 966 q 495 896 551 896 q 434 909 459 896 q 365 955 408 922 q 284 989 321 989 q 177 914 222 989 l 157 924 z "},"":{"ha":761,"x_min":65,"x_max":696,"o":"m 380 734 q 543 694 472 734 q 655 570 614 654 q 696 357 696 486 q 655 144 696 228 q 543 20 614 60 q 380 -20 472 -20 q 218 20 289 -20 q 106 144 147 60 q 65 357 65 228 q 106 570 65 486 q 218 694 147 654 q 380 734 289 734 m 380 707 q 249 621 297 707 q 200 357 200 536 q 249 93 200 178 q 380 8 297 8 q 512 93 464 8 q 561 357 561 178 q 512 621 561 536 q 380 707 464 707 m 433 832 q 363 902 395 872 q 283 974 332 931 q 214 1043 234 1017 q 195 1090 195 1068 q 214 1129 195 1114 q 243 1139 227 1139 q 297 1108 273 1139 q 341 1035 317 1082 q 389 944 366 988 q 448 844 412 901 l 433 832 z "},"":{"ha":761,"x_min":65,"x_max":696,"o":"m 380 734 q 543 694 472 734 q 655 570 614 654 q 696 357 696 486 q 655 144 696 228 q 543 20 614 60 q 380 -20 472 -20 q 218 20 289 -20 q 106 144 147 60 q 65 357 65 228 q 106 570 65 486 q 218 694 147 654 q 380 734 289 734 m 380 707 q 249 621 297 707 q 200 357 200 536 q 249 93 200 178 q 380 8 297 8 q 512 93 464 8 q 561 357 561 178 q 512 621 561 536 q 380 707 464 707 m 298 844 q 349 929 328 891 q 400 1025 370 967 q 450 1108 430 1082 q 503 1139 473 1139 q 533 1129 519 1139 q 552 1090 552 1114 q 533 1043 552 1068 q 473 982 513 1017 q 396 914 433 947 q 313 832 359 881 l 298 844 z "},"":{"ha":761,"x_min":65,"x_max":696,"o":"m 380 734 q 543 694 472 734 q 655 570 614 654 q 696 357 696 486 q 655 144 696 228 q 543 20 614 60 q 380 -20 472 -20 q 218 20 289 -20 q 106 144 147 60 q 65 357 65 228 q 106 570 65 486 q 218 694 147 654 q 380 734 289 734 m 380 707 q 249 621 297 707 q 200 357 200 536 q 249 93 200 178 q 380 8 297 8 q 512 93 464 8 q 561 357 561 178 q 512 621 561 536 q 380 707 464 707 m 397 1114 q 487 979 425 1043 q 629 875 549 914 l 618 856 q 471 919 543 882 q 357 994 400 957 q 266 919 321 957 q 151 856 210 882 l 140 875 q 281 979 219 914 q 372 1114 343 1043 l 397 1114 z "},"":{"ha":761,"x_min":65,"x_max":696,"o":"m 380 734 q 543 694 472 734 q 655 570 614 654 q 696 357 696 486 q 655 144 696 228 q 543 20 614 60 q 380 -20 472 -20 q 218 20 289 -20 q 106 144 147 60 q 65 357 65 228 q 106 570 65 486 q 218 694 147 654 q 380 734 289 734 m 380 707 q 249 621 297 707 q 200 357 200 536 q 249 93 200 178 q 380 8 297 8 q 512 93 464 8 q 561 357 561 178 q 512 621 561 536 q 380 707 464 707 m 117 924 q 181 1032 138 997 q 282 1067 225 1067 q 342 1054 317 1067 q 410 1008 367 1042 q 492 975 454 975 q 599 1048 555 975 l 618 1039 q 554 931 597 966 q 454 896 510 896 q 393 909 418 896 q 324 955 368 922 q 243 989 281 989 q 136 914 182 989 l 117 924 z "},"":{"ha":761,"x_min":65,"x_max":696,"o":"m 380 734 q 543 694 472 734 q 655 570 614 654 q 696 357 696 486 q 655 144 696 228 q 543 20 614 60 q 380 -20 472 -20 q 218 20 289 -20 q 106 144 147 60 q 65 357 65 228 q 106 570 65 486 q 218 694 147 654 q 380 734 289 734 m 380 707 q 249 621 297 707 q 200 357 200 536 q 249 93 200 178 q 380 8 297 8 q 512 93 464 8 q 561 357 561 178 q 512 621 561 536 q 380 707 464 707 m 239 1032 q 278 1021 260 1032 q 308 991 297 1010 q 319 951 319 972 q 308 911 319 930 q 279 882 297 892 q 239 871 260 871 q 182 895 205 871 q 158 951 158 918 q 169 991 158 972 q 198 1021 180 1010 q 239 1032 217 1032 m 533 1032 q 573 1021 554 1032 q 603 991 591 1010 q 614 951 614 972 q 603 911 614 930 q 573 882 591 892 q 533 871 555 871 q 476 895 500 871 q 453 951 453 918 q 464 991 453 972 q 493 1021 475 1010 q 533 1032 511 1032 z "},"":{"ha":901,"x_min":102,"x_max":798,"o":"m 450 770 q 505 747 482 770 q 528 693 528 724 q 505 638 528 661 q 450 616 483 616 q 396 638 418 616 q 374 693 374 661 q 396 747 374 724 q 450 770 419 770 m 102 472 l 102 514 l 798 514 l 798 472 l 102 472 m 450 370 q 505 347 482 370 q 528 293 528 325 q 505 238 528 261 q 450 215 482 215 q 396 238 419 215 q 374 293 374 261 q 396 347 374 325 q 450 370 419 370 z "},"":{"ha":760,"x_min":61,"x_max":701,"o":"m 601 649 q 696 357 696 551 q 655 144 696 228 q 543 20 614 60 q 380 -20 472 -20 q 187 41 265 -20 l 90 -102 l 61 -82 l 161 64 q 65 357 65 162 q 106 570 65 486 q 218 694 147 654 q 380 734 289 734 q 576 671 498 734 l 675 815 l 701 798 l 601 649 m 520 606 q 380 707 474 707 q 249 621 297 707 q 200 357 200 536 q 228 143 200 227 l 520 606 m 243 104 q 380 8 290 8 q 512 93 464 8 q 561 357 561 178 q 534 568 561 485 l 243 104 z "},"":{"ha":807,"x_min":22,"x_max":777,"o":"m 671 150 q 694 57 671 85 q 777 28 718 28 l 777 -1 q 690 3 733 3 q 546 -17 601 3 l 546 147 q 451 21 512 62 q 318 -20 391 -20 q 174 33 224 -20 q 138 104 149 60 q 127 215 127 147 l 127 564 q 104 657 127 628 q 22 686 81 686 l 22 715 q 109 711 66 711 q 253 730 196 711 l 253 184 q 259 99 253 132 q 288 46 265 66 q 358 25 311 25 q 454 58 412 25 q 522 149 497 92 q 546 277 546 207 l 546 564 q 523 657 546 628 q 440 686 499 686 l 440 715 q 526 711 484 711 q 671 730 614 711 l 671 150 m 437 832 q 367 902 399 872 q 287 974 336 931 q 218 1043 238 1017 q 199 1090 199 1068 q 218 1129 199 1114 q 248 1139 231 1139 q 301 1108 277 1139 q 345 1035 321 1082 q 393 944 370 988 q 452 844 416 901 l 437 832 z "},"":{"ha":807,"x_min":22,"x_max":777,"o":"m 671 150 q 694 57 671 85 q 777 28 718 28 l 777 -1 q 690 3 733 3 q 546 -17 601 3 l 546 147 q 451 21 512 62 q 318 -20 391 -20 q 174 33 224 -20 q 138 104 149 60 q 127 215 127 147 l 127 564 q 104 657 127 628 q 22 686 81 686 l 22 715 q 109 711 66 711 q 253 730 196 711 l 253 184 q 259 99 253 132 q 288 46 265 66 q 358 25 311 25 q 454 58 412 25 q 522 149 497 92 q 546 277 546 207 l 546 564 q 523 657 546 628 q 440 686 499 686 l 440 715 q 526 711 484 711 q 671 730 614 711 l 671 150 m 302 844 q 353 929 332 891 q 404 1025 374 967 q 454 1108 434 1082 q 507 1139 477 1139 q 537 1129 524 1139 q 556 1090 556 1114 q 537 1043 556 1068 q 477 982 517 1017 q 400 914 437 947 q 317 832 363 881 l 302 844 z "},"":{"ha":807,"x_min":22,"x_max":777,"o":"m 671 150 q 694 57 671 85 q 777 28 718 28 l 777 -1 q 690 3 733 3 q 546 -17 601 3 l 546 147 q 451 21 512 62 q 318 -20 391 -20 q 174 33 224 -20 q 138 104 149 60 q 127 215 127 147 l 127 564 q 104 657 127 628 q 22 686 81 686 l 22 715 q 109 711 66 711 q 253 730 196 711 l 253 184 q 259 99 253 132 q 288 46 265 66 q 358 25 311 25 q 454 58 412 25 q 522 149 497 92 q 546 277 546 207 l 546 564 q 523 657 546 628 q 440 686 499 686 l 440 715 q 526 711 484 711 q 671 730 614 711 l 671 150 m 401 1114 q 491 979 429 1043 q 633 875 553 914 l 622 856 q 475 919 547 882 q 361 994 404 957 q 270 919 326 957 q 155 856 214 882 l 144 875 q 285 979 223 914 q 376 1114 347 1043 l 401 1114 z "},"":{"ha":807,"x_min":22,"x_max":777,"o":"m 671 150 q 694 57 671 85 q 777 28 718 28 l 777 -1 q 690 3 733 3 q 546 -17 601 3 l 546 147 q 451 21 512 62 q 318 -20 391 -20 q 174 33 224 -20 q 138 104 149 60 q 127 215 127 147 l 127 564 q 104 657 127 628 q 22 686 81 686 l 22 715 q 109 711 66 711 q 253 730 196 711 l 253 184 q 259 99 253 132 q 288 46 265 66 q 358 25 311 25 q 454 58 412 25 q 522 149 497 92 q 546 277 546 207 l 546 564 q 523 657 546 628 q 440 686 499 686 l 440 715 q 526 711 484 711 q 671 730 614 711 l 671 150 m 243 1032 q 282 1021 264 1032 q 312 991 301 1010 q 323 951 323 972 q 312 911 323 930 q 283 882 301 892 q 243 871 264 871 q 186 895 210 871 q 162 951 162 918 q 173 991 162 972 q 202 1021 184 1010 q 243 1032 221 1032 m 537 1032 q 577 1021 558 1032 q 607 991 595 1010 q 618 951 618 972 q 607 911 618 930 q 577 882 595 892 q 537 871 559 871 q 480 895 504 871 q 457 951 457 918 q 468 991 457 972 q 497 1021 479 1010 q 537 1032 515 1032 z "},"":{"ha":700,"x_min":-5,"x_max":686,"o":"m 464 715 q 581 711 537 711 q 686 715 642 711 l 686 688 q 637 663 659 684 q 596 590 615 641 l 368 -7 l 321 -127 q 261 -225 294 -196 q 153 -261 222 -261 q 85 -239 111 -261 q 58 -178 58 -217 q 78 -124 58 -144 q 132 -104 98 -104 q 183 -121 163 -104 q 203 -170 203 -138 q 165 -232 203 -211 q 174 -233 168 -233 q 292 -125 250 -233 l 341 2 l 89 608 q 42 671 65 656 q -5 686 18 686 l -5 715 q 131 707 60 707 q 311 715 191 707 l 311 686 q 258 684 277 686 q 227 671 239 682 q 214 638 214 661 q 232 570 214 613 l 399 155 l 553 557 q 568 621 568 597 q 543 669 568 653 q 464 688 518 684 l 464 715 m 267 844 q 317 929 296 891 q 368 1025 338 967 q 418 1108 398 1082 q 471 1139 441 1139 q 501 1129 488 1139 q 520 1090 520 1114 q 501 1043 520 1068 q 441 982 481 1017 q 364 914 401 947 q 281 832 328 881 l 267 844 z "},"":{"ha":777,"x_min":0,"x_max":711,"o":"m 231 584 q 320 695 262 656 q 453 734 378 734 q 586 694 527 734 q 678 576 644 654 q 711 390 711 498 q 677 190 711 283 q 572 39 644 97 q 393 -20 500 -20 q 297 1 340 -20 q 231 56 254 22 l 231 -122 q 264 -200 231 -178 q 364 -222 297 -222 l 364 -252 q 285 -248 347 -251 q 164 -245 223 -245 q 73 -248 120 -245 q 14 -252 26 -251 l 14 -222 q 68 -215 48 -222 q 97 -188 87 -207 q 106 -136 106 -170 l 106 921 q 82 1014 106 985 q 0 1043 59 1043 l 0 1072 q 86 1068 44 1068 q 231 1088 176 1068 l 231 584 m 231 102 q 288 36 251 60 q 378 12 325 12 q 576 371 576 12 q 415 693 576 693 q 302 648 352 693 q 231 517 252 603 l 231 102 z "},"":{"ha":700,"x_min":-5,"x_max":686,"o":"m 464 715 q 581 711 537 711 q 686 715 642 711 l 686 688 q 637 663 659 684 q 596 590 615 641 l 368 -7 l 321 -127 q 261 -225 294 -196 q 153 -261 222 -261 q 85 -239 111 -261 q 58 -178 58 -217 q 78 -124 58 -144 q 132 -104 98 -104 q 183 -121 163 -104 q 203 -170 203 -138 q 165 -232 203 -211 q 174 -233 168 -233 q 292 -125 250 -233 l 341 2 l 89 608 q 42 671 65 656 q -5 686 18 686 l -5 715 q 131 707 60 707 q 311 715 191 707 l 311 686 q 258 684 277 686 q 227 671 239 682 q 214 638 214 661 q 232 570 214 613 l 399 155 l 553 557 q 568 621 568 597 q 543 669 568 653 q 464 688 518 684 l 464 715 m 207 1032 q 247 1021 228 1032 q 276 991 265 1010 q 288 951 288 972 q 276 911 288 930 q 247 882 265 892 q 207 871 229 871 q 150 895 174 871 q 126 951 126 918 q 137 991 126 972 q 166 1021 148 1010 q 207 1032 185 1032 m 501 1032 q 541 1021 522 1032 q 571 991 559 1010 q 582 951 582 972 q 571 911 582 930 q 541 882 559 892 q 501 871 523 871 q 445 895 468 871 q 421 951 421 918 q 432 991 421 972 q 461 1021 443 1010 q 501 1032 479 1032 z "},"":{"ha":875,"x_min":-9,"x_max":884,"o":"m 787 117 q 884 28 821 31 l 884 0 q 734 4 827 4 q 557 0 616 4 l 557 28 q 632 41 610 30 q 655 79 655 52 q 639 144 655 103 l 553 372 l 218 372 l 161 225 q 134 111 134 155 q 163 48 134 67 q 254 28 193 29 l 254 0 q 94 4 175 4 q -9 0 32 4 l -9 28 q 100 149 60 43 l 427 990 l 449 990 l 787 117 m 388 814 l 229 400 l 543 400 l 388 814 m 184 1137 l 184 1173 l 673 1173 l 673 1137 l 184 1137 z "},"":{"ha":692,"x_min":54,"x_max":690,"o":"m 444 567 q 411 677 444 648 q 315 707 377 707 q 178 657 217 707 q 224 628 205 650 q 243 572 243 605 q 221 517 243 537 q 161 497 199 497 q 106 521 126 497 q 86 583 86 545 q 151 682 86 637 q 235 720 185 705 q 346 734 285 734 q 446 721 403 734 q 514 682 490 707 q 558 607 546 650 q 570 488 570 564 l 570 102 q 579 52 570 67 q 612 36 589 36 q 644 43 629 36 q 675 65 658 51 l 690 41 q 650 13 666 23 q 612 -3 633 3 q 564 -9 591 -9 q 470 24 496 -9 q 444 114 444 58 q 347 19 404 47 q 231 -9 290 -9 q 142 7 182 -9 q 78 59 102 24 q 54 146 54 94 q 80 236 54 199 q 153 301 106 273 q 278 363 199 330 q 345 390 292 368 q 421 433 397 412 q 444 481 444 455 l 444 567 m 444 424 q 410 395 434 408 q 311 345 387 381 q 243 306 271 326 q 196 252 216 286 q 176 168 176 218 q 207 77 176 108 q 288 46 237 46 q 444 151 380 46 l 444 424 m 121 954 l 121 989 l 554 989 l 554 954 l 121 954 z "},"":{"ha":875,"x_min":-9,"x_max":884,"o":"m 787 117 q 884 28 821 31 l 884 0 q 734 4 827 4 q 557 0 616 4 l 557 28 q 632 41 610 30 q 655 79 655 52 q 639 144 655 103 l 553 372 l 218 372 l 161 225 q 134 111 134 155 q 163 48 134 67 q 254 28 193 29 l 254 0 q 94 4 175 4 q -9 0 32 4 l -9 28 q 100 149 60 43 l 427 990 l 449 990 l 787 117 m 388 814 l 229 400 l 543 400 l 388 814 m 705 1247 q 595 1134 665 1181 q 429 1086 526 1086 q 263 1134 333 1086 q 153 1247 193 1181 l 171 1261 q 273 1198 209 1224 q 429 1173 338 1173 q 585 1199 520 1173 q 689 1263 650 1225 l 705 1247 z "},"":{"ha":692,"x_min":54,"x_max":690,"o":"m 444 567 q 411 677 444 648 q 315 707 377 707 q 178 657 217 707 q 224 628 205 650 q 243 572 243 605 q 221 517 243 537 q 161 497 199 497 q 106 521 126 497 q 86 583 86 545 q 151 682 86 637 q 235 720 185 705 q 346 734 285 734 q 446 721 403 734 q 514 682 490 707 q 558 607 546 650 q 570 488 570 564 l 570 102 q 579 52 570 67 q 612 36 589 36 q 644 43 629 36 q 675 65 658 51 l 690 41 q 650 13 666 23 q 612 -3 633 3 q 564 -9 591 -9 q 470 24 496 -9 q 444 114 444 58 q 347 19 404 47 q 231 -9 290 -9 q 142 7 182 -9 q 78 59 102 24 q 54 146 54 94 q 80 236 54 199 q 153 301 106 273 q 278 363 199 330 q 345 390 292 368 q 421 433 397 412 q 444 481 444 455 l 444 567 m 444 424 q 410 395 434 408 q 311 345 387 381 q 243 306 271 326 q 196 252 216 286 q 176 168 176 218 q 207 77 176 108 q 288 46 237 46 q 444 151 380 46 l 444 424 m 589 1082 q 491 939 555 999 q 340 879 428 879 q 190 939 254 879 q 92 1082 127 999 l 115 1095 q 340 961 197 961 q 477 999 422 961 q 566 1095 532 1038 l 589 1082 z "},"":{"ha":875,"x_min":-9,"x_max":888,"o":"m 787 117 q 884 28 821 31 l 884 0 q 734 4 827 4 q 557 0 616 4 l 557 28 q 632 41 610 30 q 655 79 655 52 q 639 144 655 103 l 553 372 l 218 372 l 161 225 q 134 111 134 155 q 163 48 134 67 q 254 28 193 29 l 254 0 q 94 4 175 4 q -9 0 32 4 l -9 28 q 100 149 60 43 l 427 990 l 449 990 l 787 117 m 388 814 l 229 400 l 543 400 l 388 814 m 867 4 q 758 -54 791 -16 q 724 -134 724 -92 q 740 -178 724 -161 q 783 -195 755 -195 q 831 -181 808 -195 q 868 -149 854 -168 l 888 -167 q 732 -261 827 -261 q 652 -236 682 -261 q 622 -171 622 -212 q 672 -71 622 -117 q 814 4 722 -26 l 867 4 z "},"":{"ha":692,"x_min":54,"x_max":690,"o":"m 444 567 q 411 677 444 648 q 315 707 377 707 q 178 657 217 707 q 224 628 205 650 q 243 572 243 605 q 221 517 243 537 q 161 497 199 497 q 106 521 126 497 q 86 583 86 545 q 151 682 86 637 q 235 720 185 705 q 346 734 285 734 q 446 721 403 734 q 514 682 490 707 q 558 607 546 650 q 570 488 570 564 l 570 102 q 579 52 570 67 q 612 36 589 36 q 644 43 629 36 q 675 65 658 51 l 690 41 q 650 13 666 23 q 612 -3 633 3 q 564 -9 591 -9 q 470 24 496 -9 q 444 114 444 58 q 347 19 404 47 q 231 -9 290 -9 q 142 7 182 -9 q 78 59 102 24 q 54 146 54 94 q 80 236 54 199 q 153 301 106 273 q 278 363 199 330 q 345 390 292 368 q 421 433 397 412 q 444 481 444 455 l 444 567 m 444 424 q 410 395 434 408 q 311 345 387 381 q 243 306 271 326 q 196 252 216 286 q 176 168 176 218 q 207 77 176 108 q 288 46 237 46 q 444 151 380 46 l 444 424 m 631 4 q 617 -3 627 1 q 496 -134 496 -54 q 512 -178 496 -161 q 556 -195 528 -195 q 604 -181 581 -195 q 641 -149 627 -168 l 661 -167 q 505 -261 600 -261 q 425 -236 455 -261 q 395 -171 395 -212 q 445 -71 395 -117 q 587 4 494 -26 l 631 4 z "},"":{"ha":956,"x_min":74,"x_max":865,"o":"m 833 0 q 822 63 830 43 q 800 82 814 82 q 771 71 789 82 q 695 23 730 41 q 615 -8 660 4 q 514 -20 570 -20 q 282 40 382 -20 q 129 213 183 100 q 74 484 74 327 q 130 755 74 637 q 287 938 186 873 q 515 1003 387 1003 q 657 979 598 1003 q 771 913 715 956 q 798 901 786 901 q 833 983 827 901 l 865 983 q 860 664 860 893 l 828 664 q 809 761 818 726 q 789 820 801 795 q 758 869 778 844 q 652 951 716 924 q 513 978 587 978 q 355 918 422 978 q 250 748 287 859 q 212 489 212 637 q 253 229 212 338 q 365 64 294 121 q 526 8 436 8 q 661 35 595 8 q 764 114 727 61 q 804 196 792 152 q 828 334 817 241 l 860 334 q 865 0 860 94 l 833 0 m 420 1090 q 497 1153 465 1124 q 578 1224 530 1181 q 654 1286 626 1268 q 696 1299 675 1299 q 739 1276 723 1299 q 746 1251 746 1263 q 709 1196 746 1220 q 632 1160 682 1179 q 537 1122 583 1141 q 430 1072 490 1103 l 420 1090 z "},"":{"ha":675,"x_min":64,"x_max":627,"o":"m 627 174 q 578 80 611 124 q 493 8 546 37 q 371 -20 441 -20 q 214 25 284 -20 q 104 153 144 70 q 64 349 64 237 q 105 549 64 461 q 220 686 146 637 q 387 734 294 734 q 549 690 481 734 q 614 583 614 646 q 593 526 614 547 q 541 505 572 505 q 486 524 508 505 q 464 575 464 543 q 480 625 464 605 q 522 652 497 645 q 473 693 509 677 q 397 710 437 710 q 302 677 347 710 q 228 569 257 645 q 199 370 199 493 q 254 118 199 197 q 399 40 310 40 q 512 75 458 40 q 600 183 566 109 l 627 174 m 279 844 q 330 929 309 891 q 381 1025 351 967 q 431 1108 411 1082 q 484 1139 454 1139 q 514 1129 500 1139 q 533 1090 533 1114 q 514 1043 533 1068 q 454 982 494 1017 q 377 914 414 947 q 294 832 340 881 l 279 844 z "},"":{"ha":956,"x_min":74,"x_max":865,"o":"m 833 0 q 822 63 830 43 q 800 82 814 82 q 771 71 789 82 q 695 23 730 41 q 615 -8 660 4 q 514 -20 570 -20 q 282 40 382 -20 q 129 213 183 100 q 74 484 74 327 q 130 755 74 637 q 287 938 186 873 q 515 1003 387 1003 q 657 979 598 1003 q 771 913 715 956 q 798 901 786 901 q 833 983 827 901 l 865 983 q 860 664 860 893 l 828 664 q 809 761 818 726 q 789 820 801 795 q 758 869 778 844 q 652 951 716 924 q 513 978 587 978 q 355 918 422 978 q 250 748 287 859 q 212 489 212 637 q 253 229 212 338 q 365 64 294 121 q 526 8 436 8 q 661 35 595 8 q 764 114 727 61 q 804 196 792 152 q 828 334 817 241 l 860 334 q 865 0 860 94 l 833 0 m 518 1272 q 620 1169 551 1218 q 778 1089 688 1120 l 770 1069 q 606 1114 686 1087 q 477 1166 525 1141 q 373 1114 438 1141 q 240 1069 307 1087 l 233 1089 q 391 1169 322 1120 q 493 1272 460 1218 l 518 1272 z "},"":{"ha":675,"x_min":64,"x_max":627,"o":"m 627 174 q 578 80 611 124 q 493 8 546 37 q 371 -20 441 -20 q 214 25 284 -20 q 104 153 144 70 q 64 349 64 237 q 105 549 64 461 q 220 686 146 637 q 387 734 294 734 q 549 690 481 734 q 614 583 614 646 q 593 526 614 547 q 541 505 572 505 q 486 524 508 505 q 464 575 464 543 q 480 625 464 605 q 522 652 497 645 q 473 693 509 677 q 397 710 437 710 q 302 677 347 710 q 228 569 257 645 q 199 370 199 493 q 254 118 199 197 q 399 40 310 40 q 512 75 458 40 q 600 183 566 109 l 627 174 m 378 1114 q 468 979 406 1043 q 610 875 530 914 l 599 856 q 452 919 524 882 q 338 994 381 957 q 247 919 302 957 q 132 856 191 882 l 121 875 q 262 979 200 914 q 353 1114 324 1043 l 378 1114 z "},"":{"ha":956,"x_min":74,"x_max":865,"o":"m 833 0 q 822 63 830 43 q 800 82 814 82 q 771 71 789 82 q 695 23 730 41 q 615 -8 660 4 q 514 -20 570 -20 q 282 40 382 -20 q 129 213 183 100 q 74 484 74 327 q 130 755 74 637 q 287 938 186 873 q 515 1003 387 1003 q 657 979 598 1003 q 771 913 715 956 q 798 901 786 901 q 833 983 827 901 l 865 983 q 860 664 860 893 l 828 664 q 809 761 818 726 q 789 820 801 795 q 758 869 778 844 q 652 951 716 924 q 513 978 587 978 q 355 918 422 978 q 250 748 287 859 q 212 489 212 637 q 253 229 212 338 q 365 64 294 121 q 526 8 436 8 q 661 35 595 8 q 764 114 727 61 q 804 196 792 152 q 828 334 817 241 l 860 334 q 865 0 860 94 l 833 0 m 524 1250 q 568 1238 547 1250 q 600 1205 588 1226 q 612 1161 612 1185 q 600 1117 612 1137 q 568 1084 588 1096 q 524 1072 547 1072 q 479 1084 500 1072 q 447 1117 458 1096 q 435 1161 435 1137 q 447 1205 435 1185 q 479 1238 458 1226 q 524 1250 500 1250 z "},"":{"ha":675,"x_min":64,"x_max":627,"o":"m 627 174 q 578 80 611 124 q 493 8 546 37 q 371 -20 441 -20 q 214 25 284 -20 q 104 153 144 70 q 64 349 64 237 q 105 549 64 461 q 220 686 146 637 q 387 734 294 734 q 549 690 481 734 q 614 583 614 646 q 593 526 614 547 q 541 505 572 505 q 486 524 508 505 q 464 575 464 543 q 480 625 464 605 q 522 652 497 645 q 473 693 509 677 q 397 710 437 710 q 302 677 347 710 q 228 569 257 645 q 199 370 199 493 q 254 118 199 197 q 399 40 310 40 q 512 75 458 40 q 600 183 566 109 l 627 174 m 385 1063 q 429 1050 409 1063 q 462 1018 450 1038 q 474 974 474 998 q 462 929 474 950 q 429 897 450 909 q 385 885 409 885 q 341 897 361 885 q 308 929 320 909 q 296 974 296 950 q 308 1018 296 998 q 341 1050 320 1038 q 385 1063 361 1063 z "},"":{"ha":956,"x_min":74,"x_max":865,"o":"m 833 0 q 822 63 830 43 q 800 82 814 82 q 771 71 789 82 q 695 23 730 41 q 615 -8 660 4 q 514 -20 570 -20 q 282 40 382 -20 q 129 213 183 100 q 74 484 74 327 q 130 755 74 637 q 287 938 186 873 q 515 1003 387 1003 q 657 979 598 1003 q 771 913 715 956 q 798 901 786 901 q 833 983 827 901 l 865 983 q 860 664 860 893 l 828 664 q 809 761 818 726 q 789 820 801 795 q 758 869 778 844 q 652 951 716 924 q 513 978 587 978 q 355 918 422 978 q 250 748 287 859 q 212 489 212 637 q 253 229 212 338 q 365 64 294 121 q 526 8 436 8 q 661 35 595 8 q 764 114 727 61 q 804 196 792 152 q 828 334 817 241 l 860 334 q 865 0 860 94 l 833 0 m 774 1267 q 615 1186 684 1236 q 514 1083 547 1137 l 489 1083 q 387 1186 456 1137 q 229 1267 318 1236 l 236 1286 q 400 1242 319 1269 q 529 1189 481 1215 q 634 1242 569 1215 q 766 1286 700 1269 l 774 1267 z "},"":{"ha":675,"x_min":64,"x_max":627,"o":"m 627 174 q 578 80 611 124 q 493 8 546 37 q 371 -20 441 -20 q 214 25 284 -20 q 104 153 144 70 q 64 349 64 237 q 105 549 64 461 q 220 686 146 637 q 387 734 294 734 q 549 690 481 734 q 614 583 614 646 q 593 526 614 547 q 541 505 572 505 q 486 524 508 505 q 464 575 464 543 q 480 625 464 605 q 522 652 497 645 q 473 693 509 677 q 397 710 437 710 q 302 677 347 710 q 228 569 257 645 q 199 370 199 493 q 254 118 199 197 q 399 40 310 40 q 512 75 458 40 q 600 183 566 109 l 627 174 m 596 1095 q 455 991 517 1055 q 364 856 393 926 l 339 856 q 249 991 311 926 q 107 1095 186 1055 l 119 1114 q 265 1050 194 1088 q 380 975 336 1012 q 471 1050 415 1013 q 585 1114 527 1088 l 596 1095 z "},"":{"ha":1004,"x_min":58,"x_max":928,"o":"m 58 983 q 194 979 133 979 l 228 979 q 437 983 419 983 q 805 861 683 983 q 928 503 928 738 q 868 238 928 351 q 696 62 809 124 q 425 0 583 0 q 335 2 406 0 q 231 4 263 4 q 58 0 117 4 l 58 28 q 131 39 109 30 q 162 71 154 47 q 171 147 171 95 l 171 836 q 162 912 171 888 q 131 945 154 936 q 58 956 109 954 l 58 983 m 300 144 q 308 70 300 94 q 338 35 316 45 q 404 25 360 25 q 636 79 552 25 q 754 235 720 132 q 789 497 789 338 q 751 758 789 657 q 630 908 714 859 q 403 958 545 958 q 338 948 359 958 q 308 913 316 939 q 300 839 300 888 l 300 144 m 706 1267 q 548 1186 616 1236 q 446 1083 479 1137 l 421 1083 q 319 1186 388 1137 q 161 1267 250 1236 l 168 1286 q 332 1242 251 1269 q 461 1189 413 1215 q 567 1242 501 1215 q 699 1286 632 1269 l 706 1267 z "},"":{"ha":807,"x_min":66,"x_max":867,"o":"m 672 151 q 695 58 672 87 q 778 29 719 29 l 778 0 q 692 4 734 4 q 547 -16 602 4 l 547 108 q 472 13 522 45 q 350 -20 422 -20 q 198 22 262 -20 q 100 149 134 64 q 66 357 66 233 q 109 564 66 478 q 223 692 151 649 q 380 734 294 734 q 478 714 433 734 q 547 652 522 694 l 547 922 q 524 1016 547 987 q 441 1044 500 1044 l 441 1074 q 528 1069 486 1069 q 672 1089 617 1069 l 672 151 m 547 595 q 392 703 509 703 q 293 664 336 703 q 225 548 250 626 q 201 357 201 471 q 249 106 201 190 q 390 22 296 22 q 458 41 426 22 q 513 95 490 59 q 547 182 537 132 l 547 595 m 754 1074 q 777 1073 762 1073 q 859 1089 818 1073 q 864 1063 862 1082 q 867 1032 867 1045 q 846 943 867 996 q 773 782 825 890 l 754 787 q 782 989 782 948 q 776 1031 782 1018 q 754 1044 770 1044 l 754 1074 z "},"":{"ha":1006,"x_min":60,"x_max":929,"o":"m 60 983 q 195 979 134 979 l 229 979 q 439 983 420 983 q 807 861 684 983 q 929 503 929 738 q 870 238 929 351 q 697 62 810 124 q 427 0 584 0 q 336 2 408 0 q 232 4 264 4 q 60 0 118 4 l 60 28 q 133 39 110 30 q 164 71 155 47 q 172 147 172 95 l 172 481 l 60 481 l 60 509 l 172 509 l 172 836 q 164 912 172 888 q 133 945 155 936 q 60 956 110 954 l 60 983 m 301 144 q 309 70 301 94 q 339 35 317 45 q 406 25 361 25 q 637 79 553 25 q 756 235 722 132 q 790 497 790 338 q 753 758 790 657 q 631 908 715 859 q 404 958 547 958 q 339 948 361 958 q 309 913 317 939 q 301 839 301 888 l 301 509 l 494 509 l 494 481 l 301 481 l 301 144 z "},"":{"ha":807,"x_min":66,"x_max":791,"o":"m 672 151 q 695 58 672 87 q 778 29 719 29 l 778 0 q 692 4 734 4 q 547 -16 602 4 l 547 108 q 472 13 522 45 q 350 -20 422 -20 q 198 22 262 -20 q 100 149 134 64 q 66 357 66 233 q 109 564 66 478 q 223 692 151 649 q 380 734 294 734 q 477 714 433 734 q 547 652 522 694 l 547 844 l 300 844 l 300 872 l 547 872 l 547 922 q 524 1016 547 987 q 441 1044 500 1044 l 441 1074 q 528 1069 486 1069 q 672 1089 617 1069 l 672 872 l 791 872 l 791 844 l 672 844 l 672 151 m 547 595 q 392 703 509 703 q 293 664 336 703 q 225 548 250 626 q 201 357 201 471 q 249 106 201 190 q 390 22 296 22 q 457 41 425 22 q 513 95 490 59 q 547 182 536 132 l 547 595 z "},"":{"ha":846,"x_min":58,"x_max":779,"o":"m 774 278 q 770 178 770 241 q 779 0 770 99 q 461 4 685 4 q 58 0 195 4 l 58 28 q 131 39 109 30 q 162 71 154 47 q 171 147 171 95 l 171 836 q 162 912 171 888 q 131 945 154 936 q 58 956 109 954 l 58 983 q 461 979 195 979 q 751 983 665 979 q 742 819 742 892 q 746 733 742 765 l 714 733 q 689 867 704 823 q 637 931 673 911 q 528 951 601 951 l 412 951 q 339 943 362 951 q 308 912 317 935 q 300 836 300 888 l 300 509 l 392 509 q 485 550 462 509 q 513 635 508 592 q 521 692 519 679 l 553 692 q 548 561 548 623 l 549 494 q 557 297 549 424 l 525 297 q 517 364 524 307 q 479 451 511 422 q 392 481 448 481 l 300 481 l 300 147 q 308 72 300 95 q 339 40 317 48 q 412 32 362 32 l 514 32 q 646 55 601 32 q 711 129 691 78 q 742 278 731 180 l 774 278 m 180 1137 l 180 1173 l 669 1173 l 669 1137 l 180 1137 z "},"":{"ha":703,"x_min":64,"x_max":643,"o":"m 643 167 q 591 76 627 118 q 502 7 555 33 q 383 -20 449 -20 q 212 25 284 -20 q 102 152 140 71 q 64 340 64 234 q 102 550 64 461 q 212 687 141 639 q 378 734 283 734 q 570 659 503 734 q 637 429 637 583 l 203 429 q 199 340 199 393 q 229 180 199 249 q 308 75 259 112 q 411 39 357 39 q 615 178 551 39 l 643 167 m 504 456 q 492 583 507 525 q 448 674 478 640 q 372 708 417 708 q 294 681 330 708 q 233 596 258 653 q 201 456 208 540 l 504 456 m 155 954 l 155 989 l 589 989 l 589 954 l 155 954 z "},"":{"ha":846,"x_min":58,"x_max":779,"o":"m 774 278 q 770 178 770 241 q 779 0 770 99 q 461 4 685 4 q 58 0 195 4 l 58 28 q 131 39 109 30 q 162 71 154 47 q 171 147 171 95 l 171 836 q 162 912 171 888 q 131 945 154 936 q 58 956 109 954 l 58 983 q 461 979 195 979 q 751 983 665 979 q 742 819 742 892 q 746 733 742 765 l 714 733 q 689 867 704 823 q 637 931 673 911 q 528 951 601 951 l 412 951 q 339 943 362 951 q 308 912 317 935 q 300 836 300 888 l 300 509 l 392 509 q 485 550 462 509 q 513 635 508 592 q 521 692 519 679 l 553 692 q 548 561 548 623 l 549 494 q 557 297 549 424 l 525 297 q 517 364 524 307 q 479 451 511 422 q 392 481 448 481 l 300 481 l 300 147 q 308 72 300 95 q 339 40 317 48 q 412 32 362 32 l 514 32 q 646 55 601 32 q 711 129 691 78 q 742 278 731 180 l 774 278 m 701 1247 q 591 1134 661 1181 q 425 1086 522 1086 q 259 1134 329 1086 q 149 1247 189 1181 l 167 1261 q 269 1198 205 1224 q 425 1173 334 1173 q 581 1199 516 1173 q 685 1263 646 1225 l 701 1247 z "},"":{"ha":703,"x_min":64,"x_max":643,"o":"m 643 167 q 591 76 627 118 q 502 7 555 33 q 383 -20 449 -20 q 212 25 284 -20 q 102 152 140 71 q 64 340 64 234 q 102 550 64 461 q 212 687 141 639 q 378 734 283 734 q 570 659 503 734 q 637 429 637 583 l 203 429 q 199 340 199 393 q 229 180 199 249 q 308 75 259 112 q 411 39 357 39 q 615 178 551 39 l 643 167 m 504 456 q 492 583 507 525 q 448 674 478 640 q 372 708 417 708 q 294 681 330 708 q 233 596 258 653 q 201 456 208 540 l 504 456 m 624 1082 q 526 939 589 999 q 375 879 463 879 q 225 939 288 879 q 127 1082 161 999 l 150 1095 q 375 961 231 961 q 511 999 456 961 q 600 1095 566 1038 l 624 1082 z "},"":{"ha":846,"x_min":58,"x_max":779,"o":"m 774 278 q 770 178 770 241 q 779 0 770 99 q 461 4 685 4 q 58 0 195 4 l 58 28 q 131 39 109 30 q 162 71 154 47 q 171 147 171 95 l 171 836 q 162 912 171 888 q 131 945 154 936 q 58 956 109 954 l 58 983 q 461 979 195 979 q 751 983 665 979 q 742 819 742 892 q 746 733 742 765 l 714 733 q 689 867 704 823 q 637 931 673 911 q 528 951 601 951 l 412 951 q 339 943 362 951 q 308 912 317 935 q 300 836 300 888 l 300 509 l 392 509 q 485 550 462 509 q 513 635 508 592 q 521 692 519 679 l 553 692 q 548 561 548 623 l 549 494 q 557 297 549 424 l 525 297 q 517 364 524 307 q 479 451 511 422 q 392 481 448 481 l 300 481 l 300 147 q 308 72 300 95 q 339 40 317 48 q 412 32 362 32 l 514 32 q 646 55 601 32 q 711 129 691 78 q 742 278 731 180 l 774 278 m 444 1250 q 488 1238 467 1250 q 520 1205 508 1226 q 532 1161 532 1185 q 520 1117 532 1137 q 488 1084 508 1096 q 444 1072 467 1072 q 399 1084 420 1072 q 367 1117 378 1096 q 355 1161 355 1137 q 367 1205 355 1185 q 399 1238 378 1226 q 444 1250 420 1250 z "},"":{"ha":703,"x_min":64,"x_max":643,"o":"m 643 167 q 591 76 627 118 q 502 7 555 33 q 383 -20 449 -20 q 212 25 284 -20 q 102 152 140 71 q 64 340 64 234 q 102 550 64 461 q 212 687 141 639 q 378 734 283 734 q 570 659 503 734 q 637 429 637 583 l 203 429 q 199 340 199 393 q 229 180 199 249 q 308 75 259 112 q 411 39 357 39 q 615 178 551 39 l 643 167 m 504 456 q 492 583 507 525 q 448 674 478 640 q 372 708 417 708 q 294 681 330 708 q 233 596 258 653 q 201 456 208 540 l 504 456 m 376 1063 q 420 1050 400 1063 q 453 1018 441 1038 q 465 974 465 998 q 453 929 465 950 q 420 897 441 909 q 376 885 400 885 q 332 897 353 885 q 299 929 311 909 q 288 974 288 950 q 299 1018 288 998 q 332 1050 311 1038 q 376 1063 353 1063 z "},"":{"ha":846,"x_min":58,"x_max":801,"o":"m 774 278 q 770 178 770 241 q 779 0 770 99 q 461 4 685 4 q 58 0 195 4 l 58 28 q 131 39 109 30 q 162 71 154 47 q 171 147 171 95 l 171 836 q 162 912 171 888 q 131 945 154 936 q 58 956 109 954 l 58 983 q 461 979 195 979 q 751 983 665 979 q 742 819 742 892 q 746 733 742 765 l 714 733 q 689 867 704 823 q 637 931 673 911 q 528 951 601 951 l 412 951 q 339 943 362 951 q 308 912 317 935 q 300 836 300 888 l 300 509 l 392 509 q 485 550 462 509 q 513 635 508 592 q 521 692 519 679 l 553 692 q 548 561 548 623 l 549 494 q 557 297 549 424 l 525 297 q 517 364 524 307 q 479 451 511 422 q 392 481 448 481 l 300 481 l 300 147 q 308 72 300 95 q 339 40 317 48 q 412 32 362 32 l 514 32 q 646 55 601 32 q 711 129 691 78 q 742 278 731 180 l 774 278 m 779 4 q 670 -54 704 -16 q 636 -134 636 -92 q 652 -178 636 -161 q 696 -195 668 -195 q 744 -181 721 -195 q 781 -149 766 -168 l 801 -167 q 644 -261 739 -261 q 565 -236 595 -261 q 534 -171 534 -212 q 584 -71 534 -117 q 726 4 634 -26 l 779 4 z "},"":{"ha":703,"x_min":64,"x_max":643,"o":"m 643 167 q 591 76 627 118 q 502 7 555 33 q 383 -20 449 -20 q 212 25 284 -20 q 102 152 140 71 q 64 340 64 234 q 102 550 64 461 q 212 687 141 639 q 378 734 283 734 q 570 659 503 734 q 637 429 637 583 l 203 429 q 199 340 199 393 q 229 180 199 249 q 308 75 259 112 q 411 39 357 39 q 615 178 551 39 l 643 167 m 504 456 q 492 583 507 525 q 448 674 478 640 q 372 708 417 708 q 294 681 330 708 q 233 596 258 653 q 201 456 208 540 l 504 456 m 493 4 q 479 -3 490 1 q 359 -134 359 -54 q 375 -178 359 -161 q 418 -195 391 -195 q 466 -181 444 -195 q 503 -149 489 -168 l 524 -167 q 367 -261 462 -261 q 287 -236 317 -261 q 257 -171 257 -212 q 307 -71 257 -117 q 449 4 357 -26 l 493 4 z "},"":{"ha":846,"x_min":58,"x_max":779,"o":"m 774 278 q 770 178 770 241 q 779 0 770 99 q 461 4 685 4 q 58 0 195 4 l 58 28 q 131 39 109 30 q 162 71 154 47 q 171 147 171 95 l 171 836 q 162 912 171 888 q 131 945 154 936 q 58 956 109 954 l 58 983 q 461 979 195 979 q 751 983 665 979 q 742 819 742 892 q 746 733 742 765 l 714 733 q 689 867 704 823 q 637 931 673 911 q 528 951 601 951 l 412 951 q 339 943 362 951 q 308 912 317 935 q 300 836 300 888 l 300 509 l 392 509 q 485 550 462 509 q 513 635 508 592 q 521 692 519 679 l 553 692 q 548 561 548 623 l 549 494 q 557 297 549 424 l 525 297 q 517 364 524 307 q 479 451 511 422 q 392 481 448 481 l 300 481 l 300 147 q 308 72 300 95 q 339 40 317 48 q 412 32 362 32 l 514 32 q 646 55 601 32 q 711 129 691 78 q 742 278 731 180 l 774 278 m 694 1267 q 535 1186 604 1236 q 434 1083 467 1137 l 409 1083 q 307 1186 376 1137 q 149 1267 238 1236 l 156 1286 q 320 1242 239 1269 q 449 1189 401 1215 q 554 1242 489 1215 q 686 1286 620 1269 l 694 1267 z "},"":{"ha":703,"x_min":64,"x_max":643,"o":"m 643 167 q 591 76 627 118 q 502 7 555 33 q 383 -20 449 -20 q 212 25 284 -20 q 102 152 140 71 q 64 340 64 234 q 102 550 64 461 q 212 687 141 639 q 378 734 283 734 q 570 659 503 734 q 637 429 637 583 l 203 429 q 199 340 199 393 q 229 180 199 249 q 308 75 259 112 q 411 39 357 39 q 615 178 551 39 l 643 167 m 504 456 q 492 583 507 525 q 448 674 478 640 q 372 708 417 708 q 294 681 330 708 q 233 596 258 653 q 201 456 208 540 l 504 456 m 607 1095 q 466 991 528 1055 q 375 856 404 926 l 350 856 q 259 991 321 926 q 118 1095 197 1055 l 130 1114 q 276 1050 205 1088 q 391 975 347 1012 q 482 1050 426 1013 q 596 1114 538 1088 l 607 1095 z "},"":{"ha":977,"x_min":75,"x_max":929,"o":"m 831 0 q 819 54 829 28 q 793 79 809 79 q 776 75 784 79 q 747 56 768 71 q 647 -1 699 18 q 530 -20 595 -20 q 286 39 388 -20 q 129 210 183 98 q 75 475 75 321 q 133 754 75 634 q 292 938 190 873 q 522 1003 393 1003 q 622 991 578 1003 q 698 961 666 979 q 772 913 730 943 q 800 899 790 899 q 835 983 827 899 l 867 983 q 861 664 861 893 l 829 664 q 803 786 817 739 q 760 869 789 834 q 654 949 719 920 q 519 978 590 978 q 359 918 428 978 q 252 748 290 859 q 214 490 214 638 q 249 217 214 323 q 358 59 285 111 q 545 8 431 8 q 689 52 628 8 q 722 84 714 68 q 729 127 729 100 l 729 261 q 718 346 729 319 q 679 382 707 372 q 589 395 650 392 l 589 422 q 785 418 657 418 q 929 422 882 418 l 929 395 q 883 384 897 392 q 864 352 869 375 q 859 275 859 329 l 859 0 l 831 0 m 514 1272 q 615 1169 547 1218 q 774 1089 684 1120 l 766 1069 q 602 1114 682 1087 q 473 1166 521 1141 q 369 1114 434 1141 q 236 1069 303 1087 l 229 1089 q 387 1169 318 1120 q 489 1272 456 1218 l 514 1272 z "},"":{"ha":701,"x_min":37,"x_max":677,"o":"m 472 897 q 382 941 427 915 q 309 994 338 968 q 217 919 273 957 q 103 856 161 882 l 92 875 q 233 979 171 914 q 323 1114 295 1043 l 349 1114 q 402 1004 364 1057 q 486 917 439 951 l 472 897 m 515 153 q 677 20 677 153 q 634 -113 677 -48 q 505 -219 591 -178 q 294 -261 418 -261 q 168 -246 227 -261 q 73 -203 109 -231 q 37 -139 37 -176 q 212 33 37 -44 l 207 33 q 112 57 156 33 q 68 140 68 80 q 102 227 68 186 q 219 313 137 268 q 116 387 153 336 q 79 515 79 437 q 150 680 79 625 q 336 734 220 734 q 435 723 390 734 q 478 832 446 785 q 521 879 496 860 q 578 897 547 897 q 631 877 610 897 q 652 823 652 856 q 631 769 652 791 q 576 747 611 747 q 528 765 547 747 q 505 812 509 782 q 476 772 492 808 q 459 715 465 743 q 557 642 522 692 q 593 515 593 592 q 560 392 593 441 q 469 319 527 343 q 336 296 412 296 q 246 306 288 296 q 191 269 210 283 q 161 237 172 254 q 150 199 150 220 q 168 161 150 170 q 228 153 186 153 l 515 153 m 336 710 q 242 666 274 710 q 210 515 210 622 q 242 365 210 409 q 336 321 274 321 q 430 365 398 321 q 463 515 463 410 q 430 666 463 621 q 336 710 398 710 m 248 33 q 177 -28 202 9 q 151 -109 151 -66 q 177 -180 151 -151 q 244 -223 203 -209 q 329 -237 285 -237 q 454 -214 392 -237 q 556 -145 516 -190 q 596 -39 596 -100 q 573 16 596 -1 q 490 33 550 33 l 248 33 z "},"":{"ha":977,"x_min":75,"x_max":929,"o":"m 831 0 q 819 54 829 28 q 793 79 809 79 q 776 75 784 79 q 747 56 768 71 q 647 -1 699 18 q 530 -20 595 -20 q 286 39 388 -20 q 129 210 183 98 q 75 475 75 321 q 133 754 75 634 q 292 938 190 873 q 522 1003 393 1003 q 622 991 578 1003 q 698 961 666 979 q 772 913 730 943 q 800 899 790 899 q 835 983 827 899 l 867 983 q 861 664 861 893 l 829 664 q 803 786 817 739 q 760 869 789 834 q 654 949 719 920 q 519 978 590 978 q 359 918 428 978 q 252 748 290 859 q 214 490 214 638 q 249 217 214 323 q 358 59 285 111 q 545 8 431 8 q 689 52 628 8 q 722 84 714 68 q 729 127 729 100 l 729 261 q 718 346 729 319 q 679 382 707 372 q 589 395 650 392 l 589 422 q 785 418 657 418 q 929 422 882 418 l 929 395 q 883 384 897 392 q 864 352 869 375 q 859 275 859 329 l 859 0 l 831 0 m 777 1247 q 667 1134 737 1181 q 501 1086 597 1086 q 335 1134 405 1086 q 224 1247 265 1181 l 243 1261 q 345 1198 281 1224 q 501 1173 410 1173 q 657 1199 592 1173 q 761 1263 722 1225 l 777 1247 z "},"":{"ha":701,"x_min":37,"x_max":677,"o":"m 583 1082 q 485 939 549 999 q 334 879 422 879 q 184 939 248 879 q 86 1082 121 999 l 109 1095 q 334 961 191 961 q 471 999 416 961 q 559 1095 526 1038 l 583 1082 m 515 153 q 677 20 677 153 q 634 -113 677 -48 q 505 -219 591 -178 q 294 -261 418 -261 q 168 -246 227 -261 q 73 -203 109 -231 q 37 -139 37 -176 q 212 33 37 -44 l 207 33 q 112 57 156 33 q 68 140 68 80 q 102 227 68 186 q 219 313 137 268 q 116 387 153 336 q 79 515 79 437 q 150 680 79 625 q 336 734 220 734 q 435 723 390 734 q 478 832 446 785 q 521 879 496 860 q 578 897 547 897 q 631 877 610 897 q 652 823 652 856 q 631 769 652 791 q 576 747 611 747 q 528 765 547 747 q 505 812 509 782 q 476 772 492 808 q 459 715 465 743 q 557 642 522 692 q 593 515 593 592 q 560 392 593 441 q 469 319 527 343 q 336 296 412 296 q 246 306 288 296 q 191 269 210 283 q 161 237 172 254 q 150 199 150 220 q 168 161 150 170 q 228 153 186 153 l 515 153 m 336 710 q 242 666 274 710 q 210 515 210 622 q 242 365 210 409 q 336 321 274 321 q 430 365 398 321 q 463 515 463 410 q 430 666 463 621 q 336 710 398 710 m 248 33 q 177 -28 202 9 q 151 -109 151 -66 q 177 -180 151 -151 q 244 -223 203 -209 q 329 -237 285 -237 q 454 -214 392 -237 q 556 -145 516 -190 q 596 -39 596 -100 q 573 16 596 -1 q 490 33 550 33 l 248 33 z "},"":{"ha":977,"x_min":75,"x_max":929,"o":"m 831 0 q 819 54 829 28 q 793 79 809 79 q 776 75 784 79 q 747 56 768 71 q 647 -1 699 18 q 530 -20 595 -20 q 286 39 388 -20 q 129 210 183 98 q 75 475 75 321 q 133 754 75 634 q 292 938 190 873 q 522 1003 393 1003 q 622 991 578 1003 q 698 961 666 979 q 772 913 730 943 q 800 899 790 899 q 835 983 827 899 l 867 983 q 861 664 861 893 l 829 664 q 803 786 817 739 q 760 869 789 834 q 654 949 719 920 q 519 978 590 978 q 359 918 428 978 q 252 748 290 859 q 214 490 214 638 q 249 217 214 323 q 358 59 285 111 q 545 8 431 8 q 689 52 628 8 q 722 84 714 68 q 729 127 729 100 l 729 261 q 718 346 729 319 q 679 382 707 372 q 589 395 650 392 l 589 422 q 785 418 657 418 q 929 422 882 418 l 929 395 q 883 384 897 392 q 864 352 869 375 q 859 275 859 329 l 859 0 l 831 0 m 519 1250 q 564 1238 543 1250 q 596 1205 584 1226 q 608 1161 608 1185 q 596 1117 608 1137 q 564 1084 584 1096 q 519 1072 543 1072 q 475 1084 496 1072 q 443 1117 454 1096 q 431 1161 431 1137 q 443 1205 431 1185 q 475 1238 454 1226 q 519 1250 496 1250 z "},"":{"ha":701,"x_min":37,"x_max":677,"o":"m 336 885 q 292 897 313 885 q 259 929 271 909 q 248 974 248 950 q 259 1018 248 998 q 292 1050 271 1038 q 336 1063 313 1063 q 380 1050 360 1063 q 413 1018 401 1038 q 425 974 425 998 q 413 929 425 950 q 380 897 401 909 q 336 885 360 885 m 515 153 q 677 20 677 153 q 634 -113 677 -48 q 505 -219 591 -178 q 294 -261 418 -261 q 168 -246 227 -261 q 73 -203 109 -231 q 37 -139 37 -176 q 212 33 37 -44 l 207 33 q 112 57 156 33 q 68 140 68 80 q 102 227 68 186 q 219 313 137 268 q 116 387 153 336 q 79 515 79 437 q 150 680 79 625 q 336 734 220 734 q 435 723 390 734 q 478 832 446 785 q 521 879 496 860 q 578 897 547 897 q 631 877 610 897 q 652 823 652 856 q 631 769 652 791 q 576 747 611 747 q 528 765 547 747 q 505 812 509 782 q 476 772 492 808 q 459 715 465 743 q 557 642 522 692 q 593 515 593 592 q 560 392 593 441 q 469 319 527 343 q 336 296 412 296 q 246 306 288 296 q 191 269 210 283 q 161 237 172 254 q 150 199 150 220 q 168 161 150 170 q 228 153 186 153 l 515 153 m 336 710 q 242 666 274 710 q 210 515 210 622 q 242 365 210 409 q 336 321 274 321 q 430 365 398 321 q 463 515 463 410 q 430 666 463 621 q 336 710 398 710 m 248 33 q 177 -28 202 9 q 151 -109 151 -66 q 177 -180 151 -151 q 244 -223 203 -209 q 329 -237 285 -237 q 454 -214 392 -237 q 556 -145 516 -190 q 596 -39 596 -100 q 573 16 596 -1 q 490 33 550 33 l 248 33 z "},"":{"ha":977,"x_min":75,"x_max":929,"o":"m 831 0 q 819 54 829 28 q 793 79 809 79 q 776 75 784 79 q 747 56 768 71 q 647 -1 699 18 q 530 -20 595 -20 q 286 39 388 -20 q 129 210 183 98 q 75 475 75 321 q 133 754 75 634 q 292 938 190 873 q 522 1003 393 1003 q 622 991 578 1003 q 698 961 666 979 q 772 913 730 943 q 800 899 790 899 q 835 983 827 899 l 867 983 q 861 664 861 893 l 829 664 q 803 786 817 739 q 760 869 789 834 q 654 949 719 920 q 519 978 590 978 q 359 918 428 978 q 252 748 290 859 q 214 490 214 638 q 249 217 214 323 q 358 59 285 111 q 545 8 431 8 q 689 52 628 8 q 722 84 714 68 q 729 127 729 100 l 729 261 q 718 346 729 319 q 679 382 707 372 q 589 395 650 392 l 589 422 q 785 418 657 418 q 929 422 882 418 l 929 395 q 883 384 897 392 q 864 352 869 375 q 859 275 859 329 l 859 0 l 831 0 m 482 -310 q 543 -276 518 -299 q 568 -222 568 -253 q 510 -244 543 -244 q 458 -224 478 -244 q 437 -170 437 -205 q 460 -117 437 -138 q 515 -96 483 -96 q 581 -124 555 -96 q 606 -193 606 -152 q 581 -278 606 -245 q 492 -335 556 -311 l 482 -310 z "},"":{"ha":701,"x_min":37,"x_max":677,"o":"m 375 1109 q 314 1075 339 1098 q 289 1021 288 1052 q 347 1043 314 1043 q 399 1023 379 1043 q 420 968 420 1004 q 397 916 420 937 q 342 895 374 895 q 277 923 302 895 q 252 992 252 951 q 276 1077 252 1044 q 366 1134 301 1110 l 375 1109 m 515 153 q 677 20 677 153 q 634 -113 677 -48 q 505 -219 591 -178 q 294 -261 418 -261 q 168 -246 227 -261 q 73 -203 109 -231 q 37 -139 37 -176 q 212 33 37 -44 l 207 33 q 112 57 156 33 q 68 140 68 80 q 102 227 68 186 q 219 313 137 268 q 116 387 153 336 q 79 515 79 437 q 150 680 79 625 q 336 734 220 734 q 435 723 390 734 q 478 832 446 785 q 521 879 496 860 q 578 897 547 897 q 631 877 610 897 q 652 823 652 856 q 631 769 652 791 q 576 747 611 747 q 528 765 547 747 q 505 812 509 782 q 476 772 492 808 q 459 715 465 743 q 557 642 522 692 q 593 515 593 592 q 560 392 593 441 q 469 319 527 343 q 336 296 412 296 q 246 306 288 296 q 191 269 210 283 q 161 237 172 254 q 150 199 150 220 q 168 161 150 170 q 228 153 186 153 l 515 153 m 336 710 q 242 666 274 710 q 210 515 210 622 q 242 365 210 409 q 336 321 274 321 q 430 365 398 321 q 463 515 463 410 q 430 666 463 621 q 336 710 398 710 m 248 33 q 177 -28 202 9 q 151 -109 151 -66 q 177 -180 151 -151 q 244 -223 203 -209 q 329 -237 285 -237 q 454 -214 392 -237 q 556 -145 516 -190 q 596 -39 596 -100 q 573 16 596 -1 q 490 33 550 33 l 248 33 z "},"":{"ha":1051,"x_min":58,"x_max":993,"o":"m 993 956 q 920 945 943 954 q 889 912 897 936 q 880 836 880 888 l 880 147 q 889 71 880 95 q 920 39 897 47 q 993 28 943 30 l 993 0 q 815 4 935 4 q 639 0 704 4 l 639 28 q 712 39 689 30 q 743 71 734 47 q 751 147 751 95 l 751 481 l 300 481 l 300 147 q 308 71 300 95 q 339 39 317 47 q 412 28 362 30 l 412 0 q 236 4 349 4 q 58 0 117 4 l 58 28 q 131 39 109 30 q 162 71 154 47 q 171 147 171 95 l 171 836 q 162 912 171 888 q 131 945 154 936 q 58 956 109 954 l 58 983 q 236 979 116 979 q 412 983 349 979 l 412 956 q 339 945 362 954 q 308 912 317 936 q 300 836 300 888 l 300 509 l 751 509 l 751 836 q 743 912 751 888 q 712 945 734 936 q 639 956 689 954 l 639 983 q 815 979 704 979 q 993 983 935 979 l 993 956 m 542 1272 q 643 1169 574 1218 q 802 1089 712 1120 l 794 1069 q 629 1114 710 1087 q 501 1166 549 1141 q 396 1114 462 1141 q 264 1069 331 1087 l 257 1089 q 415 1169 346 1120 q 517 1272 484 1218 l 542 1272 z "},"":{"ha":817,"x_min":28,"x_max":796,"o":"m 258 568 q 355 695 293 656 q 494 734 417 734 q 642 682 591 734 q 679 612 668 654 q 690 500 690 570 l 690 129 q 701 68 690 90 q 734 38 711 47 q 796 29 757 29 l 796 0 q 629 5 666 5 q 473 0 590 5 l 473 29 q 528 38 508 29 q 556 68 547 47 q 566 129 566 90 l 566 530 q 557 614 566 581 q 525 669 549 648 q 453 690 500 690 q 352 658 397 690 q 283 569 308 626 q 258 439 258 511 l 258 129 q 268 68 258 90 q 296 38 277 47 q 350 29 315 29 l 350 0 q 195 5 233 5 q 28 0 155 5 l 28 29 q 90 38 67 29 q 123 68 113 47 q 134 129 134 90 l 134 921 q 110 1014 134 985 q 28 1043 87 1043 l 28 1072 q 114 1068 72 1068 q 258 1088 203 1068 l 258 568 m 404 1361 q 506 1258 437 1307 q 664 1178 574 1208 l 656 1158 q 492 1203 572 1176 q 363 1255 411 1230 q 259 1203 324 1230 q 126 1158 193 1176 l 119 1178 q 277 1258 208 1208 q 379 1361 346 1307 l 404 1361 z "},"":{"ha":1051,"x_min":58,"x_max":993,"o":"m 993 956 q 920 945 943 954 q 889 912 897 936 q 880 836 880 888 l 880 741 l 993 741 l 993 713 l 880 713 l 880 147 q 889 71 880 95 q 920 39 897 47 q 993 28 943 30 l 993 0 q 815 4 935 4 q 639 0 704 4 l 639 28 q 712 39 689 30 q 743 71 734 47 q 751 147 751 95 l 751 481 l 300 481 l 300 147 q 308 71 300 95 q 339 39 317 47 q 412 28 362 30 l 412 0 q 236 4 349 4 q 58 0 117 4 l 58 28 q 131 39 109 30 q 162 71 154 47 q 171 147 171 95 l 171 713 l 58 713 l 58 741 l 171 741 l 171 836 q 162 912 171 888 q 131 945 154 936 q 58 956 109 954 l 58 983 q 236 979 116 979 q 412 983 349 979 l 412 956 q 339 945 362 954 q 308 912 317 936 q 300 836 300 888 l 300 741 l 751 741 l 751 836 q 743 912 751 888 q 712 945 734 936 q 639 956 689 954 l 639 983 q 815 979 704 979 q 993 983 935 979 l 993 956 m 300 713 l 300 509 l 751 509 l 751 713 l 300 713 z "},"":{"ha":817,"x_min":14,"x_max":796,"o":"m 690 129 q 701 68 690 90 q 734 38 711 47 q 796 29 757 29 l 796 0 q 629 5 666 5 q 473 0 590 5 l 473 29 q 528 38 508 29 q 556 68 547 47 q 566 129 566 90 l 566 530 q 557 614 566 581 q 525 669 549 648 q 453 690 500 690 q 352 658 397 690 q 283 569 308 626 q 258 439 258 511 l 258 129 q 268 68 258 90 q 296 38 277 47 q 350 29 315 29 l 350 0 q 195 5 233 5 q 28 0 155 5 l 28 29 q 90 38 67 29 q 123 68 113 47 q 134 129 134 90 l 134 844 l 14 844 l 14 872 l 134 872 l 134 921 q 110 1014 134 985 q 28 1043 87 1043 l 28 1072 q 114 1068 72 1068 q 258 1088 203 1068 l 258 872 l 505 872 l 505 844 l 258 844 l 258 568 q 355 695 293 656 q 494 734 417 734 q 642 682 591 734 q 679 612 668 654 q 690 500 690 570 l 690 129 z "},"":{"ha":471,"x_min":-31,"x_max":500,"o":"m 412 956 q 339 945 362 954 q 308 912 317 936 q 300 836 300 888 l 300 147 q 308 71 300 95 q 339 39 317 47 q 412 28 362 30 l 412 0 q 236 4 349 4 q 58 0 117 4 l 58 28 q 131 39 109 30 q 162 71 154 47 q 171 147 171 95 l 171 836 q 162 912 171 888 q 131 945 154 936 q 58 956 109 954 l 58 983 q 236 979 116 979 q 412 983 349 979 l 412 956 m -31 1105 q -5 1183 -26 1150 q 51 1235 17 1217 q 123 1253 85 1253 q 189 1239 158 1253 q 283 1186 220 1225 q 393 1146 346 1146 q 479 1223 458 1146 l 500 1219 q 474 1141 496 1175 q 419 1090 452 1108 q 346 1072 385 1072 q 281 1086 311 1072 q 187 1140 250 1100 q 77 1179 123 1179 q -9 1101 12 1179 l -31 1105 z "},"":{"ha":407,"x_min":-72,"x_max":430,"o":"m 271 129 q 281 68 271 90 q 314 38 292 47 q 376 29 337 29 l 376 0 q 208 5 249 5 q 40 0 168 5 l 40 29 q 102 38 79 29 q 135 68 125 47 q 146 129 146 90 l 146 564 q 122 657 146 628 q 40 686 99 686 l 40 715 q 126 711 83 711 q 271 730 214 711 l 271 129 m -72 924 q -7 1032 -51 997 q 94 1067 37 1067 q 153 1054 128 1067 q 222 1008 178 1042 q 303 975 265 975 q 410 1048 366 975 l 430 1039 q 365 931 409 966 q 266 896 321 896 q 204 909 230 896 q 136 955 179 922 q 55 989 92 989 q -52 914 -7 989 l -72 924 z "},"":{"ha":471,"x_min":-9,"x_max":480,"o":"m 412 956 q 339 945 362 954 q 308 912 317 936 q 300 836 300 888 l 300 147 q 308 71 300 95 q 339 39 317 47 q 412 28 362 30 l 412 0 q 236 4 349 4 q 58 0 117 4 l 58 28 q 131 39 109 30 q 162 71 154 47 q 171 147 171 95 l 171 836 q 162 912 171 888 q 131 945 154 936 q 58 956 109 954 l 58 983 q 236 979 116 979 q 412 983 349 979 l 412 956 m -9 1137 l -9 1173 l 480 1173 l 480 1137 l -9 1137 z "},"":{"ha":407,"x_min":-16,"x_max":390,"o":"m -16 954 l -16 989 l 390 989 l 390 954 l -16 954 m 271 129 q 281 68 271 90 q 314 38 292 47 q 376 29 337 29 l 376 0 q 208 5 249 5 q 40 0 168 5 l 40 29 q 102 38 79 29 q 135 68 125 47 q 146 129 146 90 l 146 564 q 122 657 146 628 q 40 686 99 686 l 40 715 q 126 711 83 711 q 271 730 214 711 l 271 129 z "},"":{"ha":471,"x_min":-41,"x_max":512,"o":"m 412 956 q 339 945 362 954 q 308 912 317 936 q 300 836 300 888 l 300 147 q 308 71 300 95 q 339 39 317 47 q 412 28 362 30 l 412 0 q 236 4 349 4 q 58 0 117 4 l 58 28 q 131 39 109 30 q 162 71 154 47 q 171 147 171 95 l 171 836 q 162 912 171 888 q 131 945 154 936 q 58 956 109 954 l 58 983 q 236 979 116 979 q 412 983 349 979 l 412 956 m 512 1247 q 402 1134 472 1181 q 236 1086 332 1086 q 70 1134 140 1086 q -41 1247 0 1181 l -22 1261 q 80 1198 16 1224 q 236 1173 144 1173 q 392 1199 327 1173 q 496 1263 457 1225 l 512 1247 z "},"":{"ha":407,"x_min":-54,"x_max":444,"o":"m 271 129 q 281 68 271 90 q 314 38 292 47 q 376 29 337 29 l 376 0 q 208 5 249 5 q 40 0 168 5 l 40 29 q 102 38 79 29 q 135 68 125 47 q 146 129 146 90 l 146 564 q 122 657 146 628 q 40 686 99 686 l 40 715 q 126 711 83 711 q 271 730 214 711 l 271 129 m 444 1082 q 346 939 409 999 q 195 879 282 879 q 44 939 108 879 q -54 1082 -19 999 l -31 1095 q 195 961 51 961 q 331 999 276 961 q 420 1095 386 1038 l 444 1082 z "},"":{"ha":471,"x_min":58,"x_max":434,"o":"m 412 956 q 339 945 362 954 q 308 912 317 936 q 300 836 300 888 l 300 147 q 308 71 300 95 q 339 39 317 47 q 412 28 362 30 l 412 0 q 236 4 349 4 q 58 0 117 4 l 58 28 q 131 39 109 30 q 162 71 154 47 q 171 147 171 95 l 171 836 q 162 912 171 888 q 131 945 154 936 q 58 956 109 954 l 58 983 q 236 979 116 979 q 412 983 349 979 l 412 956 m 412 4 q 303 -54 337 -16 q 269 -134 269 -92 q 285 -178 269 -161 q 329 -195 301 -195 q 377 -181 354 -195 q 414 -149 399 -168 l 434 -167 q 277 -261 372 -261 q 198 -236 228 -261 q 168 -171 168 -212 q 217 -71 168 -117 q 359 4 267 -26 l 412 4 z "},"":{"ha":407,"x_min":40,"x_max":392,"o":"m 196 1063 q 240 1050 220 1063 q 273 1018 260 1038 q 285 974 285 998 q 273 929 285 950 q 240 897 260 909 q 196 885 220 885 q 152 897 172 885 q 119 929 131 909 q 107 974 107 950 q 119 1018 107 998 q 152 1050 131 1038 q 196 1063 172 1063 m 271 129 q 281 68 271 90 q 314 38 292 47 q 376 29 337 29 l 376 0 q 208 5 249 5 q 40 0 168 5 l 40 29 q 102 38 79 29 q 135 68 125 47 q 146 129 146 90 l 146 564 q 122 657 146 628 q 40 686 99 686 l 40 715 q 126 711 83 711 q 271 730 214 711 l 271 129 m 361 4 q 348 -3 358 1 q 227 -134 227 -54 q 243 -178 227 -161 q 287 -195 259 -195 q 335 -181 312 -195 q 372 -149 357 -168 l 392 -167 q 235 -261 330 -261 q 156 -236 186 -261 q 125 -171 125 -212 q 175 -71 125 -117 q 317 4 225 -26 l 361 4 z "},"":{"ha":471,"x_min":58,"x_max":412,"o":"m 412 956 q 339 945 362 954 q 308 912 317 936 q 300 836 300 888 l 300 147 q 308 71 300 95 q 339 39 317 47 q 412 28 362 30 l 412 0 q 236 4 349 4 q 58 0 117 4 l 58 28 q 131 39 109 30 q 162 71 154 47 q 171 147 171 95 l 171 836 q 162 912 171 888 q 131 945 154 936 q 58 956 109 954 l 58 983 q 236 979 116 979 q 412 983 349 979 l 412 956 m 236 1332 q 280 1320 260 1332 q 313 1287 300 1308 q 325 1243 325 1267 q 313 1199 325 1219 q 280 1166 300 1178 q 236 1154 260 1154 q 192 1166 212 1154 q 159 1199 171 1178 q 147 1243 147 1219 q 159 1287 147 1267 q 192 1320 171 1308 q 236 1332 212 1332 z "},"":{"ha":407,"x_min":40,"x_max":376,"o":"m 271 129 q 281 68 271 90 q 314 38 292 47 q 376 29 337 29 l 376 0 q 208 5 249 5 q 40 0 168 5 l 40 29 q 102 38 79 29 q 135 68 125 47 q 146 129 146 90 l 146 564 q 122 657 146 628 q 40 686 99 686 l 40 715 q 126 711 83 711 q 271 730 214 711 l 271 129 z "},"":{"ha":899,"x_min":58,"x_max":850,"o":"m 412 956 q 339 945 362 954 q 308 912 317 936 q 300 836 300 888 l 300 147 q 308 71 300 95 q 339 39 317 47 q 412 28 362 30 l 412 0 q 236 4 349 4 q 58 0 117 4 l 58 28 q 131 39 109 30 q 162 71 154 47 q 171 147 171 95 l 171 836 q 162 912 171 888 q 131 945 154 936 q 58 956 109 954 l 58 983 q 236 979 116 979 q 412 983 349 979 l 412 956 m 850 956 q 777 945 800 954 q 746 912 754 936 q 737 836 737 888 l 737 328 q 733 118 737 210 q 713 -35 728 27 q 659 -151 698 -100 q 558 -232 619 -202 q 420 -261 498 -261 q 304 -236 353 -261 q 237 -140 237 -201 q 258 -87 237 -108 q 311 -66 279 -66 q 366 -87 344 -66 q 387 -142 387 -107 q 372 -189 387 -171 q 329 -212 356 -207 q 367 -230 341 -224 q 418 -235 393 -235 q 522 -203 478 -235 q 585 -117 566 -172 q 604 -8 599 -73 q 608 201 608 56 l 608 836 q 600 912 608 888 q 569 945 591 936 q 496 956 546 954 l 496 983 q 673 979 553 979 q 850 983 785 979 l 850 956 z "},"":{"ha":781,"x_min":22,"x_max":682,"o":"m 171 1063 q 215 1050 195 1063 q 248 1018 235 1038 q 260 974 260 998 q 248 929 260 950 q 215 897 235 909 q 171 885 195 885 q 126 897 147 885 q 94 929 106 909 q 82 974 82 950 q 94 1018 82 998 q 126 1050 106 1038 q 171 1063 147 1063 m 593 1063 q 637 1050 617 1063 q 670 1018 658 1038 q 682 974 682 998 q 670 929 682 950 q 637 897 658 909 q 593 885 617 885 q 549 897 570 885 q 516 929 528 909 q 505 974 505 950 q 516 1018 505 998 q 549 1050 528 1038 q 593 1063 570 1063 m 671 160 q 651 -58 671 34 q 581 -205 632 -150 q 439 -261 530 -261 q 355 -241 384 -261 q 326 -183 326 -220 q 345 -134 326 -153 q 395 -115 363 -115 q 441 -132 423 -115 q 460 -176 460 -148 q 412 -239 460 -219 q 436 -240 421 -240 q 500 -222 476 -240 q 535 -166 524 -204 q 546 -64 546 -127 l 546 157 q 461 27 520 74 q 318 -20 403 -20 q 174 33 224 -20 q 138 104 149 60 q 127 215 127 147 l 127 564 q 104 657 127 628 q 22 686 81 686 l 22 715 q 109 711 66 711 q 253 730 196 711 l 253 184 q 259 99 253 132 q 288 46 265 66 q 358 25 311 25 q 457 58 414 25 q 523 148 500 91 q 546 277 546 205 l 546 564 q 523 657 546 628 q 440 686 499 686 l 440 715 q 526 711 484 711 q 671 730 614 711 l 671 160 z "},"":{"ha":453,"x_min":-208,"x_max":500,"o":"m 404 956 q 331 945 354 954 q 300 912 309 936 q 292 836 292 888 l 292 328 q 287 118 292 210 q 268 -35 283 27 q 213 -151 252 -100 q 113 -232 174 -202 q -25 -261 52 -261 q -142 -236 -93 -261 q -208 -140 -208 -201 q -188 -87 -208 -108 q -135 -66 -167 -66 q -80 -87 -102 -66 q -58 -142 -58 -107 q -74 -189 -58 -171 q -117 -212 -90 -207 q -78 -230 -104 -224 q -28 -235 -52 -235 q 76 -203 33 -235 q 139 -117 120 -172 q 158 -8 153 -73 q 163 201 163 56 l 163 836 q 154 912 163 888 q 123 945 146 936 q 50 956 100 954 l 50 983 q 228 979 108 979 q 404 983 339 979 l 404 956 m 241 1272 q 342 1169 273 1218 q 500 1089 411 1120 l 493 1069 q 328 1114 409 1087 q 200 1166 248 1141 q 95 1114 161 1141 q -37 1069 30 1087 l -44 1089 q 114 1169 45 1120 q 216 1272 182 1218 l 241 1272 z "},"":{"ha":371,"x_min":-89,"x_max":430,"o":"m 261 160 q 246 -38 261 47 q 187 -176 231 -122 q 110 -239 155 -218 q 20 -261 65 -261 q -58 -240 -29 -261 q -89 -176 -89 -217 q -69 -124 -89 -144 q -17 -104 -49 -104 q 36 -121 16 -104 q 56 -172 56 -138 q 3 -239 56 -220 q 26 -240 11 -240 q 104 -208 75 -240 q 136 -90 136 -168 l 136 564 q 113 657 136 628 q 31 686 90 686 l 31 715 q 117 711 74 711 q 261 730 205 711 l 261 160 m 198 1114 q 289 979 227 1043 q 430 875 351 914 l 419 856 q 273 919 344 882 q 158 994 201 957 q 67 919 123 957 q -47 856 11 882 l -59 875 q 82 979 20 914 q 173 1114 144 1043 l 198 1114 z "},"":{"ha":909,"x_min":58,"x_max":908,"o":"m 786 113 q 838 58 809 77 q 908 28 866 38 l 908 0 q 742 4 842 4 q 599 0 667 4 l 599 28 q 647 36 631 29 q 663 57 663 43 q 648 90 663 70 l 446 396 q 397 459 418 439 q 356 487 377 479 q 300 497 334 495 l 300 147 q 308 71 300 95 q 339 39 317 47 q 412 28 362 30 l 412 0 q 236 4 349 4 q 58 0 117 4 l 58 28 q 131 39 109 30 q 162 71 154 47 q 171 147 171 95 l 171 836 q 162 912 171 888 q 131 945 154 936 q 58 956 109 954 l 58 983 q 236 979 116 979 q 412 983 349 979 l 412 956 q 339 945 362 954 q 308 912 317 936 q 300 836 300 888 l 300 525 q 458 603 401 529 l 591 772 q 663 905 663 863 q 576 956 663 954 l 576 983 q 736 979 656 979 q 854 983 813 979 l 854 956 q 768 926 808 949 q 690 854 728 903 l 464 564 l 786 113 m 439 -310 q 500 -276 475 -299 q 526 -222 526 -253 q 467 -244 500 -244 q 415 -224 435 -244 q 395 -170 395 -205 q 417 -117 395 -138 q 473 -96 440 -96 q 538 -124 513 -96 q 563 -193 563 -152 q 538 -278 563 -245 q 449 -335 513 -311 l 439 -310 z "},"":{"ha":764,"x_min":11,"x_max":754,"o":"m 657 102 q 704 50 683 66 q 754 29 725 33 l 754 0 q 642 5 670 5 q 488 0 604 5 l 488 29 q 519 37 507 29 q 530 56 530 44 q 522 77 530 65 l 363 310 q 317 357 338 345 q 258 371 296 370 l 258 129 q 268 68 258 90 q 296 38 277 47 q 350 29 315 29 l 350 0 q 196 5 233 5 q 28 0 155 5 l 28 29 q 90 38 67 29 q 123 68 113 47 q 134 129 134 90 l 134 922 q 110 1016 134 987 q 28 1044 87 1044 l 28 1074 q 114 1069 72 1069 q 258 1089 203 1069 l 258 399 q 326 418 299 405 q 378 457 353 431 l 481 564 q 525 640 525 610 q 497 676 525 665 q 422 688 469 688 l 422 715 q 579 710 519 710 q 700 715 644 710 l 700 688 q 575 623 632 682 l 406 445 l 657 102 m 56 -310 q 117 -276 92 -299 q 142 -222 142 -253 q 83 -244 117 -244 q 31 -224 52 -244 q 11 -170 11 -205 q 34 -117 11 -138 q 89 -96 56 -96 q 154 -124 129 -96 q 179 -193 179 -152 q 154 -278 179 -245 q 65 -335 130 -311 l 56 -310 z "},"":{"ha":782,"x_min":40,"x_max":766,"o":"m 668 106 q 722 52 699 71 q 766 29 745 33 l 766 0 q 654 5 685 5 q 500 0 616 5 l 500 29 q 532 37 520 29 q 544 56 544 44 q 534 77 544 67 l 349 282 q 308 323 326 310 q 271 339 290 337 l 271 129 q 280 68 271 90 q 309 38 289 47 q 363 29 328 29 l 363 0 q 208 5 246 5 q 40 0 168 5 l 40 29 q 102 38 79 29 q 135 68 125 47 q 146 129 146 90 l 146 564 q 122 657 146 628 q 40 686 99 686 l 40 715 q 126 711 83 711 q 271 730 214 711 l 271 368 q 330 388 307 374 q 379 429 353 402 l 545 611 q 564 650 564 633 q 545 678 564 668 q 490 688 526 688 l 490 715 q 633 711 564 711 q 726 715 690 711 l 726 688 q 661 672 688 684 q 602 623 634 659 l 399 400 l 668 106 z "},"":{"ha":817,"x_min":58,"x_max":779,"o":"m 412 956 q 339 945 362 954 q 308 912 317 936 q 300 836 300 888 l 300 147 q 308 72 300 95 q 339 40 317 48 q 412 32 362 32 l 514 32 q 646 56 601 32 q 711 134 691 81 q 742 292 731 188 l 774 292 q 770 178 770 248 q 779 0 770 99 q 461 4 685 4 q 58 0 195 4 l 58 28 q 131 39 109 30 q 162 71 154 47 q 171 147 171 95 l 171 836 q 162 912 171 888 q 131 945 154 936 q 58 956 109 954 l 58 983 q 236 979 116 979 q 412 983 349 979 l 412 956 m 151 1090 q 228 1153 195 1124 q 309 1224 261 1181 q 385 1286 357 1268 q 427 1299 406 1299 q 469 1276 454 1299 q 477 1251 477 1263 q 440 1196 477 1220 q 363 1160 412 1179 q 268 1122 314 1141 q 161 1072 221 1103 l 151 1090 z "},"":{"ha":397,"x_min":31,"x_max":439,"o":"m 261 129 q 272 68 261 90 q 305 38 282 47 q 367 29 328 29 l 367 0 q 199 5 239 5 q 31 0 158 5 l 31 29 q 93 38 70 29 q 126 68 115 47 q 136 129 136 90 l 136 922 q 113 1016 136 987 q 31 1044 90 1044 l 31 1074 q 117 1069 74 1069 q 261 1089 206 1069 l 261 129 m 114 1179 q 191 1241 158 1213 q 272 1313 224 1270 q 347 1375 319 1357 q 389 1388 368 1388 q 432 1365 416 1388 q 439 1339 439 1352 q 403 1284 439 1309 q 326 1249 375 1267 q 230 1211 277 1230 q 123 1161 184 1192 l 114 1179 z "},"":{"ha":817,"x_min":58,"x_max":779,"o":"m 412 956 q 339 945 362 954 q 308 912 317 936 q 300 836 300 888 l 300 147 q 308 72 300 95 q 339 40 317 48 q 412 32 362 32 l 514 32 q 646 56 601 32 q 711 134 691 81 q 742 292 731 188 l 774 292 q 770 178 770 248 q 779 0 770 99 q 461 4 685 4 q 58 0 195 4 l 58 28 q 131 39 109 30 q 162 71 154 47 q 171 147 171 95 l 171 836 q 162 912 171 888 q 131 945 154 936 q 58 956 109 954 l 58 983 q 236 979 116 979 q 412 983 349 979 l 412 956 m 420 -310 q 481 -276 456 -299 q 506 -222 506 -253 q 448 -244 481 -244 q 395 -224 416 -244 q 375 -170 375 -205 q 398 -117 375 -138 q 453 -96 420 -96 q 518 -124 493 -96 q 543 -193 543 -152 q 518 -278 543 -245 q 429 -335 494 -311 l 420 -310 z "},"":{"ha":397,"x_min":-180,"x_max":367,"o":"m 261 129 q 272 68 261 90 q 305 38 282 47 q 367 29 328 29 l 367 0 q 199 5 239 5 q 31 0 158 5 l 31 29 q 93 38 70 29 q 126 68 115 47 q 136 129 136 90 l 136 922 q 113 1016 136 987 q 31 1044 90 1044 l 31 1074 q 117 1069 74 1069 q 261 1089 206 1069 l 261 129 m -136 -310 q -74 -276 -100 -299 q -50 -222 -49 -253 q -108 -244 -75 -244 q -160 -224 -140 -244 q -180 -170 -180 -205 q -158 -117 -180 -138 q -102 -96 -135 -96 q -37 -124 -62 -96 q -12 -193 -12 -152 q -37 -278 -12 -245 q -126 -335 -62 -311 l -136 -310 z "},"":{"ha":817,"x_min":58,"x_max":779,"o":"m 412 956 q 339 945 362 954 q 308 912 317 936 q 300 836 300 888 l 300 147 q 308 72 300 95 q 339 40 317 48 q 412 32 362 32 l 514 32 q 646 56 601 32 q 711 134 691 81 q 742 292 731 188 l 774 292 q 770 178 770 248 q 779 0 770 99 q 461 4 685 4 q 58 0 195 4 l 58 28 q 131 39 109 30 q 162 71 154 47 q 171 147 171 95 l 171 836 q 162 912 171 888 q 131 945 154 936 q 58 956 109 954 l 58 983 q 236 979 116 979 q 412 983 349 979 l 412 956 m 461 983 q 518 981 490 981 q 608 991 565 981 q 615 942 615 976 q 601 876 615 913 q 565 795 587 838 q 494 664 543 753 l 475 669 q 503 899 503 846 q 494 941 503 928 q 461 954 486 954 l 461 983 z "},"":{"ha":397,"x_min":31,"x_max":460,"o":"m 261 129 q 272 68 261 90 q 305 38 282 47 q 367 29 328 29 l 367 0 q 199 5 239 5 q 31 0 158 5 l 31 29 q 93 38 70 29 q 126 68 115 47 q 136 129 136 90 l 136 922 q 113 1016 136 987 q 31 1044 90 1044 l 31 1074 q 117 1069 74 1069 q 261 1089 206 1069 l 261 129 m 347 1074 q 370 1073 355 1073 q 452 1089 411 1073 q 457 1063 455 1082 q 460 1032 460 1045 q 439 943 460 996 q 366 782 418 890 l 347 787 q 375 989 375 948 q 369 1031 375 1018 q 347 1044 363 1044 l 347 1074 z "},"":{"ha":860,"x_min":58,"x_max":822,"o":"m 412 956 q 339 945 362 954 q 308 912 317 936 q 300 836 300 888 l 300 147 q 308 72 300 95 q 339 40 317 48 q 412 32 362 32 l 514 32 q 646 56 601 32 q 711 134 691 81 q 742 292 731 188 l 774 292 q 770 178 770 248 q 779 0 770 99 q 461 4 685 4 q 58 0 195 4 l 58 28 q 131 39 109 30 q 162 71 154 47 q 171 147 171 95 l 171 836 q 162 912 171 888 q 131 945 154 936 q 58 956 109 954 l 58 983 q 236 979 116 979 q 412 983 349 979 l 412 956 m 733 583 q 778 571 757 583 q 810 539 798 559 q 822 494 822 518 q 810 450 822 471 q 778 418 798 430 q 733 406 757 406 q 689 418 709 406 q 656 450 668 430 q 644 494 644 471 q 656 539 644 518 q 689 571 668 559 q 733 583 709 583 z "},"":{"ha":591,"x_min":31,"x_max":583,"o":"m 261 129 q 272 68 261 90 q 305 38 282 47 q 367 29 328 29 l 367 0 q 199 5 239 5 q 31 0 158 5 l 31 29 q 93 38 70 29 q 126 68 115 47 q 136 129 136 90 l 136 922 q 113 1016 136 987 q 31 1044 90 1044 l 31 1074 q 117 1069 74 1069 q 261 1089 206 1069 l 261 129 m 494 498 q 539 487 518 498 q 571 454 559 475 q 583 410 583 433 q 571 366 583 386 q 539 333 559 345 q 494 321 518 321 q 450 333 471 321 q 417 366 429 345 q 406 410 406 386 q 417 454 406 433 q 450 487 429 475 q 494 498 471 498 z "},"":{"ha":817,"x_min":58,"x_max":779,"o":"m 774 292 q 770 178 770 248 q 779 0 770 99 q 461 4 685 4 q 58 0 195 4 l 58 28 q 131 39 109 30 q 162 71 154 47 q 171 147 171 95 l 171 357 l 58 292 l 58 323 l 171 389 l 171 836 q 162 912 171 888 q 131 945 154 936 q 58 956 109 954 l 58 983 q 236 979 116 979 q 412 983 349 979 l 412 956 q 339 945 362 954 q 308 912 317 936 q 300 836 300 888 l 300 450 l 657 657 l 657 625 l 300 418 l 300 147 q 308 72 300 95 q 339 40 317 48 q 412 32 362 32 l 514 32 q 646 56 601 32 q 711 134 691 81 q 742 292 731 188 l 774 292 z "},"":{"ha":397,"x_min":-21,"x_max":418,"o":"m 261 129 q 272 68 261 90 q 305 38 282 47 q 367 29 328 29 l 367 0 q 199 5 239 5 q 31 0 158 5 l 31 29 q 93 38 70 29 q 126 68 115 47 q 136 129 136 90 l 136 461 l -21 325 l -21 367 l 136 503 l 136 922 q 113 1016 136 987 q 31 1044 90 1044 l 31 1074 q 117 1069 74 1069 q 261 1089 206 1069 l 261 598 l 418 734 l 418 693 l 261 556 l 261 129 z "},"":{"ha":981,"x_min":58,"x_max":930,"o":"m 930 956 q 859 942 882 954 q 827 903 836 930 q 818 822 818 876 l 818 -7 l 786 -7 l 203 895 l 203 161 q 212 81 203 108 q 248 42 222 54 q 329 28 274 30 l 329 0 q 187 4 279 4 q 58 0 104 4 l 58 28 q 130 42 106 30 q 162 81 153 54 q 171 161 171 108 l 171 836 q 162 912 171 888 q 131 945 154 936 q 58 956 109 954 l 58 983 q 187 979 104 979 q 296 983 250 979 l 786 228 l 786 822 q 777 903 786 876 q 741 942 768 930 q 660 956 715 954 l 660 983 q 802 979 709 979 q 930 983 884 979 l 930 956 m 435 1090 q 512 1153 479 1124 q 592 1224 545 1181 q 668 1286 640 1268 q 710 1299 689 1299 q 753 1276 737 1299 q 760 1251 760 1263 q 724 1196 760 1220 q 647 1160 696 1179 q 551 1122 597 1141 q 444 1072 505 1103 l 435 1090 z "},"":{"ha":829,"x_min":40,"x_max":808,"o":"m 271 567 q 367 695 305 655 q 507 734 429 734 q 654 682 604 734 q 691 612 680 654 q 703 500 703 570 l 703 129 q 713 68 703 90 q 746 38 724 47 q 808 29 769 29 l 808 0 q 642 5 681 5 q 486 0 603 5 l 486 29 q 540 38 521 29 q 569 68 559 47 q 578 129 578 90 l 578 530 q 570 614 578 581 q 537 669 562 648 q 465 690 513 690 q 364 657 408 690 q 295 566 319 624 q 271 437 271 508 l 271 129 q 280 68 271 90 q 309 38 289 47 q 363 29 328 29 l 363 0 q 207 5 246 5 q 40 0 168 5 l 40 29 q 102 38 79 29 q 135 68 125 47 q 146 129 146 90 l 146 564 q 122 657 146 628 q 40 686 99 686 l 40 715 q 126 711 83 711 q 271 730 214 711 l 271 567 m 339 844 q 390 929 369 891 q 441 1025 411 967 q 490 1108 471 1082 q 543 1139 514 1139 q 574 1129 560 1139 q 593 1090 593 1114 q 574 1043 593 1068 q 513 982 553 1017 q 437 914 473 947 q 354 832 400 881 l 339 844 z "},"":{"ha":981,"x_min":58,"x_max":930,"o":"m 930 956 q 859 942 882 954 q 827 903 836 930 q 818 822 818 876 l 818 -7 l 786 -7 l 203 895 l 203 161 q 212 81 203 108 q 248 42 222 54 q 329 28 274 30 l 329 0 q 187 4 279 4 q 58 0 104 4 l 58 28 q 130 42 106 30 q 162 81 153 54 q 171 161 171 108 l 171 836 q 162 912 171 888 q 131 945 154 936 q 58 956 109 954 l 58 983 q 187 979 104 979 q 296 983 250 979 l 786 228 l 786 822 q 777 903 786 876 q 741 942 768 930 q 660 956 715 954 l 660 983 q 802 979 709 979 q 930 983 884 979 l 930 956 m 469 -310 q 530 -276 505 -299 q 555 -222 555 -253 q 496 -244 530 -244 q 444 -224 465 -244 q 424 -170 424 -205 q 447 -117 424 -138 q 502 -96 469 -96 q 567 -124 542 -96 q 592 -193 592 -152 q 567 -278 592 -245 q 478 -335 543 -311 l 469 -310 z "},"":{"ha":829,"x_min":40,"x_max":808,"o":"m 271 567 q 367 695 305 655 q 507 734 429 734 q 654 682 604 734 q 691 612 680 654 q 703 500 703 570 l 703 129 q 713 68 703 90 q 746 38 724 47 q 808 29 769 29 l 808 0 q 642 5 681 5 q 486 0 603 5 l 486 29 q 540 38 521 29 q 569 68 559 47 q 578 129 578 90 l 578 530 q 570 614 578 581 q 537 669 562 648 q 465 690 513 690 q 364 657 408 690 q 295 566 319 624 q 271 437 271 508 l 271 129 q 280 68 271 90 q 309 38 289 47 q 363 29 328 29 l 363 0 q 207 5 246 5 q 40 0 168 5 l 40 29 q 102 38 79 29 q 135 68 125 47 q 146 129 146 90 l 146 564 q 122 657 146 628 q 40 686 99 686 l 40 715 q 126 711 83 711 q 271 730 214 711 l 271 567 m 104 -310 q 166 -276 140 -299 q 191 -222 191 -253 q 132 -244 165 -244 q 80 -224 100 -244 q 60 -170 60 -205 q 82 -117 60 -138 q 138 -96 105 -96 q 203 -124 178 -96 q 228 -193 228 -152 q 203 -278 228 -245 q 114 -335 178 -311 l 104 -310 z "},"":{"ha":981,"x_min":58,"x_max":930,"o":"m 930 956 q 859 942 882 954 q 827 903 836 930 q 818 822 818 876 l 818 -7 l 786 -7 l 203 895 l 203 161 q 212 81 203 108 q 248 42 222 54 q 329 28 274 30 l 329 0 q 187 4 279 4 q 58 0 104 4 l 58 28 q 130 42 106 30 q 162 81 153 54 q 171 161 171 108 l 171 836 q 162 912 171 888 q 131 945 154 936 q 58 956 109 954 l 58 983 q 187 979 104 979 q 296 983 250 979 l 786 228 l 786 822 q 777 903 786 876 q 741 942 768 930 q 660 956 715 954 l 660 983 q 802 979 709 979 q 930 983 884 979 l 930 956 m 788 1267 q 630 1186 699 1236 q 528 1083 561 1137 l 503 1083 q 401 1186 470 1137 q 243 1267 332 1236 l 250 1286 q 414 1242 333 1269 q 543 1189 495 1215 q 649 1242 583 1215 q 781 1286 714 1269 l 788 1267 z "},"":{"ha":829,"x_min":40,"x_max":808,"o":"m 271 567 q 367 695 305 655 q 507 734 429 734 q 654 682 604 734 q 691 612 680 654 q 703 500 703 570 l 703 129 q 713 68 703 90 q 746 38 724 47 q 808 29 769 29 l 808 0 q 642 5 681 5 q 486 0 603 5 l 486 29 q 540 38 521 29 q 569 68 559 47 q 578 129 578 90 l 578 530 q 570 614 578 581 q 537 669 562 648 q 465 690 513 690 q 364 657 408 690 q 295 566 319 624 q 271 437 271 508 l 271 129 q 280 68 271 90 q 309 38 289 47 q 363 29 328 29 l 363 0 q 207 5 246 5 q 40 0 168 5 l 40 29 q 102 38 79 29 q 135 68 125 47 q 146 129 146 90 l 146 564 q 122 657 146 628 q 40 686 99 686 l 40 715 q 126 711 83 711 q 271 730 214 711 l 271 567 m 656 1095 q 514 991 576 1055 q 424 856 452 926 l 399 856 q 308 991 370 926 q 167 1095 246 1055 l 178 1114 q 325 1050 254 1088 q 439 975 396 1012 q 531 1050 475 1013 q 645 1114 587 1088 l 656 1095 z "},"":{"ha":829,"x_min":-45,"x_max":808,"o":"m 271 567 q 367 695 305 655 q 507 734 429 734 q 654 682 604 734 q 691 612 680 654 q 703 500 703 570 l 703 129 q 713 68 703 90 q 746 38 724 47 q 808 29 769 29 l 808 0 q 642 5 681 5 q 486 0 603 5 l 486 29 q 540 38 521 29 q 569 68 559 47 q 578 129 578 90 l 578 530 q 570 614 578 581 q 537 669 562 648 q 465 690 513 690 q 364 657 408 690 q 295 566 319 624 q 271 437 271 508 l 271 129 q 280 68 271 90 q 309 38 289 47 q 363 29 328 29 l 363 0 q 207 5 246 5 q 40 0 168 5 l 40 29 q 102 38 79 29 q 135 68 125 47 q 146 129 146 90 l 146 564 q 122 657 146 628 q 40 686 99 686 l 40 715 q 126 711 83 711 q 271 730 214 711 l 271 567 m -6 730 q 68 788 37 749 q 100 867 100 827 q 96 896 100 884 q 44 878 72 878 q -19 902 6 878 q -45 966 -45 926 q -19 1030 -45 1004 q 44 1055 7 1055 q 126 1011 98 1055 q 150 920 150 975 q 114 794 150 850 q 7 705 79 739 l -6 730 z "},"":{"ha":979,"x_min":58,"x_max":930,"o":"m 673 983 q 802 979 724 979 q 930 983 885 979 l 930 956 q 858 945 880 954 q 826 912 835 936 q 818 836 818 888 l 818 126 q 792 -111 818 -26 q 724 -229 767 -197 q 621 -261 681 -261 q 531 -240 567 -261 q 496 -175 496 -219 q 514 -125 496 -144 q 561 -106 533 -106 q 610 -125 589 -106 q 631 -171 631 -144 q 621 -207 631 -189 q 595 -235 610 -225 q 627 -237 611 -237 q 783 -3 766 -237 l 203 895 l 203 147 q 211 71 203 95 q 242 39 220 47 q 315 28 265 30 l 315 0 q 187 4 265 4 q 58 0 104 4 l 58 28 q 131 39 109 30 q 162 71 154 47 q 171 147 171 95 l 171 836 q 162 912 171 888 q 131 945 154 936 q 58 956 109 954 l 58 983 q 187 979 104 979 q 315 983 264 979 l 786 256 l 786 836 q 778 912 786 888 q 746 945 769 936 q 673 956 724 954 l 673 983 z "},"":{"ha":804,"x_min":40,"x_max":703,"o":"m 271 567 q 367 694 305 655 q 507 733 429 733 q 654 681 604 733 q 691 611 680 652 q 703 498 703 569 l 703 160 q 687 -38 703 47 q 629 -176 672 -122 q 552 -239 597 -218 q 461 -261 507 -261 q 392 -240 416 -261 q 368 -187 368 -219 q 386 -140 368 -159 q 433 -122 404 -122 q 478 -140 461 -122 q 496 -184 496 -158 q 473 -240 496 -217 q 550 -205 527 -234 q 571 -161 565 -189 q 578 -90 578 -129 l 578 529 q 570 613 578 579 q 537 668 562 647 q 465 689 513 689 q 364 656 408 689 q 295 565 319 623 q 271 437 271 508 l 271 129 q 280 68 271 90 q 309 38 289 47 q 363 29 328 29 l 363 0 q 207 5 246 5 q 40 0 168 5 l 40 29 q 102 38 79 29 q 135 68 125 47 q 146 129 146 90 l 146 564 q 122 657 146 628 q 40 686 99 686 l 40 715 q 126 711 83 711 q 271 730 214 711 l 271 567 z "},"":{"ha":1029,"x_min":74,"x_max":956,"o":"m 515 1003 q 747 943 648 1003 q 901 770 846 884 q 956 500 956 656 q 899 229 956 347 q 743 45 843 111 q 514 -20 642 -20 q 282 40 382 -20 q 129 213 183 100 q 74 484 74 327 q 130 755 74 637 q 287 938 186 873 q 515 1003 387 1003 m 510 978 q 353 916 421 978 q 249 743 286 854 q 212 489 212 632 q 253 235 212 345 q 364 65 294 125 q 519 5 434 5 q 676 67 608 5 q 780 240 743 130 q 817 494 817 351 q 776 749 817 639 q 665 918 735 859 q 510 978 595 978 m 268 1137 l 268 1173 l 757 1173 l 757 1137 l 268 1137 z "},"":{"ha":761,"x_min":65,"x_max":696,"o":"m 380 734 q 543 694 472 734 q 655 570 614 654 q 696 357 696 486 q 655 144 696 228 q 543 20 614 60 q 380 -20 472 -20 q 218 20 289 -20 q 106 144 147 60 q 65 357 65 228 q 106 570 65 486 q 218 694 147 654 q 380 734 289 734 m 380 707 q 249 621 297 707 q 200 357 200 536 q 249 93 200 178 q 380 8 297 8 q 512 93 464 8 q 561 357 561 178 q 512 621 561 536 q 380 707 464 707 m 163 954 l 163 989 l 597 989 l 597 954 l 163 954 z "},"":{"ha":1029,"x_min":74,"x_max":956,"o":"m 515 1003 q 747 943 648 1003 q 901 770 846 884 q 956 500 956 656 q 899 229 956 347 q 743 45 843 111 q 514 -20 642 -20 q 282 40 382 -20 q 129 213 183 100 q 74 484 74 327 q 130 755 74 637 q 287 938 186 873 q 515 1003 387 1003 m 510 978 q 353 916 421 978 q 249 743 286 854 q 212 489 212 632 q 253 235 212 345 q 364 65 294 125 q 519 5 434 5 q 676 67 608 5 q 780 240 743 130 q 817 494 817 351 q 776 749 817 639 q 665 918 735 859 q 510 978 595 978 m 789 1247 q 679 1134 749 1181 q 513 1086 609 1086 q 347 1134 416 1086 q 236 1247 277 1181 l 254 1261 q 357 1198 292 1224 q 513 1173 421 1173 q 669 1199 604 1173 q 772 1263 734 1225 l 789 1247 z "},"":{"ha":761,"x_min":65,"x_max":696,"o":"m 380 734 q 543 694 472 734 q 655 570 614 654 q 696 357 696 486 q 655 144 696 228 q 543 20 614 60 q 380 -20 472 -20 q 218 20 289 -20 q 106 144 147 60 q 65 357 65 228 q 106 570 65 486 q 218 694 147 654 q 380 734 289 734 m 380 707 q 249 621 297 707 q 200 357 200 536 q 249 93 200 178 q 380 8 297 8 q 512 93 464 8 q 561 357 561 178 q 512 621 561 536 q 380 707 464 707 m 632 1082 q 534 939 597 999 q 383 879 471 879 q 233 939 296 879 q 135 1082 170 999 l 158 1095 q 383 961 239 961 q 519 999 465 961 q 608 1095 574 1038 l 632 1082 z "},"":{"ha":1029,"x_min":74,"x_max":956,"o":"m 515 1003 q 747 943 648 1003 q 901 770 846 884 q 956 500 956 656 q 899 229 956 347 q 743 45 843 111 q 514 -20 642 -20 q 282 40 382 -20 q 129 213 183 100 q 74 484 74 327 q 130 755 74 637 q 287 938 186 873 q 515 1003 387 1003 m 510 978 q 353 916 421 978 q 249 743 286 854 q 212 489 212 632 q 253 235 212 345 q 364 65 294 125 q 519 5 434 5 q 676 67 608 5 q 780 240 743 130 q 817 494 817 351 q 776 749 817 639 q 665 918 735 859 q 510 978 595 978 m 307 1089 q 372 1164 339 1121 q 426 1235 405 1208 q 469 1280 447 1261 q 516 1301 492 1301 q 554 1283 540 1301 q 567 1251 567 1269 q 538 1198 567 1223 q 496 1170 519 1183 q 415 1128 473 1157 q 319 1072 357 1099 l 307 1089 m 567 1089 q 632 1164 599 1121 q 686 1235 665 1208 q 729 1280 707 1261 q 776 1301 752 1301 q 814 1283 800 1301 q 827 1251 827 1269 q 798 1198 827 1223 q 755 1170 779 1183 q 675 1128 732 1157 q 579 1072 617 1099 l 567 1089 z "},"":{"ha":761,"x_min":65,"x_max":702,"o":"m 380 734 q 543 694 472 734 q 655 570 614 654 q 696 357 696 486 q 655 144 696 228 q 543 20 614 60 q 380 -20 472 -20 q 218 20 289 -20 q 106 144 147 60 q 65 357 65 228 q 106 570 65 486 q 218 694 147 654 q 380 734 289 734 m 380 707 q 249 621 297 707 q 200 357 200 536 q 249 93 200 178 q 380 8 297 8 q 512 93 464 8 q 561 357 561 178 q 512 621 561 536 q 380 707 464 707 m 201 844 q 252 929 231 891 q 302 1025 273 967 q 352 1108 332 1082 q 406 1139 376 1139 q 435 1129 422 1139 q 454 1090 454 1114 q 435 1043 454 1068 q 375 982 415 1017 q 299 914 335 947 q 216 832 262 881 l 201 844 m 448 844 q 499 929 478 891 q 550 1025 520 967 q 600 1108 580 1082 q 652 1139 623 1139 q 683 1129 670 1139 q 702 1090 702 1114 q 683 1043 702 1068 q 623 982 663 1017 q 546 914 583 947 q 463 832 509 881 l 448 844 z "},"":{"ha":1289,"x_min":74,"x_max":1222,"o":"m 1217 278 q 1213 178 1213 241 q 1222 0 1213 99 q 932 4 1136 4 q 628 1 737 4 q 514 -20 571 -20 q 282 40 382 -20 q 129 213 183 100 q 74 484 74 327 q 130 755 74 637 q 287 938 186 873 q 515 1003 387 1003 q 637 982 580 1003 q 932 979 749 979 q 1194 983 1117 979 q 1185 819 1185 892 q 1189 733 1185 765 l 1157 733 q 1132 867 1147 823 q 1080 931 1116 911 q 971 951 1044 951 l 925 951 q 852 943 875 951 q 821 912 829 935 q 812 836 812 888 l 812 509 l 872 509 q 965 544 941 509 q 994 616 988 579 q 1002 664 1000 652 l 1034 664 q 1029 556 1029 608 l 1029 494 q 1038 325 1029 435 l 1006 325 q 998 382 1004 334 q 960 456 991 431 q 872 481 928 481 l 812 481 l 812 147 q 821 72 812 95 q 852 40 829 48 q 925 32 875 32 l 957 32 q 1089 55 1044 32 q 1154 129 1134 78 q 1185 278 1174 180 l 1217 278 m 684 836 q 635 943 684 908 q 510 978 587 978 q 353 916 421 978 q 249 743 286 854 q 212 489 212 632 q 253 235 212 345 q 364 65 294 125 q 519 5 434 5 q 596 21 558 5 q 659 68 634 36 q 684 147 684 100 l 684 836 z "},"":{"ha":1160,"x_min":66,"x_max":1100,"o":"m 1100 167 q 1051 76 1084 118 q 967 7 1017 33 q 854 -20 916 -20 q 704 22 768 -20 q 604 138 640 63 q 508 19 569 58 q 368 -20 446 -20 q 213 20 281 -20 q 106 144 145 60 q 66 357 66 229 q 106 570 66 486 q 213 693 145 654 q 368 733 281 733 q 510 693 448 733 q 606 570 572 652 q 705 692 642 649 q 848 734 767 734 q 1031 659 967 734 q 1095 429 1095 583 l 674 429 q 669 340 669 393 q 700 180 669 249 q 779 75 730 112 q 882 39 827 39 q 991 71 944 39 q 1072 178 1039 103 l 1100 167 m 961 456 q 950 583 963 526 q 910 674 938 640 q 843 708 883 708 q 764 681 800 708 q 704 597 728 654 q 672 456 680 541 l 961 456 m 368 8 q 490 93 445 8 q 534 357 534 178 q 490 620 534 535 q 368 705 445 705 q 246 621 291 705 q 201 357 201 536 q 246 93 201 178 q 368 8 291 8 z "},"":{"ha":900,"x_min":58,"x_max":917,"o":"m 917 69 q 852 1 884 22 q 768 -20 821 -20 q 675 14 711 -20 q 619 131 638 47 l 589 269 q 558 381 572 342 q 514 443 543 420 q 432 467 484 467 l 300 467 l 300 147 q 308 71 300 95 q 339 39 317 47 q 412 28 362 30 l 412 0 q 236 4 349 4 q 58 0 117 4 l 58 28 q 131 39 109 30 q 162 71 154 47 q 171 147 171 95 l 171 836 q 162 912 171 888 q 131 945 154 936 q 58 956 109 954 l 58 983 q 228 979 117 979 q 348 981 282 979 q 437 982 413 982 q 621 950 546 982 q 734 864 696 919 q 772 741 772 810 q 747 631 772 686 q 661 532 722 576 q 503 473 600 488 l 519 471 q 619 440 582 460 q 679 383 656 419 q 714 288 701 347 l 749 146 q 767 79 758 103 q 788 43 776 55 q 820 32 801 32 q 858 44 843 32 q 896 85 873 56 l 917 69 m 393 494 q 540 524 487 494 q 613 604 593 554 q 633 725 633 654 q 579 897 633 839 q 403 956 525 956 q 338 946 359 956 q 308 911 316 936 q 300 836 300 886 l 300 494 l 393 494 m 326 1090 q 403 1153 370 1124 q 484 1224 436 1181 q 559 1286 532 1268 q 602 1299 581 1299 q 644 1276 629 1299 q 652 1251 652 1263 q 615 1196 652 1220 q 538 1160 587 1179 q 443 1122 489 1141 q 336 1072 396 1103 l 326 1090 z "},"":{"ha":618,"x_min":40,"x_max":599,"o":"m 271 557 q 316 641 286 600 q 386 708 345 682 q 472 734 427 734 q 537 720 509 734 q 583 680 566 705 q 599 625 599 655 q 577 563 599 589 q 519 538 555 538 q 467 557 489 538 q 446 610 446 576 q 493 685 446 655 q 464 699 484 699 q 365 656 409 699 q 296 553 321 614 q 271 437 271 491 l 271 143 q 307 54 271 79 q 418 29 344 29 l 418 0 q 204 5 247 5 q 40 0 168 5 l 40 29 q 102 38 79 29 q 135 68 125 47 q 146 129 146 90 l 146 564 q 122 657 146 628 q 40 686 99 686 l 40 715 q 126 711 83 711 q 271 730 214 711 l 271 557 m 241 844 q 292 929 271 891 q 343 1025 313 967 q 393 1108 373 1082 q 446 1139 416 1139 q 476 1129 463 1139 q 495 1090 495 1114 q 476 1043 495 1068 q 416 982 456 1017 q 339 914 376 947 q 256 832 302 881 l 241 844 z "},"":{"ha":900,"x_min":58,"x_max":917,"o":"m 917 69 q 852 1 884 22 q 768 -20 821 -20 q 675 14 711 -20 q 619 131 638 47 l 589 269 q 558 381 572 342 q 514 443 543 420 q 432 467 484 467 l 300 467 l 300 147 q 308 71 300 95 q 339 39 317 47 q 412 28 362 30 l 412 0 q 236 4 349 4 q 58 0 117 4 l 58 28 q 131 39 109 30 q 162 71 154 47 q 171 147 171 95 l 171 836 q 162 912 171 888 q 131 945 154 936 q 58 956 109 954 l 58 983 q 228 979 117 979 q 348 981 282 979 q 437 982 413 982 q 621 950 546 982 q 734 864 696 919 q 772 741 772 810 q 747 631 772 686 q 661 532 722 576 q 503 473 600 488 l 519 471 q 619 440 582 460 q 679 383 656 419 q 714 288 701 347 l 749 146 q 767 79 758 103 q 788 43 776 55 q 820 32 801 32 q 858 44 843 32 q 896 85 873 56 l 917 69 m 393 494 q 540 524 487 494 q 613 604 593 554 q 633 725 633 654 q 579 897 633 839 q 403 956 525 956 q 338 946 359 956 q 308 911 316 936 q 300 836 300 886 l 300 494 l 393 494 m 427 -310 q 488 -276 463 -299 q 513 -222 513 -253 q 454 -244 488 -244 q 402 -224 422 -244 q 382 -170 382 -205 q 405 -117 382 -138 q 460 -96 427 -96 q 525 -124 500 -96 q 550 -193 550 -152 q 525 -278 550 -245 q 436 -335 500 -311 l 427 -310 z "},"":{"ha":618,"x_min":-144,"x_max":599,"o":"m 271 557 q 316 641 286 600 q 386 708 345 682 q 472 734 427 734 q 537 720 509 734 q 583 680 566 705 q 599 625 599 655 q 577 563 599 589 q 519 538 555 538 q 467 557 489 538 q 446 610 446 576 q 493 685 446 655 q 464 699 484 699 q 365 656 409 699 q 296 553 321 614 q 271 437 271 491 l 271 143 q 307 54 271 79 q 418 29 344 29 l 418 0 q 204 5 247 5 q 40 0 168 5 l 40 29 q 102 38 79 29 q 135 68 125 47 q 146 129 146 90 l 146 564 q 122 657 146 628 q 40 686 99 686 l 40 715 q 126 711 83 711 q 271 730 214 711 l 271 557 m -100 -310 q -38 -276 -64 -299 q -14 -222 -13 -253 q -72 -244 -39 -244 q -124 -224 -104 -244 q -144 -170 -144 -205 q -122 -117 -144 -138 q -66 -96 -99 -96 q -1 -124 -26 -96 q 24 -193 24 -152 q -1 -278 24 -245 q -90 -335 -26 -311 l -100 -310 z "},"":{"ha":900,"x_min":58,"x_max":917,"o":"m 917 69 q 852 1 884 22 q 768 -20 821 -20 q 675 14 711 -20 q 619 131 638 47 l 589 269 q 558 381 572 342 q 514 443 543 420 q 432 467 484 467 l 300 467 l 300 147 q 308 71 300 95 q 339 39 317 47 q 412 28 362 30 l 412 0 q 236 4 349 4 q 58 0 117 4 l 58 28 q 131 39 109 30 q 162 71 154 47 q 171 147 171 95 l 171 836 q 162 912 171 888 q 131 945 154 936 q 58 956 109 954 l 58 983 q 228 979 117 979 q 348 981 282 979 q 437 982 413 982 q 621 950 546 982 q 734 864 696 919 q 772 741 772 810 q 747 631 772 686 q 661 532 722 576 q 503 473 600 488 l 519 471 q 619 440 582 460 q 679 383 656 419 q 714 288 701 347 l 749 146 q 767 79 758 103 q 788 43 776 55 q 820 32 801 32 q 858 44 843 32 q 896 85 873 56 l 917 69 m 393 494 q 540 524 487 494 q 613 604 593 554 q 633 725 633 654 q 579 897 633 839 q 403 956 525 956 q 338 946 359 956 q 308 911 316 936 q 300 836 300 886 l 300 494 l 393 494 m 680 1267 q 521 1186 590 1236 q 420 1083 452 1137 l 395 1083 q 293 1186 361 1137 q 135 1267 224 1236 l 142 1286 q 306 1242 224 1269 q 435 1189 387 1215 q 540 1242 475 1215 q 672 1286 606 1269 l 680 1267 z "},"":{"ha":618,"x_min":40,"x_max":599,"o":"m 271 557 q 316 641 286 600 q 386 708 345 682 q 472 734 427 734 q 537 720 509 734 q 583 680 566 705 q 599 625 599 655 q 577 563 599 589 q 519 538 555 538 q 467 557 489 538 q 446 610 446 576 q 493 685 446 655 q 464 699 484 699 q 365 656 409 699 q 296 553 321 614 q 271 437 271 491 l 271 143 q 307 54 271 79 q 418 29 344 29 l 418 0 q 204 5 247 5 q 40 0 168 5 l 40 29 q 102 38 79 29 q 135 68 125 47 q 146 129 146 90 l 146 564 q 122 657 146 628 q 40 686 99 686 l 40 715 q 126 711 83 711 q 271 730 214 711 l 271 557 m 558 1095 q 417 991 479 1055 q 326 856 355 926 l 301 856 q 211 991 273 926 q 69 1095 149 1055 l 81 1114 q 227 1050 156 1088 q 342 975 298 1012 q 433 1050 377 1013 q 547 1114 489 1088 l 558 1095 z "},"":{"ha":750,"x_min":87,"x_max":682,"o":"m 125 323 q 194 95 134 182 q 378 8 254 8 q 466 28 425 8 q 533 89 507 47 q 558 193 558 131 q 532 289 558 247 q 461 367 506 332 q 342 447 416 402 q 209 536 259 496 q 126 630 159 575 q 94 758 94 684 q 130 891 94 837 q 225 972 165 945 q 355 999 284 999 q 429 992 398 999 q 480 974 460 985 q 525 947 500 964 q 572 928 556 928 q 592 942 585 928 q 603 989 599 957 l 635 989 q 628 705 628 907 l 596 705 q 565 837 591 777 q 491 935 540 897 q 368 972 441 972 q 281 952 319 972 q 220 895 242 932 q 199 811 199 859 q 244 690 199 736 q 350 607 290 644 q 432 557 411 570 q 570 461 519 502 q 652 368 621 421 q 682 244 682 315 q 643 99 682 159 q 537 10 604 40 q 387 -20 470 -20 q 278 -6 321 -20 q 197 32 235 8 q 150 52 166 52 q 130 37 137 52 q 119 -9 123 22 l 87 -9 q 93 323 93 66 l 125 323 m 297 1090 q 374 1153 341 1124 q 455 1224 407 1181 q 530 1286 503 1268 q 572 1299 551 1299 q 615 1276 600 1299 q 623 1251 623 1263 q 586 1196 623 1220 q 509 1160 558 1179 q 413 1122 460 1141 q 307 1072 367 1103 l 297 1090 z "},"":{"ha":619,"x_min":77,"x_max":554,"o":"m 114 268 q 143 126 124 182 q 201 39 162 71 q 307 8 241 8 q 366 21 338 8 q 412 64 394 35 q 431 140 431 94 q 411 209 431 178 q 361 263 392 239 q 273 322 330 287 q 169 393 205 366 q 107 461 132 421 q 82 555 82 501 q 110 655 82 614 q 184 715 138 695 q 288 734 231 734 q 375 719 336 734 q 439 684 414 703 q 463 672 454 672 q 494 733 488 672 l 526 733 q 521 497 521 665 l 489 497 q 430 648 474 589 q 300 708 386 708 q 218 680 250 708 q 186 602 186 652 q 219 521 186 553 q 298 460 252 489 q 364 418 345 431 q 467 344 428 376 q 530 270 506 312 q 554 175 554 229 q 522 70 554 113 q 435 3 490 26 q 317 -20 381 -20 q 207 0 255 -20 q 150 37 180 14 q 137 43 144 43 q 109 -9 117 43 l 77 -9 q 82 268 82 70 l 114 268 m 231 844 q 281 929 260 891 q 332 1025 302 967 q 382 1108 362 1082 q 435 1139 406 1139 q 465 1129 452 1139 q 484 1090 484 1114 q 465 1043 484 1068 q 405 982 445 1017 q 328 914 365 947 q 245 832 292 881 l 231 844 z "},"":{"ha":750,"x_min":87,"x_max":682,"o":"m 125 323 q 194 95 134 182 q 378 8 254 8 q 466 28 425 8 q 533 89 507 47 q 558 193 558 131 q 532 289 558 247 q 461 367 506 332 q 342 447 416 402 q 209 536 259 496 q 126 630 159 575 q 94 758 94 684 q 130 891 94 837 q 225 972 165 945 q 355 999 284 999 q 429 992 398 999 q 480 974 460 985 q 525 947 500 964 q 572 928 556 928 q 592 942 585 928 q 603 989 599 957 l 635 989 q 628 705 628 907 l 596 705 q 565 837 591 777 q 491 935 540 897 q 368 972 441 972 q 281 952 319 972 q 220 895 242 932 q 199 811 199 859 q 244 690 199 736 q 350 607 290 644 q 432 557 411 570 q 570 461 519 502 q 652 368 621 421 q 682 244 682 315 q 643 99 682 159 q 537 10 604 40 q 387 -20 470 -20 q 278 -6 321 -20 q 197 32 235 8 q 150 52 166 52 q 130 37 137 52 q 119 -9 123 22 l 87 -9 q 93 323 93 66 l 125 323 m 395 1272 q 496 1169 427 1218 q 654 1089 565 1120 l 647 1069 q 482 1114 563 1087 q 354 1166 401 1141 q 249 1114 315 1141 q 117 1069 184 1087 l 110 1089 q 268 1169 199 1120 q 370 1272 336 1218 l 395 1272 z "},"":{"ha":619,"x_min":72,"x_max":561,"o":"m 114 268 q 143 126 124 182 q 201 39 162 71 q 307 8 241 8 q 366 21 338 8 q 412 64 394 35 q 431 140 431 94 q 411 209 431 178 q 361 263 392 239 q 273 322 330 287 q 169 393 205 366 q 107 461 132 421 q 82 555 82 501 q 110 655 82 614 q 184 715 138 695 q 288 734 231 734 q 375 719 336 734 q 439 684 414 703 q 463 672 454 672 q 494 733 488 672 l 526 733 q 521 497 521 665 l 489 497 q 430 648 474 589 q 300 708 386 708 q 218 680 250 708 q 186 602 186 652 q 219 521 186 553 q 298 460 252 489 q 364 418 345 431 q 467 344 428 376 q 530 270 506 312 q 554 175 554 229 q 522 70 554 113 q 435 3 490 26 q 317 -20 381 -20 q 207 0 255 -20 q 150 37 180 14 q 137 43 144 43 q 109 -9 117 43 l 77 -9 q 82 268 82 70 l 114 268 m 329 1114 q 419 979 357 1043 q 561 875 481 914 l 550 856 q 404 919 475 882 q 289 994 332 957 q 198 919 254 957 q 83 856 142 882 l 72 875 q 213 979 151 914 q 304 1114 275 1043 l 329 1114 z "},"":{"ha":750,"x_min":87,"x_max":682,"o":"m 125 323 q 194 95 134 182 q 378 8 254 8 q 466 28 425 8 q 533 89 507 47 q 558 193 558 131 q 532 289 558 247 q 461 367 506 332 q 342 447 416 402 q 209 536 259 496 q 126 630 159 575 q 94 758 94 684 q 130 891 94 837 q 225 972 165 945 q 355 999 284 999 q 429 992 398 999 q 480 974 460 985 q 525 947 500 964 q 572 928 556 928 q 592 942 585 928 q 603 989 599 957 l 635 989 q 628 705 628 907 l 596 705 q 565 837 591 777 q 491 935 540 897 q 368 972 441 972 q 281 952 319 972 q 220 895 242 932 q 199 811 199 859 q 244 690 199 736 q 350 607 290 644 q 432 557 411 570 q 570 461 519 502 q 652 368 621 421 q 682 244 682 315 q 643 99 682 159 q 537 10 604 40 q 387 -20 470 -20 q 278 -6 321 -20 q 197 32 235 8 q 150 52 166 52 q 130 37 137 52 q 119 -9 123 22 l 87 -9 q 93 323 93 66 l 125 323 m 376 -100 q 458 -90 418 -90 q 520 -107 498 -90 q 543 -155 543 -125 q 519 -216 543 -192 q 459 -250 495 -239 q 387 -261 423 -261 q 271 -245 315 -261 l 277 -221 q 330 -225 305 -225 q 417 -211 380 -225 q 454 -163 454 -196 q 396 -123 454 -123 q 328 -134 357 -123 l 375 7 l 413 7 l 376 -100 z "},"":{"ha":619,"x_min":77,"x_max":554,"o":"m 114 268 q 143 126 124 182 q 201 39 162 71 q 307 8 241 8 q 366 21 338 8 q 412 64 394 35 q 431 140 431 94 q 411 209 431 178 q 361 263 392 239 q 273 322 330 287 q 169 393 205 366 q 107 461 132 421 q 82 555 82 501 q 110 655 82 614 q 184 715 138 695 q 288 734 231 734 q 375 719 336 734 q 439 684 414 703 q 463 672 454 672 q 494 733 488 672 l 526 733 q 521 497 521 665 l 489 497 q 430 648 474 589 q 300 708 386 708 q 218 680 250 708 q 186 602 186 652 q 219 521 186 553 q 298 460 252 489 q 364 418 345 431 q 467 344 428 376 q 530 270 506 312 q 554 175 554 229 q 522 70 554 113 q 435 3 490 26 q 317 -20 381 -20 q 207 0 255 -20 q 150 37 180 14 q 137 43 144 43 q 109 -9 117 43 l 77 -9 q 82 268 82 70 l 114 268 m 276 -100 q 358 -90 317 -90 q 420 -107 397 -90 q 443 -155 443 -125 q 419 -216 443 -192 q 359 -250 395 -239 q 286 -261 323 -261 q 170 -245 214 -261 l 176 -221 q 229 -225 205 -225 q 316 -211 279 -225 q 354 -163 354 -196 q 296 -123 354 -123 q 227 -134 256 -123 l 275 8 l 312 8 l 276 -100 z "},"":{"ha":750,"x_min":87,"x_max":682,"o":"m 125 323 q 194 95 134 182 q 378 8 254 8 q 466 28 425 8 q 533 89 507 47 q 558 193 558 131 q 532 289 558 247 q 461 367 506 332 q 342 447 416 402 q 209 536 259 496 q 126 630 159 575 q 94 758 94 684 q 130 891 94 837 q 225 972 165 945 q 355 999 284 999 q 429 992 398 999 q 480 974 460 985 q 525 947 500 964 q 572 928 556 928 q 592 942 585 928 q 603 989 599 957 l 635 989 q 628 705 628 907 l 596 705 q 565 837 591 777 q 491 935 540 897 q 368 972 441 972 q 281 952 319 972 q 220 895 242 932 q 199 811 199 859 q 244 690 199 736 q 350 607 290 644 q 432 557 411 570 q 570 461 519 502 q 652 368 621 421 q 682 244 682 315 q 643 99 682 159 q 537 10 604 40 q 387 -20 470 -20 q 278 -6 321 -20 q 197 32 235 8 q 150 52 166 52 q 130 37 137 52 q 119 -9 123 22 l 87 -9 q 93 323 93 66 l 125 323 m 650 1267 q 492 1186 561 1236 q 391 1083 423 1137 l 366 1083 q 263 1186 332 1137 q 106 1267 195 1236 l 113 1286 q 276 1242 195 1269 q 406 1189 357 1215 q 511 1242 446 1215 q 643 1286 576 1269 l 650 1267 z "},"":{"ha":619,"x_min":58,"x_max":554,"o":"m 114 268 q 143 126 124 182 q 201 39 162 71 q 307 8 241 8 q 366 21 338 8 q 412 64 394 35 q 431 140 431 94 q 411 209 431 178 q 361 263 392 239 q 273 322 330 287 q 169 393 205 366 q 107 461 132 421 q 82 555 82 501 q 110 655 82 614 q 184 715 138 695 q 288 734 231 734 q 375 719 336 734 q 439 684 414 703 q 463 672 454 672 q 494 733 488 672 l 526 733 q 521 497 521 665 l 489 497 q 430 648 474 589 q 300 708 386 708 q 218 680 250 708 q 186 602 186 652 q 219 521 186 553 q 298 460 252 489 q 364 418 345 431 q 467 344 428 376 q 530 270 506 312 q 554 175 554 229 q 522 70 554 113 q 435 3 490 26 q 317 -20 381 -20 q 207 0 255 -20 q 150 37 180 14 q 137 43 144 43 q 109 -9 117 43 l 77 -9 q 82 268 82 70 l 114 268 m 547 1095 q 406 991 468 1055 q 315 856 344 926 l 290 856 q 200 991 262 926 q 58 1095 138 1055 l 70 1114 q 216 1050 145 1088 q 331 975 288 1012 q 422 1050 366 1013 q 536 1114 478 1088 l 547 1095 z "},"":{"ha":863,"x_min":40,"x_max":822,"o":"m 46 692 q 50 806 50 736 q 40 983 50 887 q 432 979 155 979 q 822 983 707 979 q 812 806 812 884 q 817 692 812 736 l 785 692 q 757 851 774 800 q 699 927 741 903 q 571 951 657 951 l 496 951 l 496 161 q 507 77 496 104 q 546 40 517 50 q 636 28 574 30 l 636 0 q 432 4 563 4 q 227 0 293 4 l 227 28 q 317 40 288 30 q 356 77 345 50 q 367 161 367 104 l 367 951 l 292 951 q 164 927 205 951 q 105 851 122 903 q 78 692 89 800 l 46 692 m 411 -100 q 493 -90 452 -90 q 555 -107 532 -90 q 578 -155 578 -125 q 554 -216 578 -192 q 494 -250 530 -239 q 421 -261 458 -261 q 306 -245 350 -261 l 311 -221 q 364 -225 340 -225 q 452 -211 414 -225 q 489 -163 489 -196 q 431 -123 489 -123 q 363 -134 391 -123 l 410 7 l 448 7 l 411 -100 z "},"":{"ha":492,"x_min":5,"x_max":505,"o":"m 469 714 l 469 686 l 264 686 l 264 149 q 286 58 264 85 q 353 31 309 31 q 427 65 396 31 q 478 179 457 100 l 505 172 q 325 -20 471 -20 q 248 -8 278 -20 q 193 26 217 3 q 151 101 163 57 q 139 221 139 146 l 139 686 l 5 686 l 5 714 l 139 714 l 139 926 q 264 946 217 928 l 264 714 l 469 714 m 284 -100 q 366 -90 326 -90 q 428 -107 406 -90 q 451 -155 451 -125 q 427 -216 451 -192 q 367 -250 403 -239 q 294 -261 331 -261 q 178 -245 222 -261 l 184 -221 q 237 -225 213 -225 q 325 -211 287 -225 q 362 -163 362 -196 q 304 -123 362 -123 q 235 -134 264 -123 l 283 8 l 320 8 l 284 -100 z "},"":{"ha":863,"x_min":40,"x_max":822,"o":"m 46 692 q 50 806 50 736 q 40 983 50 887 q 432 979 155 979 q 822 983 707 979 q 812 806 812 884 q 817 692 812 736 l 785 692 q 757 851 774 800 q 699 927 741 903 q 571 951 657 951 l 496 951 l 496 161 q 507 77 496 104 q 546 40 517 50 q 636 28 574 30 l 636 0 q 432 4 563 4 q 227 0 293 4 l 227 28 q 317 40 288 30 q 356 77 345 50 q 367 161 367 104 l 367 951 l 292 951 q 164 927 205 951 q 105 851 122 903 q 78 692 89 800 l 46 692 m 701 1267 q 542 1186 611 1236 q 441 1083 473 1137 l 416 1083 q 314 1186 382 1137 q 156 1267 245 1236 l 163 1286 q 327 1242 245 1269 q 456 1189 408 1215 q 561 1242 496 1215 q 693 1286 627 1269 l 701 1267 z "},"":{"ha":492,"x_min":5,"x_max":505,"o":"m 469 714 l 469 686 l 264 686 l 264 149 q 286 58 264 85 q 353 31 309 31 q 427 65 396 31 q 478 179 457 100 l 505 172 q 325 -20 471 -20 q 248 -8 278 -20 q 193 26 217 3 q 151 101 163 57 q 139 221 139 146 l 139 686 l 5 686 l 5 714 l 139 714 l 139 926 q 264 946 217 928 l 264 714 l 469 714 m 359 1072 q 381 1072 367 1072 q 464 1088 422 1072 q 469 1062 467 1080 q 471 1031 471 1044 q 451 942 471 994 q 378 781 430 889 l 359 786 q 387 987 387 947 q 381 1030 387 1017 q 359 1043 375 1043 l 359 1072 z "},"":{"ha":871,"x_min":43,"x_max":825,"o":"m 49 692 q 53 806 53 736 q 43 983 53 887 q 435 979 158 979 q 825 983 709 979 q 815 806 815 884 q 819 692 815 736 l 787 692 q 760 851 777 800 q 702 927 743 903 q 574 951 660 951 l 498 951 l 498 509 l 721 509 l 721 481 l 498 481 l 498 161 q 509 77 498 104 q 549 40 520 50 q 639 28 577 30 l 639 0 q 435 4 566 4 q 229 0 296 4 l 229 28 q 319 40 291 30 q 359 77 348 50 q 370 161 370 104 l 370 481 l 146 481 l 146 509 l 370 509 l 370 951 l 294 951 q 166 927 208 951 q 108 851 125 903 q 81 692 92 800 l 49 692 z "},"":{"ha":522,"x_min":9,"x_max":509,"o":"m 509 172 q 329 -20 475 -20 q 252 -8 282 -20 q 197 26 221 3 q 155 101 168 57 q 143 221 143 146 l 143 557 l 9 557 l 9 585 l 143 585 l 143 686 l 9 686 l 9 714 l 143 714 l 143 926 q 268 946 221 928 l 268 714 l 473 714 l 473 686 l 268 686 l 268 585 l 473 585 l 473 557 l 268 557 l 268 149 q 290 58 268 85 q 357 31 313 31 q 431 65 400 31 q 482 179 461 100 l 509 172 z "}}}
